<?xml version="1.0" encoding="UTF-8"?>
<svg xmlns="http://www.w3.org/2000/svg" viewBox="0 0 296.92 301.73">
  <defs>
    <style>
      .cls-1 {
        fill: #e6e9eb;
      }

      .cls-2 {
        fill: #ebb097;
      }

      .cls-3 {
        fill: #f17170;
      }

      .cls-4 {
        fill: #e0927a;
      }

      .cls-5 {
        fill: #ed8d8d;
      }

      .cls-6 {
        fill: #cc803f;
      }

      .cls-7 {
        fill: #fff;
      }

      .cls-8 {
        mix-blend-mode: soft-light;
      }

      .cls-9 {
        fill: #cad6e3;
      }

      .cls-10 {
        fill: #4f3938;
      }

      .cls-11 {
        fill: #f2cf5c;
      }

      .cls-12 {
        isolation: isolate;
      }

      .cls-13 {
        fill: #ffefeb;
      }

      .cls-14 {
        fill: #e39579;
      }

      .cls-15 {
        fill: #f1f1f1;
      }

      .cls-16 {
        fill: #f8d1c0;
      }

      .cls-17 {
        fill: #8f5c2c;
      }

      .cls-18 {
        fill: #d5dde3;
      }

      .cls-19 {
        fill: #ffd0bf;
      }

      .cls-20 {
        fill: #57ade6;
      }

      .cls-21 {
        fill: #f6a79c;
      }

      .cls-22 {
        fill: #b47338;
      }
    </style>
  </defs>
  <g class="cls-12">
    <g id="Layer_2" data-name="Layer 2">
      <g id="Layer_1-2" data-name="Layer 1">
        <g id="bg-cewe-1">
          <circle class="cls-11" cx="148.46" cy="143.57" r="113.65"/>
        </g>
        <g id="cewe-1">
          <path class="cls-17" d="M104.88,41.18s-13.82,20.62-11.56,41.69c2.26,21.07,3.8,31.15-1.92,40.31-5.73,9.16,2.31,25.7,2.31,25.7l110.55,5.94s10.02-15.52,4.44-29.38c-5.58-13.86-5.15-20.18,1.58-32.29,6.73-12.11-10.91-48.53-30.61-52.91-19.71-4.38-68.42-10.83-74.78.94Z"/>
          <path class="cls-15" d="M116.2,153.07c-4.93-.99-14.52.66-21.41,6.51-5.8,4.93-16.68,47.28-21.13,56.14-4.23,8.41,8.84,21.69,15.44,17.6,6.34-3.92,22.23-50.34,22.23-50.34,0,0,9.79-28.93,4.86-29.92Z"/>
          <path class="cls-15" d="M170.28,151.51c4.93-.99,16.02,1.12,21.41,6.51,5.2,5.2,20.57,43.38,25.03,52.24,4.23,8.41-8.84,21.69-15.44,17.6-6.34-3.92-26.13-46.44-26.13-46.44,0,0-9.79-28.93-4.86-29.92Z"/>
          <g>
            <rect class="cls-16" x="130.37" y="122.68" width="28.08" height="49.31" transform="translate(288.82 294.66) rotate(180)"/>
            <path class="cls-4" d="M130.37,122.68v29.27c7.62,6.23,20.16,6.6,27.11-1.01.34-.45.66-.91.98-1.38v-26.88h-28.08Z"/>
          </g>
          <g>
            <g>
              <path class="cls-15" d="M106.26,185.71c0-9.03,2.92-29.86,2.87-30.57,5.54-3.23,15.29-5.74,20.27-6.77.57,4.64,2.86,9.9,5.82,14.54,2.78,4.34,6.2,5.39,9.58,5.45,3.38.06,5.87-1.35,8.89-5.04,2.8-3.43,3.46-7.88,5.27-14.62,6.05,2.17,11.98,1.68,18.03,3.86,4.01,8.07,5.77,27.28,6.86,36.08.69,5.54,3.88,44.39,1.88,48.7-2,4.31-19.61,6.5-24.86,6.93-19.7,1.61-44.25-.35-47.6-1.47-13.9-4.61-11.67-5.85-11.14-12.41.27-3.35,4.13-35.64,4.13-44.68Z"/>
              <path class="cls-18" d="M182.05,173.9c-.25,9.35,1.54,28.81-2.52,30.12-3.28,1.05-46.92,2.55-69.37-.12-1.6,0-2.59-2.31-2.59-6.94,0-8.92.6-14.74-.66-21.83-.37,4.02-.64,7.84-.64,10.58,0,9.03-3.86,41.32-4.13,44.68-.53,6.56-2.75,7.8,11.14,12.41,3.36,1.11,27.9,3.07,47.6,1.47,5.24-.43,22.86-2.62,24.86-6.93,2-4.31-1.19-43.16-1.88-48.7-.45-3.64-1.02-9.06-1.81-14.73Z"/>
              <path class="cls-1" d="M130.11,147.33s-4.29.48-5,2.98c-.71,2.5-3.91,17.74,2.38,23.03,6.29,5.28,17.05-4.52,17.31-4.98.26-.45-12.59-6.63-14.69-21.03Z"/>
              <path class="cls-1" d="M158.72,147.43s4.29.48,5,2.98c.71,2.5,4.51,21.55-3.53,24.21-6.97,2.31-14.42-5.83-14.68-6.28-.26-.45,11.12-6.51,13.22-20.91Z"/>
            </g>
            <g>
              <g>
                <circle class="cls-9" cx="148.01" cy="176.93" r="1.27"/>
                <circle class="cls-9" cx="148.01" cy="195.7" r="1.27"/>
                <circle class="cls-9" cx="148.01" cy="214.46" r="1.27"/>
                <path class="cls-9" d="M149.28,233.22c0,.7-.57,1.27-1.27,1.27s-1.27-.57-1.27-1.27.57-1.27,1.27-1.27,1.27.57,1.27,1.27Z"/>
              </g>
              <polygon class="cls-9" points="145.19 243.52 145.73 243.52 145.5 168.34 144.99 168.36 145.19 243.52"/>
            </g>
          </g>
          <g>
            <g>
              <g>
                <path class="cls-2" d="M200.08,121.53c12.15,1.48,20.53-11.69,20.38-21.77-.15-4.84-4.89-6.65-10.18-6.61-10.95-.08-18.63,9.54-15.87,16.75.96,4.71,2.77,11.11,5.67,11.63Z"/>
                <path class="cls-14" d="M203.12,111.59c.1.59,2.54,2.51,4.5,1.48,2.45-2.35-.97-5.9.79-8.1,1.96-1.03,4.5-2.79,2.94-3.68-3.13-1.78-7.82,4.11-9.97-.32-.75-1.55-1.2-3.46-1.08-5.37-1.4,1.04-2.62,2.25-3.6,3.55.53,4.56,3.68,8.92,6.42,12.44Z"/>
              </g>
              <g>
                <path class="cls-19" d="M95.15,113.08c-13.53-1.71-16.05-16.11-12.89-25.73,1.59-4.6,6.65-6.31,11.88-4.47,10.88,3.65,15.12,16.2,10.23,22.18-2.35,4.19-6.18,8.41-9.22,8.03Z"/>
                <path class="cls-21" d="M95.59,103.95c-.28.53-3.19,1.6-4.73.01-1.59-3,2.76-5.3,1.77-7.95-1.54-1.58-3.41-4.05-1.65-4.41,3.52-.71,6.16,6.34,9.57,2.8,1.2-1.24,2.22-2.91,2.69-4.77,1.01,1.42,1.79,2.95,2.31,4.49-1.92,4.17-6.27,7.33-9.97,9.82Z"/>
              </g>
            </g>
            <path class="cls-19" d="M153.31,145.7c14.99-2.39,36.9-9.64,45.06-23.89,1.77-10.14,3.12-20.35,4.05-30.6,1.08-11.92,1.57-24.15-1.78-35.64-3.64-12.53-11.9-23.65-22.84-30.77-13.11-8.53-29.93-11.22-45-6.82-12.06,3.24-22.78,11.78-27.92,23.21-2.24,4.98-3.49,10.36-4.35,15.76-1.44,9.02-1.85,18.2-1.22,27.3-1.32,5.13-2.65,10.25-3.97,15.38-.73,2.82-1.46,5.68-1.32,8.59.14,2.93,1.17,5.74,2.4,8.41,8.23,17.94,34.34,28.8,44.45,29.89,2.65.28,7.11.05,12.45-.8Z"/>
            <path class="cls-2" d="M165.4,140.06c21.75-3.57,34.96-24.02,20.66-45.47-4.77-6.85-17.02-17.65-24.76-20.33-20.04-7.19-40.75-9.29-61.54-11.45.22-1.96.48-3.92.79-5.87.86-5.4,2.11-10.77,4.35-15.76,5.14-11.43,15.86-19.97,27.92-23.21,15.07-4.4,31.89-1.71,45,6.82,10.93,7.12,19.19,18.25,22.84,30.77,3.34,11.49,2.86,23.72,1.78,35.64-.93,10.25-2.28,20.46-4.05,30.6-8.15,14.25-30.06,21.5-45.06,23.89-5.34.85-9.8,1.09-12.45.8-5.72-.61-16.59-4.37-26.43-10.77,24.82,10.38,38.03,6.59,50.97,4.33Z"/>
            <g>
              <g>
                <circle class="cls-5" cx="168.03" cy="117.56" r="11.63" transform="translate(-36.74 106.41) rotate(-31.86)"/>
                <g>
                  <path class="cls-3" d="M172.17,114.64c.29,1.43.58,2.86.88,4.29.04.2.05.37-.05.56-.08.16-.25.32-.43.36-.35.1-.84-.07-.93-.47-.29-1.43-.58-2.86-.88-4.29-.04-.2-.05-.37.05-.56.08-.16.25-.32.43-.36.35-.1.84.07.93.47h0Z"/>
                  <path class="cls-3" d="M166.87,111.19c.39,2.92.78,5.85,1.17,8.77.05.39-.32.75-.69.78-.42.02-.72-.3-.78-.69-.39-2.92-.78-5.85-1.17-8.77-.05-.39.32-.75.69-.78.42-.02.72.3.78.69h0Z"/>
                </g>
              </g>
              <g>
                <circle class="cls-5" cx="117.62" cy="106.41" r="10.41" transform="translate(-17.31 23.04) rotate(-10.43)"/>
                <g>
                  <path class="cls-3" d="M120.8,103.17c.23,1.95.45,3.89.68,5.84.04.35-.28.68-.62.69-.37.02-.65-.27-.69-.62-.23-1.95-.45-3.89-.68-5.84-.04-.35.28-.68.62-.69.37-.02.65.27.69.62h0Z"/>
                  <path class="cls-3" d="M115.74,102.63c.17,1.31.34,2.62.51,3.93.04.34-.28.69-.62.69-.38,0-.65-.26-.69-.62-.17-1.31-.34-2.62-.51-3.93-.04-.34.28-.69.62-.69.38,0,.65.26.69.62h0Z"/>
                </g>
              </g>
              <g>
                <ellipse class="cls-10" cx="125.72" cy="95.69" rx="8" ry="5.96" transform="translate(11.74 205.11) rotate(-81.11)"/>
                <ellipse class="cls-10" cx="161.2" cy="104.49" rx="8" ry="5.96" transform="translate(33.05 247.6) rotate(-81.11)"/>
                <path class="cls-10" d="M144.59,99.69c-.74-.5-.04-1.38.4-1.83.52-.54-.36-1.31-.88-.77-.48.5-.93,1.1-1,1.82-.06.63.17,1.29.71,1.65.26.18.59.2.82-.05.19-.21.21-.65-.05-.82Z"/>
                <path class="cls-10" d="M130.11,81.57c-.34-.11-.69-.2-1.05-.27-.18-.04-.35-.07-.53-.09-.09-.01-.18-.02-.27-.03-.03,0-.09,0-.11-.01.14.01.16.02.08,0-.03,0-.05,0-.08,0-.73-.06-1.47-.04-2.19.06-.09.01-.18.02-.27.04-.02,0-.1,0-.11.02,0,0,.19-.04.07-.01-.19.04-.38.07-.57.12-.35.08-.7.18-1.04.3-.17.06-.34.12-.51.19-.08.03-.17.07-.25.1-.03.01-.09.03-.11.05.11-.05.13-.06.07-.03-.02.01-.05.02-.07.03-.32.15-.64.33-.95.51-.35.21-.68.46-1.01.7-.12.09.14-.12.03-.02-.04.03-.08.07-.12.1-.08.07-.16.13-.23.2-.16.15-.32.3-.47.46-.38.39-1.07.44-1.46.04-.39-.4-.44-1.05-.04-1.46,2.27-2.35,5.61-3.65,8.88-3.48.94.05,1.87.2,2.77.48.51.16.93.68.77,1.24-.14.51-.69.94-1.24.77h0Z"/>
                <path class="cls-10" d="M169.85,96.29c-.12-.34-.26-.67-.42-1-.08-.16-.16-.32-.25-.48-.04-.08-.09-.16-.13-.23-.02-.03-.05-.07-.06-.1.07.12.09.14.04.07-.01-.02-.03-.04-.04-.07-.39-.62-.86-1.19-1.37-1.71-.06-.06-.13-.13-.19-.19-.02-.02-.06-.07-.08-.08,0,0,.15.13.05.05-.15-.13-.29-.26-.44-.38-.28-.23-.57-.44-.87-.64-.15-.1-.3-.2-.46-.29-.08-.05-.16-.09-.23-.14-.02-.01-.07-.05-.1-.06.11.06.13.07.06.03-.02-.01-.05-.02-.07-.04-.32-.17-.65-.31-.98-.45-.38-.15-.78-.27-1.17-.38-.14-.04.17.04.03,0-.05-.01-.1-.02-.15-.03-.1-.02-.2-.04-.3-.06-.22-.04-.43-.07-.65-.1-.54-.06-1-.59-.91-1.14.09-.55.57-.98,1.14-.91,3.25.39,6.3,2.26,8.14,4.97.53.78.98,1.61,1.29,2.5.18.51.02,1.15-.53,1.36-.49.19-1.17.02-1.36-.53h0Z"/>
                <path class="cls-10" d="M136.45,110.11c4.75,1.99,10.24,1.79,14.89-.38.48-.22.6-.91.35-1.34-.29-.49-.86-.58-1.34-.35-4.2,1.96-9.12,1.96-13.38.18-.49-.2-1.08.22-1.21.68-.16.57.19,1,.68,1.21h0Z"/>
              </g>
              <g class="cls-8">
                <path class="cls-13" d="M173.51,111.44c-.22.95,1.77,2.21,4.42,2.81,2.66.6,4.99.32,5.2-.63.22-.95-1.77-2.21-4.42-2.81-2.66-.6-4.99-.32-5.2.63Z"/>
              </g>
              <g class="cls-8">
                <path class="cls-13" d="M108.26,98.76c-.16.73,1.02,1.61,2.64,1.98,1.62.37,3.07.08,3.23-.65s-1.02-1.61-2.64-1.98c-1.62-.37-3.07-.08-3.23.65Z"/>
              </g>
            </g>
            <g>
              <g>
                <path class="cls-6" d="M222.32,72.51c.21-6.24.16-14.05-1.19-21.78-2.53-14.43-9.06-28.53-23.32-31.38C181.4-3.35,150.39-3.86,127.15,6.47c-25.27,11.23-41.52,42.53-33.83,76.41,0,0,6.08,1.79,7.55,3.12.88-16.37,6.06-28.87,10.69-36.55-1.69,8.18-3.77,16.7-3.07,25.04,2.37.09,4.68.21,6.95.36.59-5.24,1.73-10.42,3.95-15.36-1.5,5.15-1.31,10.44-.41,15.62,1.6.13,3.19.29,4.76.46-.57-6.95,1.43-13.82,4.28-20.09-2.19,6.38-2.72,13.56-1.7,20.38,10.46,1.27,20.42,3.34,31.54,6.34,1.18-4.11.55-8.61,1.9-12.78-.35,4.4.32,8.94.5,13.44,4.32,1.21,8.61,2.55,12.86,4.01,2.94-8.17,3.24-17.08,3.93-25.76,3.21,9.06,5.14,19.11,4.34,28.77,11.53,4.45,22.72,9.81,33.39,16.05,1.03.6,7.12-21.46,7.51-33.41Z"/>
                <path class="cls-22" d="M175.89,14.48c5.56,4.09,10.24,10.52,10.54,17.83,11.07-4.37,23.6-.03,32.08,8.1-3.55-10.3-9.92-18.9-20.71-21.05C181.4-3.35,150.39-3.86,127.15,6.47c-1.61.71-3.18,1.51-4.71,2.38,18.09-3.43,37.89-5.12,53.45,5.63Z"/>
                <g>
                  <path class="cls-17" d="M137.16,41.99c-7.57,8.81-11.62,20.35-11.23,31.96.05,1.37,2.17,1.25,2.12-.12-.37-11.05,3.49-22.03,10.69-30.42.89-1.04-.69-2.46-1.58-1.42Z"/>
                  <path class="cls-17" d="M164.16,50.07c-4.68,9.92-6.48,21.06-5.11,31.95.17,1.35,2.29,1.24,2.12-.12-1.33-10.52.35-21.26,4.88-30.86.58-1.24-1.31-2.21-1.89-.97Z"/>
                  <path class="cls-17" d="M118.76,40.5c-8.73,7.78-14.83,16.84-17.44,29.63-1.18,5.81-.86,12.17-.99,15.52-.05,1.35,2.17,1.07,2.07-.29-1.1-14.22,4.15-27.22,11.07-36.13,1.97-2.53,4.16-4.89,6.55-7.02,1.01-.9-.23-2.63-1.26-1.72Z"/>
                  <path class="cls-17" d="M196.69,41.37c-.5-1.26-2.53-.6-2.02.68,4.91,12.29,6.62,25.73,4.88,38.85-.18,1.35,1.9,1.81,2.08.45,1.79-13.5.11-27.33-4.94-39.98Z"/>
                  <path class="cls-17" d="M143.18,47.23c-3.24,3.23-5.03,7.63-5.06,12.19,0,1.37,2.11,1.25,2.12-.12.03-4.02,1.68-7.83,4.52-10.66.97-.97-.62-2.38-1.58-1.42Z"/>
                  <path class="cls-17" d="M208.21,44.65c-.44-1.29-2.46-.62-2.02.68,2.69,7.82,3.59,16.18,2.57,24.39-.17,1.35,1.91,1.81,2.08.45,1.06-8.6.18-17.32-2.64-25.52Z"/>
                </g>
              </g>
              <path class="cls-6" d="M214.11,70.88c3.36-6.52,6.09-22.14,6.09-22.14,5.34,18.61,4.86,43.35.38,63.18-1.17,5.16-2.76,10.48-1.64,15.66,1.12,5.22,4.88,10.62,2.46,15.37-.85,1.66-2.33,2.87-3.54,4.29-5.58,6.52-4.63,15.9-2.52,24.52-8.5.63-17.05.55-25.54-.26-1.11-5.17.18-10.87,3.6-14.93,4.01-4.76,10.7-7.59,12.5-13.55,2.02-6.69-3.26-13.26-4.32-20.17-.78-5.08.77-10.19,1.63-15.25,1.55-9.16,2.48-19.61-.46-28.43,0,0,7.55-.88,11.37-8.29Z"/>
              <path class="cls-6" d="M97.18,37.33c2.91-5.07,6.44-9.77,10.55-13.93l-2.08,31c-3.83,7.68-5.34,16.5-4.3,25.02,1.25,10.24,6.06,20.67,2.82,30.46-1.38,4.16-4.16,7.86-4.83,12.2-.76,4.91,1.29,9.75,2.82,14.47,1.54,4.76,2.49,10.29-.23,14.49-8.24.75-16.54.98-24.81.69-6.2-15.47-5.2-33.87,3.29-48.28,2.84-4.82,6.5-9.36,7.63-14.84.84-4.06.21-8.25-.06-12.38-.86-13.49,2.47-27.18,9.19-38.9Z"/>
              <path class="cls-6" d="M184.71,59.63c1.93-.37,3.45-.67,3.45-.67-.25,13.89,11.47,26.28,10.57,40.14-.48,7.4-4.59,14.53-3.35,21.86.82,4.91,4.01,9.44,3.75,14.4-.36,6.83-6.85,11.53-12.09,16.13-3.72,3.26-7.16,7.97-7.47,12.49-2.21-.27-4.45-.4-6.67-.38-2.44-3.58-2.32-8.58-.72-12.67,1.86-4.75,5.33-8.71,8.14-13,2.8-4.29,5.02-9.38,3.93-14.36-1.07-4.85-5.11-8.85-5.65-13.78-.28-2.56.44-5.11,1.01-7.62,3.09-13.53,2.13-27.92-2.74-41.02,0,0,4.52-.87,7.84-1.51Z"/>
            </g>
          </g>
        </g>
        <g id="nama-cewe-1">
          <rect class="cls-20" x="0" y="205.94" width="296.92" height="95.79" rx="47.89" ry="47.89"/>
          <path class="cls-7" d="M246.38,297.45h-6.47c-.59,0-1.07-.48-1.07-1.07s.48-1.07,1.07-1.07h6.47c.59,0,1.07.48,1.07,1.07s-.48,1.07-1.07,1.07ZM233.98,297.45h-6.47c-.59,0-1.07-.48-1.07-1.07s.48-1.07,1.07-1.07h6.47c.59,0,1.07.48,1.07,1.07s-.48,1.07-1.07,1.07ZM221.59,297.45h-6.47c-.59,0-1.07-.48-1.07-1.07s.48-1.07,1.07-1.07h6.47c.59,0,1.07.48,1.07,1.07s-.48,1.07-1.07,1.07ZM209.19,297.45h-6.47c-.59,0-1.07-.48-1.07-1.07s.48-1.07,1.07-1.07h6.47c.59,0,1.07.48,1.07,1.07s-.48,1.07-1.07,1.07ZM196.79,297.45h-6.47c-.59,0-1.07-.48-1.07-1.07s.48-1.07,1.07-1.07h6.47c.59,0,1.07.48,1.07,1.07s-.48,1.07-1.07,1.07ZM184.39,297.45h-6.47c-.59,0-1.07-.48-1.07-1.07s.48-1.07,1.07-1.07h6.47c.59,0,1.07.48,1.07,1.07s-.48,1.07-1.07,1.07ZM171.99,297.45h-6.47c-.59,0-1.07-.48-1.07-1.07s.48-1.07,1.07-1.07h6.47c.59,0,1.07.48,1.07,1.07s-.48,1.07-1.07,1.07ZM159.59,297.45h-6.47c-.59,0-1.07-.48-1.07-1.07s.48-1.07,1.07-1.07h6.47c.59,0,1.07.48,1.07,1.07s-.48,1.07-1.07,1.07ZM147.19,297.45h-6.47c-.59,0-1.07-.48-1.07-1.07s.48-1.07,1.07-1.07h6.47c.59,0,1.07.48,1.07,1.07s-.48,1.07-1.07,1.07ZM134.79,297.45h-6.47c-.59,0-1.07-.48-1.07-1.07s.48-1.07,1.07-1.07h6.47c.59,0,1.07.48,1.07,1.07s-.48,1.07-1.07,1.07ZM122.39,297.45h-6.47c-.59,0-1.07-.48-1.07-1.07s.48-1.07,1.07-1.07h6.47c.59,0,1.07.48,1.07,1.07s-.48,1.07-1.07,1.07ZM109.99,297.45h-6.47c-.59,0-1.07-.48-1.07-1.07s.48-1.07,1.07-1.07h6.47c.59,0,1.07.48,1.07,1.07s-.48,1.07-1.07,1.07ZM97.59,297.45h-6.47c-.59,0-1.07-.48-1.07-1.07s.48-1.07,1.07-1.07h6.47c.59,0,1.07.48,1.07,1.07s-.48,1.07-1.07,1.07ZM85.19,297.45h-6.47c-.59,0-1.07-.48-1.07-1.07s.48-1.07,1.07-1.07h6.47c.59,0,1.07.48,1.07,1.07s-.48,1.07-1.07,1.07ZM72.79,297.45h-6.47c-.59,0-1.07-.48-1.07-1.07s.48-1.07,1.07-1.07h6.47c.59,0,1.07.48,1.07,1.07s-.48,1.07-1.07,1.07ZM60.39,297.45h-6.47c-.59,0-1.07-.48-1.07-1.07s.48-1.07,1.07-1.07h6.47c.59,0,1.07.48,1.07,1.07s-.48,1.07-1.07,1.07ZM48,297.45h-.1c-2.21,0-4.43-.17-6.6-.5-.58-.09-.98-.63-.9-1.22.09-.58.63-.98,1.22-.9,2.06.31,4.18.47,6.28.47h.1c.59,0,1.07.48,1.07,1.07s-.48,1.07-1.07,1.07ZM252.31,297.33c-.55,0-1.02-.43-1.06-.99-.05-.59.39-1.1.98-1.15,2.09-.16,4.19-.48,6.22-.96.57-.13,1.15.22,1.28.8.13.57-.22,1.15-.8,1.28-2.14.5-4.34.84-6.55,1.01-.03,0-.06,0-.08,0ZM35.67,295.67c-.1,0-.21-.01-.31-.05-2.11-.63-4.19-1.44-6.18-2.39-.53-.25-.76-.89-.51-1.42.25-.53.89-.76,1.42-.5,1.9.9,3.87,1.67,5.88,2.27.57.17.89.77.72,1.33-.14.46-.56.76-1.02.76ZM264.36,294.6c-.43,0-.83-.26-1-.68-.21-.55.06-1.17.61-1.38,1.95-.76,3.86-1.67,5.68-2.72.51-.29,1.16-.12,1.46.39.29.51.12,1.16-.39,1.46-1.91,1.1-3.92,2.06-5.97,2.86-.13.05-.26.07-.39.07ZM24.48,290.42c-.2,0-.41-.06-.59-.18-1.84-1.22-3.6-2.58-5.23-4.06-.44-.4-.47-1.07-.08-1.51.4-.44,1.07-.47,1.51-.08,1.56,1.41,3.23,2.71,4.98,3.86.49.33.63.99.3,1.48-.21.31-.55.48-.89.48ZM275.1,288.51c-.32,0-.63-.14-.84-.41-.36-.47-.28-1.14.19-1.5,1.65-1.29,3.23-2.71,4.67-4.23.41-.43,1.08-.45,1.51-.04.43.41.45,1.08.04,1.51-1.52,1.6-3.17,3.1-4.91,4.45-.2.15-.43.22-.66.22ZM15.27,282.19c-.31,0-.61-.13-.82-.38-1.42-1.69-2.71-3.5-3.86-5.38-.31-.5-.15-1.16.36-1.47.51-.31,1.16-.15,1.47.36,1.09,1.79,2.32,3.51,3.67,5.12.38.45.32,1.13-.13,1.51-.2.17-.44.25-.69.25ZM283.66,279.6c-.21,0-.43-.06-.62-.2-.48-.34-.59-1.01-.25-1.49,1.22-1.71,2.32-3.52,3.27-5.39.27-.53.91-.74,1.44-.47.53.27.74.91.47,1.44-1,1.96-2.15,3.87-3.43,5.66-.21.29-.54.45-.87.45ZM8.79,271.68c-.41,0-.81-.24-.98-.65-.87-2.02-1.59-4.13-2.15-6.27-.15-.57.2-1.15.77-1.3.57-.15,1.15.2,1.3.77.53,2.03,1.21,4.03,2.04,5.96.23.54-.02,1.17-.56,1.4-.14.06-.28.09-.42.09ZM289.31,268.61c-.11,0-.23-.02-.35-.06-.56-.19-.86-.8-.67-1.36.68-1.98,1.21-4.03,1.57-6.1.1-.58.66-.97,1.24-.87.58.1.97.66.87,1.24-.39,2.17-.94,4.33-1.65,6.42-.15.44-.57.72-1.01.72ZM5.62,259.74c-.54,0-1-.4-1.06-.95-.19-1.64-.28-3.31-.28-4.96,0-.55.01-1.11.03-1.66.02-.59.5-1.05,1.11-1.03.59.02,1.05.52,1.03,1.11-.02.52-.03,1.05-.03,1.57,0,1.57.09,3.16.27,4.72.07.59-.35,1.12-.94,1.18-.04,0-.08,0-.12,0ZM291.55,256.47s-.03,0-.04,0c-.59-.02-1.05-.52-1.03-1.11.02-.51.03-1.01.03-1.52,0-1.59-.09-3.2-.27-4.77-.07-.59.35-1.12.94-1.18.58-.07,1.12.35,1.18.94.19,1.65.29,3.34.29,5.01,0,.54,0,1.07-.03,1.6-.02.58-.5,1.03-1.07,1.03ZM6.01,247.4c-.06,0-.13,0-.19-.02-.58-.1-.97-.66-.86-1.24.39-2.17.95-4.33,1.66-6.41.19-.56.8-.86,1.36-.66.56.19.86.8.66,1.36-.68,1.98-1.21,4.03-1.58,6.1-.09.52-.54.88-1.05.88ZM290.21,244.19c-.47,0-.91-.32-1.03-.8-.53-2.03-1.22-4.03-2.05-5.95-.23-.54.02-1.17.56-1.4.54-.23,1.17.01,1.4.56.88,2.03,1.6,4.13,2.15,6.26.15.57-.19,1.15-.76,1.3-.09.02-.18.03-.27.03ZM9.93,235.69c-.16,0-.33-.04-.48-.12-.53-.27-.74-.91-.47-1.44,1-1.96,2.16-3.87,3.44-5.66.34-.48,1.01-.59,1.49-.25.48.34.59,1.01.25,1.49-1.22,1.71-2.32,3.52-3.27,5.38-.19.37-.56.58-.95.58ZM285.39,232.82c-.36,0-.71-.18-.91-.51-1.09-1.79-2.33-3.51-3.68-5.11-.38-.45-.32-1.13.13-1.51.45-.38,1.13-.32,1.51.13,1.42,1.69,2.72,3.5,3.86,5.38.31.5.15,1.16-.36,1.47-.17.11-.37.16-.56.16ZM17.07,225.6c-.26,0-.53-.1-.74-.29-.43-.41-.45-1.08-.04-1.51,1.52-1.6,3.17-3.09,4.91-4.44.47-.36,1.14-.28,1.5.19.36.47.28,1.14-.19,1.5-1.66,1.28-3.23,2.71-4.67,4.23-.21.22-.49.33-.77.33ZM277.5,223.31c-.26,0-.51-.09-.72-.28-1.56-1.41-3.23-2.7-4.98-3.86-.49-.32-.63-.99-.3-1.48.33-.49.99-.63,1.48-.3,1.84,1.21,3.6,2.58,5.24,4.05.44.4.47,1.07.08,1.51-.21.23-.5.35-.79.35ZM26.78,217.97c-.37,0-.73-.19-.93-.54-.29-.51-.12-1.17.39-1.46,1.91-1.1,3.92-2.06,5.98-2.85.55-.21,1.17.06,1.38.61.21.55-.06,1.17-.61,1.38-1.95.75-3.86,1.66-5.68,2.71-.17.1-.35.14-.53.14ZM267.23,216.45c-.15,0-.31-.03-.46-.1-1.9-.9-3.88-1.66-5.88-2.26-.57-.17-.89-.76-.72-1.33.17-.57.76-.89,1.33-.72,2.11.63,4.19,1.43,6.19,2.38.53.25.76.89.51,1.42-.18.39-.57.61-.97.61ZM38.27,213.45c-.49,0-.93-.33-1.04-.83-.13-.57.22-1.15.8-1.28,2.14-.5,4.35-.83,6.55-1,.58-.05,1.1.4,1.15.99.04.59-.4,1.1-.99,1.15-2.09.16-4.19.48-6.23.95-.08.02-.16.03-.24.03ZM255.42,212.83c-.05,0-.11,0-.16-.01-2.05-.31-4.15-.47-6.23-.47-.59,0-1.09-.48-1.09-1.07s.45-1.07,1.04-1.07h.05c2.19,0,4.4.17,6.55.49.58.09.99.63.9,1.22-.08.53-.54.91-1.06.91ZM243.04,212.35h-6.47c-.59,0-1.07-.48-1.07-1.07s.48-1.07,1.07-1.07h6.47c.59,0,1.07.48,1.07,1.07s-.48,1.07-1.07,1.07ZM230.65,212.35h-6.47c-.59,0-1.07-.48-1.07-1.07s.48-1.07,1.07-1.07h6.47c.59,0,1.07.48,1.07,1.07s-.48,1.07-1.07,1.07ZM218.25,212.35h-6.47c-.59,0-1.07-.48-1.07-1.07s.48-1.07,1.07-1.07h6.47c.59,0,1.07.48,1.07,1.07s-.48,1.07-1.07,1.07ZM205.85,212.35h-6.47c-.59,0-1.07-.48-1.07-1.07s.48-1.07,1.07-1.07h6.47c.59,0,1.07.48,1.07,1.07s-.48,1.07-1.07,1.07ZM193.45,212.35h-6.47c-.59,0-1.07-.48-1.07-1.07s.48-1.07,1.07-1.07h6.47c.59,0,1.07.48,1.07,1.07s-.48,1.07-1.07,1.07ZM181.05,212.35h-6.47c-.59,0-1.07-.48-1.07-1.07s.48-1.07,1.07-1.07h6.47c.59,0,1.07.48,1.07,1.07s-.48,1.07-1.07,1.07ZM168.65,212.35h-6.47c-.59,0-1.07-.48-1.07-1.07s.48-1.07,1.07-1.07h6.47c.59,0,1.07.48,1.07,1.07s-.48,1.07-1.07,1.07ZM156.25,212.35h-6.47c-.59,0-1.07-.48-1.07-1.07s.48-1.07,1.07-1.07h6.47c.59,0,1.07.48,1.07,1.07s-.48,1.07-1.07,1.07ZM143.85,212.35h-6.47c-.59,0-1.07-.48-1.07-1.07s.48-1.07,1.07-1.07h6.47c.59,0,1.07.48,1.07,1.07s-.48,1.07-1.07,1.07ZM131.45,212.35h-6.47c-.59,0-1.07-.48-1.07-1.07s.48-1.07,1.07-1.07h6.47c.59,0,1.07.48,1.07,1.07s-.48,1.07-1.07,1.07ZM119.05,212.35h-6.47c-.59,0-1.07-.48-1.07-1.07s.48-1.07,1.07-1.07h6.47c.59,0,1.07.48,1.07,1.07s-.48,1.07-1.07,1.07ZM106.65,212.35h-6.47c-.59,0-1.07-.48-1.07-1.07s.48-1.07,1.07-1.07h6.47c.59,0,1.07.48,1.07,1.07s-.48,1.07-1.07,1.07ZM94.25,212.35h-6.47c-.59,0-1.07-.48-1.07-1.07s.48-1.07,1.07-1.07h6.47c.59,0,1.07.48,1.07,1.07s-.48,1.07-1.07,1.07ZM81.85,212.35h-6.47c-.59,0-1.07-.48-1.07-1.07s.48-1.07,1.07-1.07h6.47c.59,0,1.07.48,1.07,1.07s-.48,1.07-1.07,1.07ZM69.45,212.35h-6.47c-.59,0-1.07-.48-1.07-1.07s.48-1.07,1.07-1.07h6.47c.59,0,1.07.48,1.07,1.07s-.48,1.07-1.07,1.07ZM57.05,212.35h-6.47c-.59,0-1.07-.48-1.07-1.07s.48-1.07,1.07-1.07h6.47c.59,0,1.07.48,1.07,1.07s-.48,1.07-1.07,1.07Z"/>
        </g>
      </g>
    </g>
  </g>
</svg>