<?xml version="1.0" encoding="UTF-8"?>
<svg xmlns="http://www.w3.org/2000/svg" viewBox="0 0 156.5 241.61">
  <defs>
    <style>
      .cls-1 {
        fill: #e6e9eb;
      }

      .cls-2 {
        fill: #3c2b2b;
      }

      .cls-3 {
        fill: #f09190;
      }

      .cls-4 {
        fill: #e0927a;
      }

      .cls-5 {
        fill: #f47170;
      }

      .cls-6 {
        fill: #c8375b;
      }

      .cls-7 {
        mix-blend-mode: soft-light;
      }

      .cls-8 {
        fill: #f7d5c7;
      }

      .cls-9 {
        fill: #cad6e3;
      }

      .cls-10 {
        fill: #4f3938;
      }

      .cls-11 {
        fill: #473432;
      }

      .cls-12 {
        isolation: isolate;
      }

      .cls-13 {
        fill: #f1f1f1;
      }

      .cls-14 {
        fill: #f8d1c0;
      }

      .cls-15 {
        fill: #533838;
      }

      .cls-16 {
        fill: #d5dde3;
      }

      .cls-17 {
        fill: #f7d0bf;
      }

      .cls-18 {
        fill: #f7ece9;
      }

      .cls-19 {
        fill: #efaf94;
      }
    </style>
  </defs>
  <g class="cls-12">
    <g id="Layer_2" data-name="Layer 2">
      <g id="Layer_1-2" data-name="Layer 1">
        <g id="cewe-4">
          <g>
            <path class="cls-10" d="M30.98,111.2c-12.25,7.3-21.91,18.84-26.94,32.18-5.03,13.34-5.38,28.39-.99,41.96,0,0,.49,1.52,1.26,3.91,3.69,2.97,8.28,5.17,12.7,6.88,9.65,3.73,19.68,6.47,29.88,8.17,7.9-13.3,11.91-28.88,11.37-44.34-.59-16.74-6.53-33.25-16.74-46.53l-10.54-2.22Z"/>
            <path class="cls-11" d="M58.27,159.95c-.59-16.74-6.53-33.25-16.74-46.53l-10.54-2.22c-5.98,3.56-11.35,8.14-15.85,13.44,4.36,7.76,22.15,12.34,30.28,15.44,2.43.89,2.01,8.54,2.62,10.91-17.19,1.01-38.5,10.16-47.37,24.06.51,3.49,1.3,6.94,2.39,10.29,0,0,.49,1.52,1.26,3.91,3.69,2.97,8.28,5.17,12.7,6.88,9.65,3.73,19.68,6.47,29.88,8.17,7.9-13.3,11.91-28.88,11.37-44.34Z"/>
            <g>
              <path class="cls-6" d="M28.96,112.17c-.13-4.5-2-9.12-5.74-11.79-3.53-2.53-8.46-3.14-12.28-.86-3.82,2.28-5.72,7.14-4.8,11.43.92,4.33,4.69,7.79,8.96,8.73,4.88,1.08,10.12-1.19,13.03-5.17,1.03-1.4-.97-3.26-2-1.85-2.07,2.82-5.33,4.66-8.88,4.56-3.36-.1-6.64-2.31-7.98-5.39-1.37-3.14-.46-7.01,2.11-9.27,2.63-2.32,6.56-2.14,9.48-.48,3.59,2.05,5.27,6.27,5.38,10.24.05,1.75,2.77,1.61,2.72-.15h0Z"/>
              <path class="cls-6" d="M28.36,114.9c3.26-2.27,7.19-3.95,11.24-3.56,3.62.34,7.36,2.61,8.56,6.18,1.16,3.46-.48,7.49-3.49,9.45-3.18,2.07-7.61,1.66-10.61-.56-3.48-2.58-5.3-8.19-4.36-12.3.39-1.71-2.28-2.27-2.67-.56-1.05,4.63.76,10.66,4.19,14.01,3.36,3.29,8.81,4.46,13.17,2.62,4.29-1.81,7.22-6.44,6.84-11.11-.4-4.84-4.22-8.47-8.67-9.89-5.38-1.71-11.22.33-15.67,3.43-1.44,1,.02,3.3,1.46,2.3h0Z"/>
              <path class="cls-6" d="M26.41,113.57c.51,12.61-1.84,25.25-6.88,36.82-.7,1.6,1.72,2.86,2.42,1.25,5.24-12.02,7.71-25.11,7.18-38.21-.07-1.75-2.79-1.61-2.72.15h0Z"/>
              <path class="cls-6" d="M26.45,113.79c-8.04,9.08-14.9,19.19-20.35,30.02-.79,1.57,1.63,2.82,2.42,1.25,5.35-10.63,12.04-20.51,19.94-29.42,1.16-1.31-.84-3.16-2-1.85h0Z"/>
            </g>
          </g>
          <g>
            <path class="cls-10" d="M116.27,88.95c-10.3,9.85-17.14,23.27-19.05,37.4-1.91,14.13,1.11,28.88,8.43,41.11,0,0,.82,1.37,2.11,3.53,4.26,2.07,9.23,3.19,13.92,3.86,10.24,1.47,20.63,1.89,30.95,1.27,4.72-14.73,5.14-30.82,1.15-45.76-4.33-16.18-13.82-30.94-26.74-41.6l-10.77.19Z"/>
            <g>
              <path class="cls-6" d="M125.5,89.24c-3.72-2.52-8.57-3.7-12.92-2.23-4.11,1.39-7.5,5.03-7.87,9.46-.37,4.43,2.46,8.81,6.48,10.58,4.06,1.78,9.06.74,12.32-2.18,3.73-3.33,4.94-8.91,3.42-13.6-.54-1.65-3.21-1.12-2.67.55,1.08,3.33.67,7.05-1.48,9.87-2.04,2.67-5.75,4.04-9.04,3.33-3.35-.72-5.96-3.72-6.3-7.13-.34-3.49,2.09-6.58,5.14-7.97,3.76-1.72,8.17-.61,11.46,1.61,1.45.98,2.93-1.31,1.47-2.29h0Z"/>
              <path class="cls-6" d="M127.37,91.33c.06-3.97,1-8.14,3.67-11.2,2.39-2.74,6.42-4.45,10.01-3.34,3.49,1.07,5.8,4.76,5.63,8.35-.18,3.79-3.09,7.15-6.65,8.28-4.13,1.32-9.74-.48-12.53-3.65-1.16-1.31-3.18.52-2.01,1.84,3.14,3.56,9.1,5.61,13.82,4.78,4.64-.81,8.76-4.55,9.82-9.16,1.04-4.53-1.01-9.62-5.03-12.04-4.16-2.5-9.34-1.52-13.09,1.26-4.53,3.37-6.29,9.3-6.37,14.72-.03,1.75,2.7,1.91,2.72.16h0Z"/>
              <path class="cls-6" d="M125.15,92.13c10.53,6.95,19.42,16.24,25.87,27.09.89,1.5,3.33.27,2.43-1.24-6.7-11.27-15.88-20.92-26.82-28.14-1.46-.97-2.94,1.33-1.47,2.29h0Z"/>
              <path class="cls-6" d="M125.35,92.23c2.67,11.83,6.87,23.3,12.48,34.05.81,1.55,3.24.32,2.43-1.24-5.5-10.55-9.62-21.76-12.24-33.36-.39-1.71-3.06-1.16-2.67.55h0Z"/>
            </g>
          </g>
          <path class="cls-13" d="M55,149.81c-4.93-.99-14.52.66-21.41,6.51-5.8,4.93-16.68,47.28-21.13,56.14-4.23,8.41,8.84,21.69,15.44,17.6,6.34-3.92,22.23-50.34,22.23-50.34,0,0,9.79-28.93,4.86-29.92Z"/>
          <path class="cls-13" d="M109.08,148.25c4.93-.99,16.02,1.12,21.41,6.51,5.2,5.2,20.57,43.38,25.03,52.24,4.23,8.41-8.84,21.69-15.44,17.6-6.34-3.92-26.13-46.44-26.13-46.44,0,0-9.79-28.93-4.86-29.92Z"/>
          <g>
            <rect class="cls-14" x="69.17" y="119.42" width="28.08" height="49.31" transform="translate(166.42 288.14) rotate(180)"/>
            <path class="cls-4" d="M69.17,119.42v29.27c7.62,6.23,20.16,6.6,27.11-1.01.34-.45.66-.91.98-1.38v-26.88h-28.08Z"/>
          </g>
          <g>
            <g>
              <path class="cls-13" d="M45.06,182.45c0-9.03,2.92-29.86,2.87-30.57,5.54-3.23,15.29-5.74,20.27-6.77.57,4.64,2.86,9.9,5.82,14.54,2.78,4.34,6.2,5.39,9.58,5.45s5.87-1.35,8.89-5.04c2.8-3.43,3.46-7.88,5.27-14.62,6.05,2.17,11.98,1.68,18.03,3.86,4.01,8.07,5.77,27.28,6.86,36.08.69,5.54,3.88,44.39,1.88,48.7-2,4.31-19.61,6.5-24.86,6.93-19.7,1.61-44.25-.35-47.6-1.47-13.9-4.61-11.67-5.85-11.14-12.41.27-3.35,4.13-35.64,4.13-44.68Z"/>
              <path class="cls-16" d="M120.85,170.64c-.25,9.35,1.54,28.81-2.52,30.12-3.28,1.05-46.92,2.55-69.37-.12-1.6,0-2.59-2.31-2.59-6.94,0-8.92.6-14.74-.66-21.83-.37,4.02-.64,7.84-.64,10.58,0,9.03-3.86,41.32-4.13,44.68-.53,6.56-2.75,7.8,11.14,12.41,3.36,1.11,27.9,3.07,47.6,1.47,5.24-.43,22.86-2.62,24.86-6.93,2-4.31-1.19-43.16-1.88-48.7-.45-3.64-1.02-9.06-1.81-14.73Z"/>
              <path class="cls-1" d="M68.91,144.07s-4.29.48-5,2.98c-.71,2.5-3.91,17.74,2.38,23.03,6.29,5.28,17.05-4.52,17.31-4.98s-12.59-6.63-14.69-21.03Z"/>
              <path class="cls-1" d="M97.52,144.17s4.29.48,5,2.98c.71,2.5,4.51,21.55-3.53,24.21-6.97,2.31-14.42-5.83-14.68-6.28-.26-.45,11.12-6.51,13.22-20.91Z"/>
            </g>
            <g>
              <g>
                <path class="cls-9" d="M88.08,173.67c0,.7-.57,1.27-1.27,1.27s-1.27-.57-1.27-1.27.57-1.27,1.27-1.27,1.27.57,1.27,1.27Z"/>
                <path class="cls-9" d="M88.08,192.44c0,.7-.57,1.27-1.27,1.27s-1.27-.57-1.27-1.27.57-1.27,1.27-1.27,1.27.57,1.27,1.27Z"/>
                <path class="cls-9" d="M88.08,211.2c0,.7-.57,1.27-1.27,1.27s-1.27-.57-1.27-1.27.57-1.27,1.27-1.27,1.27.57,1.27,1.27Z"/>
                <path class="cls-9" d="M88.08,229.96c0,.7-.57,1.27-1.27,1.27s-1.27-.57-1.27-1.27.57-1.27,1.27-1.27,1.27.57,1.27,1.27Z"/>
              </g>
              <polygon class="cls-9" points="83.99 240.26 84.53 240.26 84.3 165.08 83.79 165.1 83.99 240.26"/>
            </g>
          </g>
          <g>
            <g>
              <g>
                <path class="cls-19" d="M24.46,110.49c-13.21-.32-20.09-15.69-18.36-26.43.91-5.15,6.25-6.33,11.9-5.46,11.71,1.63,18.4,13.09,14.33,20.36-1.75,4.88-4.7,11.43-7.87,11.53Z"/>
                <path class="cls-4" d="M22.76,99.4c-.2.61-3.1,2.28-5.03.88-2.24-2.89,1.96-6.14.42-8.78-1.93-1.4-4.37-3.68-2.56-4.38,3.62-1.41,7.71,5.61,10.7,1.22,1.04-1.54,1.82-3.5,1.99-5.57,1.34,1.33,2.44,2.81,3.29,4.35-1.28,4.79-5.31,8.95-8.8,12.28Z"/>
              </g>
              <path class="cls-17" d="M70.63,143.59c-15.64-4.89-37.9-16.05-44.38-32.54-.3-11.1-.15-22.21.45-33.3.7-12.89,2.1-26.03,7.46-37.78,5.85-12.81,16.4-23.4,29.18-29.29,15.33-7.07,33.71-7.31,49.11-.26,12.37,5.34,22.48,16.13,26.19,29.13,1.62,5.67,2.11,11.61,2.19,17.5.13,9.85-.86,19.72-2.95,29.34-1.24,5.69,1.6,11.6,2.08,17.24,2.28,26.81-33.11,43.63-56.15,42.75-2.88-.11-7.6-1.06-13.17-2.8Z"/>
              <path class="cls-19" d="M47.19,113.05c-2.39-5.69-2.41-12.71,1.51-18.28,6.12-8.62,17.16-12.17,27.31-12.63,21.15-.86,41.92-2.42,62.88-.96,1.39-7.96,2.04-16.04,1.93-24.12-.08-5.9-.57-11.83-2.19-17.5-3.71-13.01-13.82-23.8-26.19-29.13-15.41-7.04-33.78-6.8-49.11.26-12.78,5.89-23.34,16.49-29.18,29.29-5.36,11.75-6.76,24.88-7.46,37.78-.61,11.09-.76,22.2-.45,33.3,6.48,16.48,28.74,27.64,44.38,32.54,5.57,1.74,10.29,2.69,13.17,2.8,3.85.15,8.04-.2,12.35-1.01-20.69-2.52-40.87-11.89-48.95-32.34Z"/>
              <path class="cls-8" d="M139.95,103.64c-.37-4.31-2.1-8.77-2.35-13.18-1.69,1.02-2.87,2.67-2.17,4.85,3.93,10.42,2.17,21.52-3.11,30.6,5.27-6.25,8.35-13.76,7.63-22.28Z"/>
            </g>
            <g>
              <path class="cls-10" d="M2.83,63.52c.6-6.04,1.7-13.56,4.25-20.86,4.77-13.64,13.98-26.56,30.37-27.84C58.88-5.38,93.75-2.71,118.45,9.61c26.86,13.4,40.92,45.21,27.75,77.07,0,0-7.06,1.11-8.89,2.23,1.2-15.86-2.94-28.43-7.12-36.31.8,8.06,2,16.47.1,24.43-2.67-.16-5.28-.28-7.85-.37.04-5.11-.55-10.22-2.38-15.2.99,5.12.07,10.19-1.63,15.09-1.82-.03-3.62-.05-5.4-.05,1.57-6.64.25-13.46-2.12-19.79,1.6,6.37,1.24,13.34-.81,19.81-11.91.15-23.37,1.14-36.25,2.89-.77-4.08.54-8.35-.42-12.51-.2,4.27-1.56,8.58-2.36,12.9-5.01.73-10.01,1.58-14.97,2.55-2.21-8.17-1.36-16.79-.97-25.22-4.81,8.4-8.32,17.88-8.71,27.28-13.54,3.11-26.8,7.13-39.62,12.05-1.23.47-5.12-21.41-3.97-32.95Z"/>
              <path class="cls-11" d="M118.45,9.61C93.75-2.71,58.88-5.38,37.44,14.82c-16.39,1.29-25.6,14.2-30.37,27.84-2.55,7.3-3.65,14.82-4.25,20.86-1.15,11.55,2.73,33.43,3.97,32.95,3.02-1.16,6.06-2.27,9.13-3.32-1.85-1.44-3.41-3.31-4.67-5.34-8.95-15.57-7.04-34.08,1.94-49.24,6.43-10.87,24.8-10.85,34.13-2.52,4-10.56,6.93-23.25,18.54-27.64,14.06-6.1,33.07.52,45.84,7.19,13.72,7.16,25.45,18.88,30.8,33.61,4.22,11.64-.18,22.59-4.99,33.27.03,2.08-.03,4.23-.2,6.44,1.83-1.12,8.89-2.23,8.89-2.23,13.17-31.85-.89-63.66-27.75-77.07Z"/>
              <g>
                <path class="cls-2" d="M102.47,42.82c7.32,9.26,10.32,20.79,8.33,31.93-.23,1.31-2.6.98-2.37-.33,1.9-10.6-.97-21.58-7.93-30.4-.86-1.09,1.1-2.3,1.97-1.2Z"/>
                <path class="cls-2" d="M71.09,47.84c3.92,10.03,4.46,20.95,1.46,31.3-.37,1.28-2.74.96-2.37-.33,2.89-10,2.44-20.52-1.35-30.23-.49-1.25,1.76-1.99,2.25-.74Z"/>
                <path class="cls-2" d="M123.32,43.26c8.76,8.38,14.4,17.74,15.61,30.32.55,5.72-.66,11.81-.97,15.06-.12,1.31-2.58.81-2.28-.49,3.14-13.59-1.02-26.64-7.59-35.94-1.87-2.64-4.01-5.13-6.41-7.43-1.02-.97.61-2.51,1.64-1.53Z"/>
                <path class="cls-2" d="M35.75,36.13c.74-1.17,2.91-.32,2.17.86-7.15,11.34-10.87,24.11-10.67,36.93.02,1.32-2.37,1.55-2.39.22-.21-13.19,3.53-26.34,10.89-38.01Z"/>
                <path class="cls-2" d="M95.02,47.24c3.21,3.44,4.62,7.86,4.05,12.26-.17,1.32-2.54.98-2.37-.33.51-3.88-.84-7.71-3.65-10.73-.96-1.03,1.01-2.23,1.97-1.2Z"/>
                <path class="cls-2" d="M22.38,38.12c.67-1.2,2.85-.35,2.17.86-4.06,7.26-6.19,15.22-6.15,23.23,0,1.32-2.39,1.55-2.39.22-.04-8.39,2.12-16.71,6.37-24.32Z"/>
              </g>
            </g>
            <g>
              <g>
                <circle class="cls-3" cx="64.89" cy="107" r="11.88" transform="translate(-58.43 85.73) rotate(-48.98)"/>
                <g>
                  <path class="cls-5" d="M61.19,103.39c-.53,1.39-1.05,2.79-1.58,4.18-.07.19-.11.37-.05.57.06.18.2.36.37.44.34.15.86.06,1.01-.33.53-1.39,1.05-2.79,1.58-4.18.07-.19.11-.37.05-.57-.06-.18-.2-.36-.37-.44-.34-.15-.86-.06-1.01.33h0Z"/>
                  <path class="cls-5" d="M67.09,100.78c-.87,2.88-1.73,5.77-2.6,8.65-.12.39.2.81.57.89.42.09.78-.18.89-.57.87-2.88,1.73-5.77,2.6-8.65.12-.39-.2-.81-.57-.89-.42-.09-.78.18-.89.57h0Z"/>
                </g>
              </g>
              <g>
                <circle class="cls-3" cx="122.06" cy="104.7" r="11.53"/>
                <g>
                  <path class="cls-5" d="M119.15,100.6c-.59,2.09-1.18,4.18-1.77,6.27-.11.38.19.79.56.87.4.09.76-.18.87-.56l1.77-6.27c.11-.38-.19-.79-.56-.87-.4-.09-.76.18-.87.56h0Z"/>
                  <path class="cls-5" d="M124.78,100.9l-1.25,4.2c-.11.37.19.8.56.87.41.07.75-.17.87-.56l1.25-4.2c.11-.37-.19-.8-.56-.87-.41-.07-.75.17-.87.56h0Z"/>
                </g>
              </g>
              <g>
                <ellipse class="cls-15" cx="115.65" cy="92.12" rx="9.03" ry="6.73" transform="translate(14.39 199.85) rotate(-85.31)"/>
                <ellipse class="cls-15" cx="74.39" cy="92.36" rx="9.03" ry="6.73" transform="translate(-23.74 158.95) rotate(-85.31)"/>
                <path class="cls-15" d="M94.41,95.29c.95-.36.41-1.5.05-2.11-.43-.73.74-1.34,1.17-.61.4.68.73,1.45.61,2.26-.1.7-.53,1.37-1.21,1.63-.34.13-.71.06-.89-.28-.15-.28-.06-.76.28-.89Z"/>
                <path class="cls-15" d="M113.51,76.3c.41-.03.81-.04,1.22-.02.2,0,.41.02.61.04.1,0,.2.02.3.03.04,0,.09.02.13.02-.15-.02-.18-.03-.09-.01.03,0,.06,0,.09.01.82.13,1.62.35,2.39.64.09.04.19.07.28.11.02.01.11.03.12.05,0,0-.2-.09-.08-.03.2.09.4.18.59.28.36.18.72.39,1.06.61.17.11.34.22.5.34.08.06.16.12.25.18.03.02.09.05.1.08-.11-.09-.13-.1-.06-.05.02.02.05.04.07.05.32.26.62.53.91.81.33.33.63.68.92,1.04.1.13-.12-.16-.02-.03.03.05.07.09.1.14.07.09.13.19.2.29.14.2.27.41.39.63.31.53,1.06.77,1.59.43.53-.34.76-1.03.43-1.59-1.87-3.18-5.19-5.5-8.82-6.17-1.05-.19-2.11-.28-3.17-.21-.61.04-1.2.5-1.17,1.16.02.59.51,1.22,1.16,1.17h0Z"/>
                <path class="cls-15" d="M67.56,83.8c.22-.34.46-.67.72-.98.13-.16.26-.31.4-.46.07-.07.14-.15.21-.22.03-.03.07-.06.09-.09-.11.11-.13.13-.07.07.02-.02.04-.04.06-.06.6-.57,1.25-1.08,1.96-1.52.09-.05.17-.11.26-.16.02-.01.09-.07.11-.07,0,0-.19.11-.07.04.19-.1.38-.2.58-.3.37-.18.74-.34,1.12-.48.19-.07.38-.14.58-.2.1-.03.19-.06.29-.09.03,0,.09-.04.13-.04-.13.03-.16.04-.08.02.03,0,.06-.01.08-.02.39-.1.79-.17,1.2-.23.46-.06.92-.09,1.39-.11.16,0-.2,0-.04,0,.06,0,.12,0,.17,0,.12,0,.23,0,.35.01.25.01.49.04.74.06.61.07,1.25-.38,1.3-1.01.05-.63-.36-1.23-1.01-1.3-3.67-.43-7.51.81-10.24,3.29-.79.72-1.5,1.51-2.08,2.4-.33.51-.33,1.26.22,1.64.49.34,1.28.33,1.64-.21h0Z"/>
                <path class="cls-15" d="M102.88,103.17c-4.13,3.12-9.8,3.62-14.35,1.08-1.57-.88-2.98,1.55-1.4,2.43,5.34,2.98,12.26,2.61,17.17-1.09,1.42-1.07.02-3.5-1.42-2.42Z"/>
              </g>
              <g class="cls-7">
                <path class="cls-18" d="M60.46,102.05c-.01,1.05-2.41,1.87-5.35,1.83-2.94-.04-5.31-.92-5.3-1.97.01-1.05,2.41-1.87,5.35-1.83,2.94.04,5.31.92,5.3,1.97Z"/>
              </g>
              <g class="cls-7">
                <path class="cls-18" d="M134.96,100.06c-.01.82-1.21,1.47-2.67,1.45-1.46-.02-2.64-.7-2.63-1.53.01-.82,1.21-1.47,2.67-1.45,1.46.02,2.64.7,2.63,1.53Z"/>
              </g>
            </g>
          </g>
        </g>
      </g>
    </g>
  </g>
</svg>