<?xml version="1.0" encoding="UTF-8"?>
<svg xmlns="http://www.w3.org/2000/svg" viewBox="0 0 181.01 258.8">
  <defs>
    <style>
      .cls-1 {
        fill: #e6e9eb;
      }

      .cls-2 {
        fill: #ebb097;
      }

      .cls-3 {
        fill: #3c2b2b;
      }

      .cls-4 {
        fill: #3b2b2a;
      }

      .cls-5 {
        fill: #f09190;
      }

      .cls-6 {
        fill: #e0927a;
      }

      .cls-7 {
        fill: #473433;
      }

      .cls-8 {
        fill: #f47170;
      }

      .cls-9 {
        mix-blend-mode: soft-light;
      }

      .cls-10 {
        fill: #cad6e3;
      }

      .cls-11 {
        fill: #4f3938;
      }

      .cls-12 {
        isolation: isolate;
      }

      .cls-13 {
        fill: #423130;
      }

      .cls-14 {
        fill: #e39579;
      }

      .cls-15 {
        fill: #f1f1f1;
      }

      .cls-16 {
        fill: #f8d1c0;
      }

      .cls-17 {
        fill: #533838;
      }

      .cls-18 {
        fill: #d5dde3;
      }

      .cls-19 {
        fill: #ffd0bf;
      }

      .cls-20 {
        fill: #f6a79c;
      }

      .cls-21 {
        fill: #f7ece9;
      }
    </style>
  </defs>
  <g class="cls-12">
    <g id="Layer_2" data-name="Layer 2">
      <g id="Layer_1-2" data-name="Layer 1">
        <g id="cewe-3">
          <path class="cls-15" d="M43.36,167c-4.93-.99-14.52.66-21.41,6.51-5.8,4.93-16.68,47.28-21.13,56.14-4.23,8.41,8.84,21.69,15.44,17.6,6.34-3.92,22.23-50.34,22.23-50.34,0,0,9.79-28.93,4.86-29.92Z"/>
          <path class="cls-15" d="M97.44,165.44c4.93-.99,16.02,1.12,21.41,6.51,5.2,5.2,20.57,43.38,25.03,52.24,4.23,8.41-8.84,21.69-15.44,17.6-6.34-3.92-26.13-46.44-26.13-46.44,0,0-9.79-28.93-4.86-29.92Z"/>
          <g>
            <rect class="cls-16" x="57.53" y="136.61" width="28.08" height="49.31" transform="translate(143.15 322.52) rotate(180)"/>
            <path class="cls-6" d="M57.53,136.61v29.27c7.62,6.23,20.16,6.6,27.11-1.01.34-.45.66-.91.98-1.38v-26.88h-28.08Z"/>
          </g>
          <g>
            <g>
              <path class="cls-15" d="M33.43,199.65c0-9.03,2.92-29.86,2.87-30.57,5.54-3.23,15.29-5.74,20.27-6.77.57,4.64,2.86,9.9,5.82,14.54,2.78,4.34,6.2,5.39,9.58,5.45,3.38.06,5.87-1.35,8.89-5.04,2.8-3.43,3.46-7.88,5.27-14.62,6.05,2.17,11.98,1.68,18.03,3.86,4.01,8.07,5.77,27.28,6.86,36.08.69,5.54,3.88,44.39,1.88,48.7-2,4.31-19.61,6.5-24.86,6.93-19.7,1.61-44.25-.35-47.6-1.47-13.9-4.61-11.67-5.85-11.14-12.41.27-3.35,4.13-35.64,4.13-44.68Z"/>
              <path class="cls-18" d="M109.21,187.84c-.25,9.35,1.54,28.81-2.52,30.12-3.28,1.05-46.92,2.55-69.37-.12-1.6,0-2.59-2.31-2.59-6.94,0-8.92.6-14.74-.66-21.83-.37,4.02-.64,7.84-.64,10.58,0,9.03-3.86,41.32-4.13,44.68-.53,6.56-2.75,7.8,11.14,12.41,3.36,1.11,27.9,3.07,47.6,1.47,5.24-.43,22.86-2.62,24.86-6.93,2-4.31-1.19-43.16-1.88-48.7-.45-3.64-1.02-9.06-1.81-14.73Z"/>
              <path class="cls-1" d="M57.27,161.26s-4.29.48-5,2.98c-.71,2.5-3.91,17.74,2.38,23.03,6.29,5.28,17.05-4.52,17.31-4.98.26-.45-12.59-6.63-14.69-21.03Z"/>
              <path class="cls-1" d="M85.88,161.36s4.29.48,5,2.98c.71,2.5,4.51,21.55-3.53,24.21-6.97,2.31-14.42-5.83-14.68-6.28s11.12-6.51,13.22-20.91Z"/>
            </g>
            <g>
              <g>
                <path class="cls-10" d="M76.44,190.86c0,.7-.57,1.27-1.27,1.27s-1.27-.57-1.27-1.27.57-1.27,1.27-1.27,1.27.57,1.27,1.27Z"/>
                <circle class="cls-10" cx="75.17" cy="209.63" r="1.27"/>
                <circle class="cls-10" cx="75.17" cy="228.39" r="1.27"/>
                <circle class="cls-10" cx="75.17" cy="247.16" r="1.27"/>
              </g>
              <polygon class="cls-10" points="72.35 257.46 72.89 257.46 72.66 182.28 72.15 182.29 72.35 257.46"/>
            </g>
          </g>
          <g>
            <g>
              <g>
                <path class="cls-2" d="M128.22,135.77c12.15,1.48,20.53-11.69,20.38-21.77-.15-4.84-4.89-6.65-10.18-6.61-10.95-.08-18.63,9.54-15.87,16.75.96,4.71,2.77,11.11,5.67,11.63Z"/>
                <path class="cls-14" d="M131.26,125.82c.1.59,2.54,2.51,4.5,1.48,2.45-2.35-.97-5.9.79-8.1,1.96-1.03,4.5-2.79,2.94-3.68-3.13-1.78-7.82,4.11-9.97-.32-.75-1.55-1.2-3.46-1.08-5.37-1.4,1.04-2.62,2.25-3.6,3.55.53,4.56,3.68,8.92,6.42,12.44Z"/>
              </g>
              <g>
                <path class="cls-19" d="M23.3,127.31c-13.53-1.71-16.05-16.11-12.89-25.73,1.59-4.6,6.65-6.31,11.88-4.47,10.88,3.65,15.12,16.2,10.23,22.18-2.35,4.19-6.18,8.41-9.22,8.03Z"/>
                <path class="cls-20" d="M23.73,118.18c-.28.53-3.19,1.6-4.73.01-1.59-3,2.76-5.3,1.77-7.95-1.54-1.58-3.41-4.05-1.65-4.41,3.52-.71,6.16,6.34,9.57,2.8,1.2-1.24,2.22-2.91,2.69-4.77,1.01,1.42,1.79,2.95,2.31,4.49-1.92,4.17-6.27,7.33-9.97,9.82Z"/>
              </g>
            </g>
            <g>
              <ellipse class="cls-11" cx="154.41" cy="57.28" rx="26.3" ry="27.43" transform="translate(-7.62 86.74) rotate(-30.66)"/>
              <path class="cls-7" d="M155.28,38.87c4.5,3.15,3.77,9.61.46,13.73,3.71-.4,8.02.09,10.37,2.99,3.22,3.91,3.1,9.66.62,14.11-3.67,6.54-11.4,10.44-18.81,9.64-4.74-.38-9.33-2.04-13.25-4.63-1.06-1.24-2.03-2.57-2.89-4.02-6.4-10.79-4.84-24.01,2.99-32.44.89-.48,1.77-.9,2.6-1.29,6.11-2.31,12.41-1.97,17.9,1.91Z"/>
              <path class="cls-13" d="M141.63,72.36c2.18.9,4.44,1.45,6.72,1.63h.15c5.28.58,10.98-2.33,13.55-6.92,1.56-2.8,1.53-6.13-.08-8.08l-.03-.04c-.2-.25-.51-.46-.94-.64-1.1-.45-2.81-.6-4.68-.4l-12.87,1.39,8.12-10.09c1.08-1.34,1.68-3.16,1.48-4.53-.12-.84-.49-1.2-.83-1.44-.86-.61-1.74-1.1-2.64-1.47-3.07-1.27-6.48-1.23-10.13.11-.47.22-.91.43-1.32.64-5.85,6.88-6.59,17.2-1.72,25.4.55.93,1.18,1.83,1.87,2.69,1.07.66,2.2,1.24,3.36,1.72h0Z"/>
              <path class="cls-4" d="M153.77,34.2c1.45.28.87,2.49-.57,2.21-4.27-.83-8.72,1.53-10.58,5.42-.64,1.33-2.63.21-2-1.11,2.32-4.85,7.91-7.54,13.14-6.53Z"/>
              <path class="cls-4" d="M140.86,69.79c3.09,3.05,7.97,4.14,12.59,2.76,1.31-.39,1.76,1.48.45,1.87-5.29,1.58-11,.36-14.55-3.14-.88-.87.64-2.36,1.52-1.49Z"/>
              <path class="cls-4" d="M142.65,61.56c1.43,1.66,3.59,2.5,5.76,2.03,1.43-.31,2.04,1.89.6,2.2-2.91.62-5.99-.31-7.95-2.59-.95-1.11.63-2.76,1.58-1.64Z"/>
              <path class="cls-4" d="M163.54,37.99c6.05,1.85,11.06,6.41,13.53,12.23,2.45,5.77,2.02,12.35-.86,17.88-1.59,3.07-3.91,5.69-6.75,7.67-1.21.84-2.36-1.13-1.16-1.96,4.46-3.11,7.42-8.26,8.01-13.65.6-5.55-1.44-11.04-5.32-15.02-2.23-2.28-4.96-4-8.02-4.93-1.4-.43-.84-2.64.57-2.21Z"/>
            </g>
            <g>
              <ellipse class="cls-11" cx="39.33" cy="26.41" rx="27.43" ry="26.3" transform="translate(-6.12 13.05) rotate(-17.5)"/>
              <path class="cls-7" d="M21.61,21.37c4.09-3.67,10.22-1.48,13.47,2.68.45-3.71,1.91-7.79,5.27-9.41,4.54-2.25,10.11-.82,13.88,2.61,5.54,5.06,7.57,13.48,5.11,20.51-1.45,4.53-4.11,8.62-7.53,11.85-1.44.75-2.97,1.39-4.58,1.9-11.97,3.77-24.48-.76-30.91-10.3-.26-.98-.48-1.93-.66-2.83-.86-6.48.91-12.54,5.94-17Z"/>
              <path class="cls-13" d="M51.11,42.29c1.37-1.92,2.42-4,3.12-6.17l.05-.14c1.76-5.01.22-11.23-3.66-14.77-2.37-2.16-5.62-2.89-7.89-1.76l-.05.02c-.29.14-.56.39-.83.77-.69.97-1.22,2.6-1.45,4.47l-1.57,12.85-7.97-10.2c-1.06-1.36-2.7-2.35-4.07-2.47-.84-.07-1.28.2-1.59.48-.79.7-1.46,1.45-2.03,2.23-1.94,2.7-2.67,6.03-2.2,9.89.1.5.21.98.32,1.43,5.37,7.26,15.24,10.33,24.34,7.46,1.03-.32,2.05-.73,3.05-1.21.89-.89,1.71-1.86,2.44-2.88t0,0Z"/>
              <path class="cls-4" d="M16.72,21.78c.6-1.34,2.62-.28,2.02,1.05-1.78,3.97-.49,8.84,2.87,11.54,1.15.92-.39,2.61-1.53,1.69-4.19-3.36-5.54-9.42-3.36-14.28Z"/>
              <path class="cls-4" d="M48.44,42.46c3.67-2.31,5.84-6.82,5.56-11.63-.08-1.36,1.84-1.38,1.92,0,.33,5.51-2.15,10.79-6.37,13.45-1.04.66-2.15-1.16-1.1-1.82Z"/>
              <path class="cls-4" d="M40.82,38.84c1.95-1.01,3.25-2.93,3.29-5.15.03-1.46,2.31-1.56,2.28-.08-.05,2.97-1.67,5.77-4.33,7.15-1.29.67-2.54-1.24-1.24-1.92Z"/>
              <path class="cls-4" d="M22.63,13.13c3.18-5.47,8.76-9.31,14.99-10.39,6.17-1.08,12.48.85,17.22,4.91,2.62,2.25,4.65,5.11,5.93,8.31.54,1.36-1.64,2.04-2.18.69-2.01-5.05-6.35-9.11-11.47-10.91-5.26-1.85-11.08-1.11-15.83,1.76-2.73,1.65-5.03,3.92-6.63,6.68-.74,1.27-2.76.22-2.02-1.05Z"/>
            </g>
            <path class="cls-19" d="M81.45,159.94c14.99-2.39,36.9-9.64,45.06-23.89,1.77-10.14,3.12-20.35,4.05-30.6,1.08-11.92,1.57-24.15-1.78-35.64-3.64-12.53-11.9-23.65-22.84-30.77-13.11-8.53-29.93-11.22-45-6.82-12.06,3.24-22.78,11.78-27.92,23.21-2.24,4.98-3.49,10.36-4.35,15.76-1.44,9.02-1.85,18.2-1.22,27.3-1.32,5.13-2.65,10.25-3.97,15.38-.73,2.82-1.46,5.68-1.32,8.59.14,2.93,1.17,5.74,2.4,8.41,8.23,17.94,34.34,28.8,44.45,29.89,2.65.28,7.11.05,12.45-.8Z"/>
            <path class="cls-2" d="M93.54,154.29c21.75-3.57,34.96-24.02,20.66-45.47-4.77-6.85-17.02-17.65-24.76-20.33-20.04-7.19-40.75-9.29-61.54-11.45.22-1.96.48-3.92.79-5.87.86-5.4,2.11-10.77,4.35-15.76,5.14-11.43,15.86-19.97,27.92-23.21,15.07-4.4,31.89-1.71,45,6.82,10.93,7.12,19.19,18.25,22.84,30.77,3.34,11.49,2.86,23.72,1.78,35.64-.93,10.25-2.28,20.46-4.05,30.6-8.15,14.25-30.06,21.5-45.06,23.89-5.34.85-9.8,1.09-12.45.8-5.72-.61-16.59-4.37-26.43-10.77,24.82,10.38,38.03,6.59,50.97,4.33Z"/>
            <g>
              <path class="cls-11" d="M56.15,74.88s-4.21,8.92-12.1,10.45c-9.5,1.85-21.92-3.79-21.92-3.79,0,0,21.34-3.25,21.34-8.58l-5.17-1.62c.32-1.29.4-1.56.71-2.83-4.89,6.66-10.37,17.64-11.39,32.34-1.53-1.28-7.86-3.24-7.86-3.24-7.8-30.97,9.35-58.26,35.77-66.95,24.3-7.99,56.63-5.77,73.59,15.63,14.86,3.38,21.57,16.45,24.12,29.6,1.36,7.04,1.36,14.08,1.1,19.69-.49,10.74-6.99,30.28-8.05,29.69-11.09-6.23-22.72-11.69-34.72-16.36.9-8.67-1.05-17.83-4.34-26.18-.78,7.78-1.15,15.79-4.27,22.99-4.42-1.56-8.88-3-13.38-4.34-.15-4.07-.83-8.2-.43-12.14-1.44,3.69-.81,7.78-2.06,11.41-2.31-.66-4.56-1.29-6.79-1.89l-2.56-17.51s-15.62,17.69-30.14,5.19c0,0,11.91-3.15,11.91-8.61s-3.37-2.96-3.37-2.96Z"/>
              <path class="cls-7" d="M55.55,30.67c24.3-7.99,56.63-5.77,73.59,15.63,14.86,3.38,21.57,16.45,24.12,29.6,1.36,7.04,1.36,14.08,1.1,19.69-.49,10.74-6.99,30.28-8.05,29.69-2.94-1.65-5.92-3.25-8.93-4.79.5-.66.91-1.4,1.22-2.2,6.55-15.49,6.26-32.47-.89-47.67-6.26-13.41-22.94-18.77-36.35-12.51-.89.3-1.79,0-2.38-.3-18.17-15.79-47.07-13.7-59.58,6.26-2.19,3.57-3.69,7.37-4.63,11.31-3.41,6.47-6.39,15.03-7.12,25.48-1.53-1.28-7.86-3.24-7.86-3.24-7.8-30.97,9.35-58.26,35.77-66.95Z"/>
              <g>
                <path class="cls-3" d="M93.85,72.07c-4.94,8.67-6.89,18.62-5.54,28.5.17,1.23,2.38,1.25,2.21.01-1.31-9.56.51-19.15,5.29-27.54.62-1.08-1.35-2.06-1.97-.98Z"/>
                <path class="cls-3" d="M46.57,60.87c-9.15,6.51-15.58,14.33-18.38,25.72-1.27,5.17-.98,10.92-1.13,13.94-.06,1.21,2.26,1.09,2.16-.14-1.06-12.88,4.5-24.3,11.78-31.94,2.07-2.17,4.37-4.17,6.88-5.96,1.06-.76-.22-2.38-1.3-1.62Z"/>
                <path class="cls-3" d="M127.83,66.07c-.52-1.17-2.63-.68-2.11.5,5.04,11.35,6.74,23.57,4.84,35.29-.2,1.21,1.97,1.74,2.16.52,1.96-12.06.29-24.63-4.9-36.31Z"/>
                <path class="cls-3" d="M139.82,69.68c-.45-1.19-2.56-.7-2.11.5,2.75,7.2,3.63,14.78,2.52,22.13-.18,1.21,1.98,1.74,2.16.52,1.16-7.69.3-15.6-2.58-23.15Z"/>
              </g>
              <path class="cls-3" d="M58.81,90.82c2.71,0,5.42-.47,7.97-1.41,6.05-2.24,11.08-7.17,13.44-13.17.24-.61-.06-1.3-.67-1.55-.61-.24-1.3.06-1.55.67-2.12,5.38-6.63,9.8-12.05,11.81-5.43,2.01-11.72,1.6-16.84-1.1-.58-.31-1.3-.08-1.61.5-.31.58-.08,1.3.5,1.61,3.31,1.75,7.06,2.64,10.81,2.64Z"/>
              <path class="cls-3" d="M47.99,83.63c.21,0,.43-.06.62-.18,3.78-2.32,6.73-6.07,8.08-10.3.2-.63-.15-1.3-.77-1.5-.63-.2-1.3.15-1.5.77-1.18,3.69-3.75,6.97-7.05,8.99-.56.34-.74,1.08-.39,1.64.22.37.62.57,1.02.57Z"/>
            </g>
            <g>
              <g>
                <circle class="cls-5" cx="95.5" cy="132.39" r="11.13" transform="translate(-21.53 18.58) rotate(-9.99)"/>
                <g>
                  <path class="cls-8" d="M99.69,129.97c.16,1.39.31,2.77.47,4.16.02.19.02.36-.09.53-.09.15-.27.28-.44.31-.34.06-.8-.14-.84-.53-.16-1.39-.31-2.77-.47-4.16-.02-.19-.02-.36.09-.53.09-.15.27-.28.44-.31.34-.06.8.14.84.53h0Z"/>
                  <path class="cls-8" d="M94.93,126.23c.12,2.82.24,5.64.37,8.46.02.38-.37.69-.73.68-.41-.01-.66-.35-.68-.73-.12-2.82-.24-5.64-.37-8.46-.02-.38.37-.69.73-.68.4.01.66.35.68.73h0Z"/>
                </g>
              </g>
              <g>
                <circle class="cls-5" cx="44.11" cy="117.12" r="10.81" transform="translate(-80.79 125.21) rotate(-73.07)"/>
                <g>
                  <path class="cls-8" d="M47.69,114.07c.05,2.03.11,4.07.16,6.1,0,.37-.35.67-.71.66-.39-.01-.65-.34-.66-.71-.05-2.03-.11-4.07-.16-6.1,0-.37.35-.67.71-.66.39.01.65.34.66.71h0Z"/>
                  <path class="cls-8" d="M42.51,113.04c.06,1.37.11,2.74.16,4.11.01.36-.36.69-.71.66-.39-.03-.65-.32-.66-.71-.05-1.37-.11-2.74-.16-4.11-.01-.36.36-.69.71-.66.39.03.65.32.66.71h0Z"/>
                </g>
              </g>
              <g>
                <ellipse class="cls-17" cx="52.83" cy="107.17" rx="8.46" ry="6.31" transform="translate(-61.63 141.47) rotate(-80.45)"/>
                <ellipse class="cls-17" cx="90.24" cy="116.9" rx="8.46" ry="6.31" transform="translate(-40.02 186.49) rotate(-80.45)"/>
                <path class="cls-17" d="M71.39,114.95c-.78-.54-.02-1.46.44-1.93.56-.57-.36-1.39-.92-.82-.52.53-1,1.15-1.08,1.91-.07.66.17,1.37.73,1.76.28.19.63.22.87-.05.2-.22.23-.68-.05-.87Z"/>
                <path class="cls-17" d="M58.42,93.3c-.36-.12-.73-.22-1.1-.3-.19-.04-.37-.07-.56-.1-.09-.01-.19-.03-.28-.04-.03,0-.09,0-.12-.01.14.02.17.02.09.01-.03,0-.05,0-.08,0-.77-.07-1.55-.06-2.32.03-.09.01-.19.02-.28.04-.02,0-.1,0-.12.02,0,0,.2-.04.08-.01-.2.04-.4.07-.6.12-.37.08-.74.19-1.1.31-.18.06-.36.13-.54.19-.09.03-.18.07-.26.11-.03.01-.09.03-.11.05.12-.05.14-.06.07-.03-.02.01-.05.02-.07.03-.35.16-.68.34-1.01.53-.38.22-.73.47-1.08.73-.12.09.15-.12.03-.02-.04.03-.08.07-.13.1-.08.07-.17.14-.25.21-.17.15-.34.31-.5.48-.4.41-1.14.45-1.55.02-.4-.43-.45-1.11-.02-1.55,2.43-2.46,5.98-3.8,9.43-3.57.99.06,1.98.23,2.93.54.54.18.98.73.8,1.32-.16.53-.74.99-1.32.8h0Z"/>
                <path class="cls-17" d="M98.42,110.71c-.12-.36-.27-.71-.43-1.06-.08-.17-.17-.34-.26-.51-.05-.08-.09-.17-.14-.25-.02-.03-.05-.07-.06-.11.07.12.09.15.05.08-.01-.02-.03-.05-.04-.07-.41-.66-.89-1.27-1.43-1.83-.07-.07-.13-.14-.2-.2-.02-.02-.06-.08-.09-.09,0,0,.15.14.06.06-.15-.14-.3-.27-.46-.41-.29-.25-.6-.48-.91-.69-.16-.11-.32-.21-.48-.31-.08-.05-.16-.1-.25-.15-.03-.01-.08-.06-.11-.06.11.06.14.08.07.04-.02-.01-.05-.03-.07-.04-.34-.18-.68-.34-1.03-.48-.4-.16-.82-.29-1.23-.42-.15-.04.18.04.03,0-.05-.01-.11-.03-.16-.04-.11-.02-.21-.05-.32-.07-.23-.04-.46-.08-.68-.11-.57-.07-1.05-.63-.95-1.22.1-.58.61-1.03,1.22-.95,3.43.45,6.64,2.47,8.55,5.35.55.83,1.01,1.72,1.34,2.66.19.54,0,1.22-.57,1.44-.52.2-1.24,0-1.44-.57h0Z"/>
                <path class="cls-17" d="M61.88,120.15c3.03,3.78,8.07,5.55,12.78,4.29,1.63-.44,2.35,2.09.71,2.53-5.53,1.48-11.74-.45-15.34-4.95-1.04-1.3.79-3.19,1.85-1.87Z"/>
              </g>
              <g class="cls-9">
                <path class="cls-21" d="M100.67,128.92c-.23.96,1.76,2.25,4.44,2.9,2.68.64,5.04.39,5.27-.57.23-.96-1.76-2.25-4.44-2.9-2.68-.64-5.04-.39-5.27.57Z"/>
              </g>
              <g class="cls-9">
                <path class="cls-21" d="M33.46,109.93c-.18.75.76,1.62,2.09,1.94,1.33.32,2.56-.03,2.74-.78.18-.75-.76-1.62-2.09-1.94-1.33-.32-2.56.03-2.74.78Z"/>
              </g>
            </g>
          </g>
        </g>
      </g>
    </g>
  </g>
</svg>