<?xml version="1.0" encoding="UTF-8"?>
<svg xmlns="http://www.w3.org/2000/svg" viewBox="0 0 144.7 231.17">
  <defs>
    <style>
      .cls-1 {
        fill: #e6e9eb;
      }

      .cls-2 {
        fill: #ebb097;
      }

      .cls-3 {
        fill: #f17170;
      }

      .cls-4 {
        fill: #e0927a;
      }

      .cls-5 {
        fill: #ed8d8d;
      }

      .cls-6 {
        mix-blend-mode: soft-light;
      }

      .cls-7 {
        fill: #cad6e3;
      }

      .cls-8 {
        fill: #4f3938;
      }

      .cls-9 {
        isolation: isolate;
      }

      .cls-10 {
        fill: #ffefeb;
      }

      .cls-11 {
        fill: #e39579;
      }

      .cls-12 {
        fill: #ac5743;
      }

      .cls-13 {
        fill: #d3715c;
      }

      .cls-14 {
        fill: #f1f1f1;
      }

      .cls-15 {
        fill: #f8d1c0;
      }

      .cls-16 {
        fill: #d5dde3;
      }

      .cls-17 {
        fill: #ffd0bf;
      }

      .cls-18 {
        fill: #f6a79c;
      }
    </style>
  </defs>
  <g class="cls-9">
    <g id="Layer_2" data-name="Layer 2">
      <g id="Layer_1-2" data-name="Layer 1">
        <g id="cewe-1">
          <path class="cls-14" d="M43.36,139.37c-4.93-.99-14.52.66-21.41,6.51-5.8,4.93-16.68,47.28-21.13,56.14-4.23,8.41,8.84,21.69,15.44,17.6,6.34-3.92,22.23-50.34,22.23-50.34,0,0,9.79-28.93,4.86-29.92Z"/>
          <path class="cls-14" d="M97.44,137.8c4.93-.99,16.02,1.12,21.41,6.51,5.2,5.2,20.57,43.38,25.03,52.24,4.23,8.41-8.84,21.69-15.44,17.6-6.34-3.92-26.13-46.44-26.13-46.44,0,0-9.79-28.93-4.86-29.92Z"/>
          <g>
            <rect class="cls-15" x="57.53" y="108.97" width="28.08" height="49.31" transform="translate(143.15 267.25) rotate(180)"/>
            <path class="cls-4" d="M57.53,108.97v29.27c7.62,6.23,20.16,6.6,27.11-1.01.34-.45.66-.91.98-1.38v-26.88h-28.08Z"/>
          </g>
          <g>
            <g>
              <path class="cls-14" d="M33.43,172.01c0-9.03,2.92-29.86,2.87-30.57,5.54-3.23,15.29-5.74,20.27-6.77.57,4.64,2.86,9.9,5.82,14.54,2.78,4.34,6.2,5.39,9.58,5.45,3.38.06,5.87-1.35,8.89-5.04,2.8-3.43,3.46-7.88,5.27-14.62,6.05,2.17,11.98,1.68,18.03,3.86,4.01,8.07,5.77,27.28,6.86,36.08.69,5.54,3.88,44.39,1.88,48.7-2,4.31-19.61,6.5-24.86,6.93-19.7,1.61-44.25-.35-47.6-1.47-13.9-4.61-11.67-5.85-11.14-12.41.27-3.35,4.13-35.64,4.13-44.68Z"/>
              <path class="cls-16" d="M109.21,160.2c-.25,9.35,1.54,28.81-2.52,30.12-3.28,1.05-46.92,2.55-69.37-.12-1.6,0-2.59-2.31-2.59-6.94,0-8.92.6-14.74-.66-21.83-.37,4.02-.64,7.84-.64,10.58,0,9.03-3.86,41.32-4.13,44.68-.53,6.56-2.75,7.8,11.14,12.41,3.36,1.11,27.9,3.07,47.6,1.47,5.24-.43,22.86-2.62,24.86-6.93,2-4.31-1.19-43.16-1.88-48.7-.45-3.64-1.02-9.06-1.81-14.73Z"/>
              <path class="cls-1" d="M57.27,133.63s-4.29.48-5,2.98c-.71,2.5-3.91,17.74,2.38,23.03,6.29,5.28,17.05-4.52,17.31-4.98.26-.45-12.59-6.63-14.69-21.03Z"/>
              <path class="cls-1" d="M85.88,133.73s4.29.48,5,2.98c.71,2.5,4.51,21.55-3.53,24.21-6.97,2.31-14.42-5.83-14.68-6.28-.26-.45,11.12-6.51,13.22-20.91Z"/>
            </g>
            <g>
              <g>
                <path class="cls-7" d="M76.44,163.23c0,.7-.57,1.27-1.27,1.27s-1.27-.57-1.27-1.27.57-1.27,1.27-1.27,1.27.57,1.27,1.27Z"/>
                <circle class="cls-7" cx="75.17" cy="181.99" r="1.27"/>
                <circle class="cls-7" cx="75.17" cy="200.76" r="1.27"/>
                <circle class="cls-7" cx="75.17" cy="219.52" r="1.27"/>
              </g>
              <polygon class="cls-7" points="72.35 229.82 72.89 229.82 72.66 154.64 72.15 154.65 72.35 229.82"/>
            </g>
          </g>
          <g>
            <g>
              <g>
                <path class="cls-2" d="M18.05,96.34c-12.2-1.08-17.65-15.71-15.4-25.54,1.15-4.71,6.16-5.48,11.33-4.34,10.73,2.21,16.23,13.2,12.04,19.69-1.91,4.41-5.03,10.29-7.97,10.19Z"/>
                <path class="cls-11" d="M17.15,85.98c-.22.56-3.01,1.93-4.71.52-1.9-2.81,2.18-5.57.91-8.09-1.7-1.41-3.82-3.67-2.11-4.21,3.43-1.09,6.8,5.65,9.82,1.77,1.06-1.36,1.89-3.13,2.17-5.03,1.16,1.31,2.09,2.74,2.78,4.22-1.47,4.35-5.45,7.96-8.87,10.83Z"/>
              </g>
              <g>
                <path class="cls-17" d="M122.44,109.91c13.59,1.14,19.06-12.42,17.97-22.49-.6-4.83-5.19-7.56-10.69-6.85-11.4,1.31-18.16,12.7-14.63,19.57,1.43,4.59,4.3,9.51,7.35,9.77Z"/>
                <path class="cls-18" d="M123.92,100.89c.16.58,2.79,2.23,4.63,1,2.18-2.6-1.59-5.76-.08-8.14,1.84-1.23,4.18-3.25,2.53-3.97-3.3-1.43-7.34,4.92-9.95.75-.91-1.46-1.56-3.31-1.64-5.23-1.28,1.18-2.36,2.51-3.2,3.91,1.01,4.48,4.6,8.47,7.71,11.68Z"/>
              </g>
            </g>
            <path class="cls-17" d="M58.77,129.72c-14.17-5.46-34.09-17.11-39.1-32.74.38-10.28,1.19-20.55,2.41-30.77,1.42-11.88,3.5-23.95,9.16-34.49,6.17-11.49,16.56-20.66,28.74-25.35,14.6-5.62,31.61-4.74,45.43,2.69,11.12,5.68,19.83,16.26,22.48,28.51,1.16,5.34,1.25,10.86.98,16.32-.47,9.12-1.98,18.18-4.49,26.96.23,5.29.46,10.58.69,15.87.13,2.91.25,5.86-.5,8.67-.75,2.83-2.34,5.37-4.09,7.72-11.78,15.83-39.59,21.03-49.69,19.98-2.65-.27-6.97-1.43-12.01-3.38Z"/>
            <path class="cls-2" d="M48.12,121.68c-20.53-8.02-28.78-30.89-13.95-51.98,6.06-8.62,24.28-29.17,26.52-31.41,3.47-3.47,15.05,8.72,24.31,19.7,14.87,17.63,38.17,23.99,43.41,1.8.2-1.97.35-3.94.45-5.91.28-5.46.18-10.98-.98-16.32-2.65-12.25-11.36-22.83-22.48-28.51-13.83-7.44-30.84-8.31-45.43-2.69-12.17,4.69-22.57,13.85-28.74,25.35-5.66,10.54-7.73,22.61-9.16,34.49-1.22,10.22-2.03,20.49-2.41,30.77,5.01,15.63,24.93,27.28,39.1,32.74,5.04,1.94,9.36,3.1,12.01,3.38,5.73.59,17.14-.82,28.1-5.04-26.44,4.98-38.57-1.46-50.76-6.37Z"/>
            <g>
              <g>
                <circle class="cls-5" cx="52.23" cy="96.01" r="11.63" transform="translate(-55.07 116.78) rotate(-72.41)"/>
                <g>
                  <path class="cls-3" d="M48.79,92.29l-1.75,4.01c-.08.19-.13.36-.07.56.05.17.18.36.34.45.32.17.84.11,1-.27.58-1.34,1.17-2.67,1.75-4.01.08-.19.13-.36.07-.56-.05-.17-.18-.36-.34-.45-.32-.17-.84-.11-1,.27h0Z"/>
                  <path class="cls-3" d="M54.69,90.03c-.99,2.78-1.98,5.56-2.96,8.33-.13.37.15.8.52.9.41.11.77-.14.9-.52.99-2.78,1.98-5.56,2.96-8.33.13-.37-.15-.8-.52-.9-.41-.11-.77.14-.9.52h0Z"/>
                </g>
              </g>
              <g>
                <circle class="cls-5" cx="103.86" cy="95.6" r="10.41" transform="translate(-28.72 144.07) rotate(-62.71)"/>
                <g>
                  <path class="cls-3" d="M101.42,91.77c-.63,1.86-1.25,3.72-1.88,5.57-.11.34.13.72.46.81.36.1.69-.13.81-.46.63-1.86,1.25-3.72,1.88-5.57.11-.34-.13-.72-.46-.81-.36-.1-.69.13-.81.46h0Z"/>
                  <path class="cls-3" d="M106.48,92.29c-.44,1.24-.88,2.49-1.31,3.73-.11.33.13.73.46.81.37.08.69-.12.81-.46.44-1.24.88-2.49,1.31-3.73.11-.33-.13-.73-.46-.81-.37-.08-.69.12-.81.46h0Z"/>
                </g>
              </g>
              <g>
                <ellipse class="cls-8" cx="98.17" cy="83.43" rx="8" ry="5.96" transform="translate(9.52 176.91) rotate(-86.88)"/>
                <ellipse class="cls-8" cx="61.1" cy="83.04" rx="8" ry="5.96" transform="translate(-25.15 139.53) rotate(-86.88)"/>
                <path class="cls-8" d="M78.87,83.41c.83-.34.32-1.34,0-1.87-.4-.64.62-1.21,1.02-.57.37.59.68,1.27.6,1.99-.07.63-.44,1.23-1.04,1.47-.29.12-.62.07-.79-.22-.14-.25-.07-.67.22-.79Z"/>
                <path class="cls-8" d="M96.81,68.7c.36-.03.72-.05,1.08-.05.18,0,.36,0,.54.02.09,0,.18.01.27.02.03,0,.08.02.11.01-.14-.02-.16-.02-.08,0,.03,0,.05,0,.08,0,.73.1,1.44.27,2.13.51.08.03.17.06.25.09.02,0,.09.02.11.04,0,0-.18-.08-.07-.03.18.08.35.15.53.23.33.15.64.33.95.51.15.09.31.19.46.29.07.05.15.1.22.15.02.02.08.04.09.07-.1-.07-.12-.09-.06-.04.02.02.04.03.06.05.29.22.56.45.82.7.3.28.57.59.84.9.1.11-.11-.14-.02-.03.03.04.06.08.09.12.06.08.12.16.18.25.13.18.25.36.36.55.29.46.96.66,1.42.34.46-.31.65-.93.34-1.42-1.73-2.77-4.73-4.74-7.96-5.25-.93-.15-1.87-.2-2.81-.11-.54.05-1.05.47-1.01,1.06.03.53.48,1.07,1.06,1.01h0Z"/>
                <path class="cls-8" d="M54.34,73.22c.19-.31.39-.6.61-.89.11-.14.22-.28.34-.42.06-.07.12-.13.18-.2.02-.02.06-.06.08-.08-.09.1-.11.12-.06.06.02-.02.04-.04.05-.06.51-.52,1.08-.99,1.7-1.39.08-.05.15-.1.23-.15.02-.01.08-.06.1-.06,0,0-.17.1-.06.04.17-.09.34-.19.51-.28.32-.17.65-.32.98-.45.17-.07.34-.13.51-.19.09-.03.17-.06.26-.08.03,0,.08-.04.11-.03-.12.03-.14.04-.07.02.02,0,.05-.01.07-.02.35-.1.7-.17,1.05-.23.41-.07.81-.1,1.22-.13.15,0-.18,0-.03,0,.05,0,.1,0,.15,0,.1,0,.21,0,.31,0,.22,0,.44.02.65.04.54.05,1.1-.37,1.13-.93.03-.56-.35-1.08-.93-1.13-3.26-.29-6.63.9-8.99,3.17-.68.65-1.29,1.37-1.79,2.17-.28.46-.26,1.12.23,1.44.44.29,1.14.26,1.44-.23h0Z"/>
                <path class="cls-8" d="M84.67,95.3c-5.06.96-10.39-.38-14.48-3.47-.42-.32-.4-1.02-.06-1.39.38-.42.96-.39,1.39-.06,3.7,2.79,8.52,3.82,13.05,2.96.52-.1,1.01.44,1.04.92.03.59-.4.94-.92,1.04h0Z"/>
              </g>
              <g class="cls-6">
                <path class="cls-10" d="M48.14,88.89c.01.97-2.19,1.79-4.91,1.83-2.73.04-4.94-.72-4.96-1.7-.01-.97,2.19-1.79,4.91-1.83,2.73-.04,4.94.72,4.96,1.7Z"/>
              </g>
              <g class="cls-6">
                <path class="cls-10" d="M114.61,90.06c0,.74-1.33,1.37-2.99,1.39s-3.02-.56-3.03-1.31c0-.74,1.33-1.37,2.99-1.39,1.66-.02,3.02.56,3.03,1.31Z"/>
              </g>
            </g>
            <g>
              <path class="cls-13" d="M131.74,36.78c-1-2.02-2.11-3.97-3.35-5.85-1.68-2.55-3.62-4.93-5.77-7.08C117.4,10.53,103.3,3.07,89.58.81c-18.07-2.98-33.98,2.54-49.29,12.37-11.43,7.34-15.91,14.37-22.93,29.73-7.75,22.79-2.11,50.9-2.11,50.9,0,0,29.17-37.11,51.31-64.99,0,0,14.24,29.17,58.79,45.28l1.65,12.86s1.13.88,2.15-1.67c2.54-6.34,7.87-15.42,8.14-21.87.39-9.45-1.37-18.21-5.56-26.64Z"/>
              <g>
                <path class="cls-12" d="M100.04,58.52c-15.71-11.49-31.61-31.36-32.81-37.61-8.35,14.39-39.94,51.61-41.68,59.82,10.44-13.26,27.09-34.38,41.02-51.91,0,0,13.83,29.77,58.79,45.28,0,0-18.87-10.87-25.31-15.58Z"/>
                <path class="cls-12" d="M40.53,17.56C62.55,3.81,82.09,2.39,103.93,6.41c1.42.3,2.84.66,4.27,1.09-5.65-3.42-12.17-5.63-18.62-6.69-18.07-2.98-33.98,2.54-49.29,12.37-11.43,7.34-15.91,14.37-22.93,29.73-.36.89-.7,1.79-1.01,2.71,4.03-6.57,13.09-21.15,24.17-28.06Z"/>
              </g>
              <g>
                <path class="cls-12" d="M66.01,27.21c2.18,4.14,4.71,8.07,7.49,11.77,2.86,3.81,5.98,7.39,9.32,10.72,3.42,3.41,7.06,6.58,10.88,9.45,3.81,2.87,7.81,5.45,11.97,7.69,4.06,2.19,8.28,4.06,12.62,5.5.53.17,1.05.34,1.58.5.83.25,1.24-1.11.41-1.37-4.29-1.31-8.46-3.04-12.48-5.1-4.15-2.13-8.15-4.62-11.96-7.38-3.8-2.76-7.43-5.79-10.84-9.09-3.38-3.26-6.55-6.77-9.46-10.51-2.79-3.58-5.33-7.37-7.55-11.38-.27-.49-.54-.98-.8-1.48-.42-.8-1.61-.14-1.19.67h0Z"/>
                <path class="cls-12" d="M65.96,28.41c-1.35,2.11-2.75,4.19-4.21,6.22-.68.94-1.36,1.87-2.07,2.79-.72.95-1.29,1.67-2.03,2.59-2.59,3.2-5.36,6.25-8.28,9.1-2.7,2.63-5.54,5.11-8.46,7.45-.71.57-1.43,1.14-2.16,1.69-.36.28-.73.56-1.09.83.14-.1-.02.02-.04.03-.05.04-.1.07-.14.11-.09.07-.17.13-.26.2-.19.14-.38.29-.57.43-1.49,1.11-2.99,2.2-4.5,3.28-3.16,2.25-6.34,4.46-9.5,6.7-.41.29-.83.59-1.24.88-.31.22-.5.65-.3,1.03.18.33.63.55.96.32,3.21-2.28,6.44-4.52,9.65-6.8,3.07-2.18,6.11-4.39,9.08-6.72,2.95-2.31,5.81-4.75,8.55-7.34,2.94-2.79,5.72-5.77,8.34-8.91,3.02-3.63,5.82-7.46,8.43-11.43.35-.54.7-1.07,1.05-1.61.21-.33.11-.85-.22-1.05-.34-.21-.76-.12-.99.23h0Z"/>
                <path class="cls-12" d="M129.47,9.75c-.73,3.92-3.27,7.41-6.59,9.24-.96.53-1.98.93-3.03,1.17-.34.08-.62.37-.57.77.04.35.37.69.72.61,4.13-.93,7.7-3.94,9.6-7.97.54-1.14.92-2.36,1.15-3.6.16-.88-1.12-1.1-1.28-.22Z"/>
                <path class="cls-12" d="M120.94,5.12c-.31-.83-1.53-.33-1.21.5,1.35,3.57.82,7.82-1.39,10.86-.51.71.49,1.59,1.01.88,2.49-3.43,3.12-8.22,1.6-12.25Z"/>
                <path class="cls-12" d="M74,21.49c2.74,6.44,6.63,12.37,11.41,17.5,4.67,5.01,10.19,9.26,16.26,12.45,5.93,3.12,12.38,5.23,19.03,6.1,3.28.43,6.67.6,9.97.3,2.93-.27,6.1-1.06,8.26-3.18,2.35-2.31,2.7-5.83,1.15-8.69-1.76-3.25-5.49-4.59-9.01-3.73-.89.22-1.74.58-2.53,1.03-.75.42-.08,1.58.67,1.15,3.06-1.73,7.21-1.52,9.32,1.57,1.75,2.56,1.52,5.92-.85,8-2.1,1.84-5.16,2.42-7.86,2.57-3.11.17-6.24.03-9.32-.39-12.57-1.71-24.29-8.04-33.12-17.07-5.17-5.28-9.33-11.5-12.22-18.3-.34-.79-1.49-.11-1.15.67h0Z"/>
                <path class="cls-12" d="M61.79,18.62c-1.47,4.88-3.45,9.48-5.9,13.77-2.44,4.28-5.3,8.16-8.51,11.61-3.19,3.43-6.69,6.37-10.46,8.79-3.79,2.43-7.77,4.27-11.93,5.46-4.81,1.37-9.98,1.95-14.76.29-.59-.21-1.18-.45-1.75-.73-.31-.15-.69.13-.79.5-.11.42.09.8.4.96,4.88,2.36,10.43,2.14,15.52.91,4.28-1.03,8.45-2.78,12.38-5.11,3.93-2.33,7.63-5.26,11-8.67,3.37-3.41,6.4-7.31,9.01-11.6,2.61-4.28,4.77-8.96,6.4-13.89.2-.61.4-1.22.58-1.84.28-.93-.91-1.38-1.19-.46h0Z"/>
              </g>
            </g>
          </g>
        </g>
      </g>
    </g>
  </g>
</svg>