<?xml version="1.0" encoding="UTF-8"?>
<svg xmlns="http://www.w3.org/2000/svg" viewBox="0 0 165.47 245.91">
  <defs>
    <style>
      .cls-1 {
        fill: #e6e9eb;
      }

      .cls-2 {
        fill: #ba735e;
      }

      .cls-3 {
        fill: #cc8f7d;
      }

      .cls-4 {
        mix-blend-mode: soft-light;
      }

      .cls-5 {
        fill: #cad6e3;
      }

      .cls-6 {
        fill: #b57f68;
      }

      .cls-7 {
        isolation: isolate;
      }

      .cls-8 {
        fill: #ffefeb;
      }

      .cls-9 {
        fill: #f1f1f1;
      }

      .cls-10 {
        fill: #533838;
      }

      .cls-11 {
        fill: #3b3232;
      }

      .cls-12 {
        fill: #d5dde3;
      }

      .cls-13 {
        fill: #2b2525;
      }

      .cls-14 {
        fill: #a8614c;
      }

      .cls-15 {
        fill: #1e1919;
      }
    </style>
  </defs>
  <g class="cls-7">
    <g id="Layer_2" data-name="Layer 2">
      <g id="Layer_1-2" data-name="Layer 1">
        <g id="cowo-2">
          <path class="cls-9" d="M58.62,154.11c-4.93-.99-14.52.66-21.41,6.51-5.8,4.93-16.68,47.28-21.13,56.14-4.23,8.41,8.84,21.69,15.44,17.6,6.34-3.92,22.23-50.34,22.23-50.34,0,0,9.79-28.93,4.86-29.92Z"/>
          <path class="cls-9" d="M112.69,152.55c4.93-.99,16.02,1.12,21.41,6.51,5.2,5.2,20.57,43.38,25.03,52.24,4.23,8.41-8.84,21.69-15.44,17.6-6.34-3.92-26.13-46.44-26.13-46.44,0,0-9.79-28.93-4.86-29.92Z"/>
          <g>
            <rect class="cls-3" x="72.79" y="123.71" width="28.08" height="49.31" transform="translate(173.66 296.73) rotate(180)"/>
            <path class="cls-6" d="M72.79,123.71v29.27c7.62,6.23,20.16,6.6,27.11-1.01.34-.45.66-.91.98-1.38v-26.88h-28.08Z"/>
          </g>
          <g>
            <g>
              <path class="cls-9" d="M48.68,186.75c0-9.03,2.92-29.86,2.87-30.57,5.54-3.23,15.29-5.74,20.27-6.77.57,4.64,2.86,9.9,5.82,14.54,2.78,4.34,6.2,5.39,9.58,5.45,3.38.06,5.87-1.35,8.89-5.04,2.8-3.43,3.46-7.88,5.27-14.62,6.05,2.17,11.98,1.68,18.03,3.86,4.01,8.07,5.77,27.28,6.86,36.08.69,5.54,3.88,44.39,1.88,48.7-2,4.31-19.61,6.5-24.86,6.93-19.7,1.61-44.25-.35-47.6-1.47-13.9-4.61-11.67-5.85-11.14-12.41.27-3.35,4.13-35.64,4.13-44.68Z"/>
              <path class="cls-12" d="M124.46,174.94c-.25,9.35,1.54,28.81-2.52,30.12-3.28,1.05-46.92,2.55-69.37-.12-1.6,0-2.59-2.31-2.59-6.94,0-8.92.6-14.74-.66-21.83-.37,4.02-.64,7.84-.64,10.58,0,9.03-3.86,41.32-4.13,44.68-.53,6.56-2.75,7.8,11.14,12.41,3.36,1.11,27.9,3.07,47.6,1.47,5.24-.43,22.86-2.62,24.86-6.93,2-4.31-1.19-43.16-1.88-48.7-.45-3.64-1.02-9.06-1.81-14.73Z"/>
              <path class="cls-1" d="M72.52,148.37s-4.29.48-5,2.98c-.71,2.5,1.09,24.32,1.09,24.32,0,0,5.2-5.9,7.22-6.91,2.03-1.01,11.11,1.1,11.38.65.26-.45-12.59-6.63-14.69-21.03Z"/>
              <path class="cls-1" d="M101.13,148.47s4.29.48,5,2.98c.71,2.5-1.09,24.32-1.09,24.32,0,0-5.2-5.9-7.22-6.91-2.03-1.01-9.64.98-9.9.53-.26-.45,11.12-6.51,13.22-20.91Z"/>
            </g>
            <g>
              <path class="cls-1" d="M115.31,202.57l-.44-16.04c-7.04.82-15.25.36-15.25.36v15.05c2.12,2.29,5.14,4.08,7.39,4.17,3.69.15,8.3-3.54,8.3-3.54Z"/>
              <g>
                <g>
                  <path class="cls-5" d="M91.69,177.97c0,.7-.57,1.27-1.27,1.27s-1.27-.57-1.27-1.27.57-1.27,1.27-1.27,1.27.57,1.27,1.27Z"/>
                  <circle class="cls-5" cx="90.43" cy="196.73" r="1.27"/>
                  <circle class="cls-5" cx="90.43" cy="215.5" r="1.27"/>
                  <circle class="cls-5" cx="90.43" cy="234.26" r="1.27"/>
                </g>
                <polygon class="cls-5" points="87.6 244.56 88.15 244.56 87.92 169.38 87.4 169.4 87.6 244.56"/>
              </g>
            </g>
          </g>
          <g>
            <g>
              <g>
                <g>
                  <path class="cls-3" d="M33.26,128.01c-13.17,1.39-22.5-12.43-22.52-22.92.07-5.04,5.18-6.86,10.93-6.75,11.89.06,20.39,10.16,17.53,17.64-.95,4.89-2.81,11.54-5.95,12.04Z"/>
                  <path class="cls-6" d="M30.19,117.75c-.1.61-2.62,2.61-4.66,1.55-2.54-2.43.99-6.11-.84-8.4-2.03-1.06-4.67-2.88-3.05-3.8,3.24-1.85,8.12,4.24,10.33-.36.77-1.61,1.24-3.59,1.1-5.57,1.46,1.07,2.72,2.32,3.74,3.67-.54,4.73-3.78,9.25-6.62,12.91Z"/>
                </g>
                <g>
                  <path class="cls-3" d="M142.1,118.98c14.02-1.81,16.59-16.75,13.29-26.71-1.66-4.76-6.91-6.52-12.33-4.6-11.26,3.81-15.62,16.83-10.54,23.02,2.45,4.34,6.43,8.7,9.58,8.29Z"/>
                  <path class="cls-6" d="M141.62,109.52c.29.55,3.32,1.65,4.91,0,1.64-3.11-2.87-5.49-1.86-8.23,1.59-1.65,3.52-4.21,1.69-4.57-3.65-.73-6.36,6.59-9.92,2.93-1.24-1.28-2.31-3.01-2.81-4.94-1.04,1.48-1.84,3.06-2.39,4.66,2.01,4.32,6.52,7.58,10.37,10.15Z"/>
                </g>
              </g>
              <path class="cls-3" d="M35.15,128.33c-1.86-10.5-3.29-21.08-4.28-31.7-1.16-12.35-1.69-25.03,1.74-36.95,3.74-12.99,12.27-24.55,23.58-31.96,13.56-8.88,30.99-11.71,46.62-7.2,12.51,3.32,23.64,12.14,29,23.97,2.34,5.16,3.64,10.73,4.55,16.32,1.52,9.34,1.97,18.85,1.35,28.3,1.39,5.31,2.78,10.62,4.16,15.93.76,2.92,1.53,5.89,1.39,8.9-.14,3.04-1.2,5.95-2.46,8.72-8.47,18.62-32.83,24.45-45.31,26.38-16.69,2.58-51.85-5.95-60.34-20.7Z"/>
              <path class="cls-6" d="M48.77,134.32c-12-8.27-8.31-23.16-6.32-35.17,1.5-.42,3.17-1.17,4.89-2.19.73-3.96-.16-8.62-3.77-10.65-.38-.21-.21-.82.22-.82,2.19,0,4.37-.35,6.42-1.16,3.17-1.26,5.8-3.71,7.12-6.88,1.45-3.49,1.25-7.39.11-10.93-.09-.27.15-.56.42-.56,1.49,0,2.98-.05,4.46-.21,2.5-.27,5.05-.85,7.24-2.13,2.3-1.35,3.94-3.45,4.82-5.95.1-.28.38-.39.64-.26,2.2,1.07,4.42,2.1,6.7,2.98,3.53,1.36,7.26,2.38,11.07,2.35,4.04-.03,7.88-1.31,11.36-3.33.23-.13.46-.03.6.16.96,1.26,2.05,2.42,3.25,3.45,1.99,1.7,4.35,2.98,6.92,3.54,2.68.58,5.43.3,8-.58.2-.07.51.08.54.31.28,2,.7,3.99,1.25,5.93,1.08,3.84,2.64,7.62,4.96,10.89.21.29.42.57.64.85,2.52-.03,5.09-.28,7.64-.63.15-7.53-.38-15.08-1.59-22.51-.91-5.59-2.22-11.16-4.55-16.32-5.36-11.83-16.5-20.65-29-23.97-15.63-4.51-33.06-1.68-46.62,7.2-11.31,7.41-19.84,18.97-23.58,31.96-3.43,11.92-2.9,24.6-1.74,36.95.99,10.62,2.42,21.2,4.28,31.7,8.49,14.74,43.65,23.27,60.34,20.7,9.63-1.49,26.31-5.3,37.33-15.51-23,18.74-59.41,18.31-84.05.8Z"/>
            </g>
            <g>
              <g>
                <circle class="cls-2" cx="63.62" cy="115.94" r="12.06" transform="translate(-6.09 3.56) rotate(-3.06)"/>
                <g>
                  <path class="cls-14" d="M59.77,112.36c-.5,1.43-1,2.85-1.49,4.28-.07.2-.1.38-.03.58.06.18.21.36.39.43.35.15.88.04,1.02-.36.5-1.43,1-2.85,1.49-4.28.07-.2.1-.38.03-.58-.06-.18-.21-.36-.39-.43-.35-.15-.88-.04-1.02.36h0Z"/>
                  <path class="cls-14" d="M65.69,109.56c-.8,2.95-1.61,5.9-2.41,8.84-.11.4.22.82.61.89.43.08.78-.21.89-.6.8-2.95,1.61-5.9,2.41-8.84.11-.4-.22-.82-.61-.89-.43-.08-.78.21-.89.61h0Z"/>
                </g>
              </g>
              <g>
                <circle class="cls-2" cx="116.94" cy="111.47" r="10.79" transform="translate(-8.29 9.4) rotate(-4.45)"/>
                <g>
                  <path class="cls-14" d="M114.13,107.7c-.5,1.97-1,3.94-1.51,5.91-.09.36.2.73.54.8.38.07.71-.18.8-.54.5-1.97,1-3.94,1.51-5.91.09-.36-.2-.73-.54-.8-.38-.07-.71.18-.8.54h0Z"/>
                  <path class="cls-14" d="M119.4,107.85c-.36,1.32-.71,2.64-1.07,3.96-.09.35.2.75.54.8.39.06.7-.17.8-.54.36-1.32.71-2.64,1.07-3.96.09-.35-.2-.75-.54-.8-.39-.06-.7.17-.8.54h0Z"/>
                </g>
              </g>
              <g>
                <ellipse class="cls-11" cx="110.66" cy="99.85" rx="8.44" ry="6.29" transform="translate(4.75 204.74) rotate(-86.78)"/>
                <ellipse class="cls-11" cx="72.12" cy="101.07" rx="8.44" ry="6.29" transform="translate(-32.84 167.41) rotate(-86.78)"/>
                <path class="cls-10" d="M90.89,103.32c.88-.36.34-1.41,0-1.97-.42-.67.66-1.27,1.07-.6.39.63.71,1.34.62,2.1-.08.66-.46,1.29-1.1,1.55-.31.13-.66.08-.84-.24-.15-.26-.07-.71.24-.84Z"/>
                <path class="cls-11" d="M108.27,85.13c.38-.04.76-.05,1.14-.05.19,0,.38.01.57.02.09,0,.19.01.28.02.03,0,.09.02.12.01-.14-.02-.17-.02-.09,0,.03,0,.05,0,.08.01.77.1,1.52.29,2.25.54.09.03.18.06.27.1.02,0,.1.03.11.04,0,0-.19-.08-.07-.03.19.08.37.16.56.25.34.16.68.34,1,.54.16.1.32.2.48.31.08.05.16.11.23.16.02.02.08.05.1.07-.1-.08-.12-.09-.06-.04.02.02.04.03.06.05.3.23.59.48.87.74.32.3.6.62.89.95.1.12-.12-.15-.02-.03.03.04.07.09.1.13.07.09.13.17.19.26.13.19.26.38.38.58.3.48,1.01.69,1.5.36.49-.33.68-.98.36-1.5-1.82-2.93-4.98-5.01-8.38-5.55-.98-.16-1.97-.21-2.97-.12-.57.05-1.11.49-1.07,1.11.04.55.5,1.13,1.11,1.07h0Z"/>
                <path class="cls-11" d="M65.54,93.24c.2-.32.42-.64.65-.94.12-.15.24-.3.36-.44.06-.07.13-.14.19-.21.02-.02.07-.06.08-.09-.1.1-.12.13-.06.06.02-.02.04-.04.06-.06.54-.55,1.15-1.04,1.79-1.46.08-.05.16-.1.24-.15.02-.01.08-.06.1-.06,0,0-.18.1-.07.04.18-.1.35-.2.54-.29.34-.17.68-.33,1.04-.47.18-.07.35-.14.53-.2.09-.03.18-.06.27-.09.03,0,.09-.04.12-.04-.12.04-.15.04-.07.02.03,0,.05-.01.08-.02.37-.1.74-.18,1.11-.24.43-.07.86-.11,1.29-.13.15-.01-.19,0-.04,0,.05,0,.11,0,.16,0,.11,0,.22,0,.33,0,.23,0,.46.02.69.04.57.05,1.16-.38,1.19-.98.03-.59-.37-1.14-.98-1.19-3.43-.32-7,.94-9.49,3.32-.72.69-1.36,1.45-1.89,2.29-.3.48-.28,1.18.24,1.52.46.31,1.2.28,1.52-.24h0Z"/>
                <path class="cls-11" d="M98.99,110.49c-3.78,3.01-9.07,3.62-13.38,1.35-1.49-.78-2.74,1.52-1.25,2.3,5.06,2.66,11.52,2.15,16.01-1.43,1.3-1.04-.06-3.27-1.38-2.22Z"/>
              </g>
            </g>
            <g class="cls-4">
              <path class="cls-8" d="M122.44,107.56c0,.83,1.55,1.51,3.47,1.51s3.47-.67,3.47-1.51-1.55-1.51-3.47-1.51-3.47.67-3.47,1.51Z"/>
            </g>
            <g class="cls-4">
              <ellipse class="cls-8" cx="52.74" cy="111.47" rx="3.01" ry="1.35"/>
            </g>
            <g>
              <path class="cls-11" d="M161.12,59.31c.64-.66,1.2-1.35,1.62-2.02,1.64-2.6,2.49-6.48,1.76-9.54-.71-2.96-2.22-5.88-4.65-7.74.08-.84.03-1.67-.16-2.46-.83-3.48-3.04-5.72-5.89-6.64-.93-2.73-2.57-5.27-5.04-6.77-2.97-1.81-5.87-2.19-9.29-1.86-.83.08-1.68.35-2.52.74,0-.87-.07-1.73-.26-2.53-.79-3.29-2.56-6.54-5.49-8.31-2.97-1.81-5.87-2.19-9.29-1.86-2.35.23-4.91,1.93-6.69,3.86-.02-.7-.1-1.39-.26-2.04-.79-3.29-2.56-6.54-5.49-8.31-2.97-1.81-5.87-2.19-9.29-1.86-1.67.16-3.45,1.07-4.98,2.27-1.89-1.47-4.36-2.09-7.03-1.83-.23.02-.46.06-.69.11-.26-.19-.52-.38-.8-.55-2.97-1.81-5.87-2.19-9.29-1.86-2.58.25-5.41,2.27-7.19,4.42-1.82-1.22-4.1-1.72-6.56-1.48-1.8.18-3.4,1.17-4.62,2.58-1.44-.24-2.94-.24-4.56-.09-3.05.3-6.46,3.07-8.05,5.6-.01.02-.02.04-.04.07-1.54-.67-3.31-.92-5.18-.74-2.55.25-4.72,2.15-5.94,4.54-.44.02-.88.05-1.33.09-3.05.3-6.46,3.07-8.05,5.6-1.64,2.6-2.49,6.48-1.76,9.54.2.82.45,1.63.77,2.42-1.61-.33-3.28-.36-5.1-.19-3.05.3-6.46,3.07-8.05,5.6-1.64,2.6-2.49,6.48-1.76,9.54.07.28.14.56.23.84-1.83,1.72-3,4.33-3.03,6.82-2.11,1.08-4.07,2.94-5.17,4.69-1.64,2.6-2.49,6.48-1.76,9.54.79,3.29,2.56,6.54,5.49,8.31.07.05.15.08.22.13-.17,1.05-.16,2.12.08,3.11.27,1.14.7,2.13,1.24,3-.03.04-.06.08-.08.12-1.64,2.6-2.49,6.48-1.76,9.54.79,3.29,2.56,6.54,5.49,8.31,1.9,1.16,3.78,1.73,5.77,1.91.03.17.06.33.1.5.69,2.87,2.3,4.89,4.44,6.03.82,3.21,2.57,6.33,5.42,8.07,2.97,1.81,5.87,2.19,9.29,1.86,3.05-.3,6.46-3.07,8.05-5.6,1.64-2.6,2.49-6.48,1.76-9.54-.56-2.34-1.62-4.66-3.24-6.44.03,0,.06,0,.09,0,3.05-.3,6.46-3.07,8.05-5.6,1.64-2.6,2.49-6.48,1.76-9.54-.45-1.88-1.23-3.75-2.36-5.34,1.03-2.24,1.55-5.02,1.18-7.44,2.44-.97,4.82-3.1,6.07-5.09,1.26-2,2.05-4.75,2.02-7.31,3.04-.31,6.44-3.07,8.03-5.6.18-.28.35-.59.51-.9.12.08.25.17.38.24,2.97,1.81,5.87,2.19,9.29,1.86,2.72-.26,5.71-2.49,7.46-4.76.17.12.35.23.52.34,2.73,1.66,5.4,2.12,8.46,1.93.96,1.79,2.29,3.37,4.02,4.42,2.97,1.81,5.87,2.19,9.29,1.86.84-.08,1.71-.36,2.56-.76.97,2.32,2.5,4.42,4.64,5.73,2.97,1.81,5.87,2.19,9.29,1.86.48-.05.96-.16,1.44-.32-1.23,2.52-1.79,5.79-1.15,8.45.32,1.33.8,2.66,1.46,3.88-1.18.96-2.2,2.09-2.89,3.18-1.64,2.6-2.49,6.48-1.76,9.54.79,3.29,2.56,6.54,5.49,8.31,1.13.69,2.26,1.17,3.4,1.49-.91,2.34-1.26,5.12-.71,7.44.44,1.85,1.2,3.69,2.3,5.26.02.47.08.93.19,1.38,1.23,5.12,5.42,7.55,10.28,7.08,2.82-.27,5.16-2.56,6.29-5.3,1.55-1.08,2.92-2.49,3.77-3.84.78-1.24,1.38-2.76,1.72-4.35,3.92-1.22,6.58-6.29,5.62-10.29-.04-.18-.1-.34-.15-.51.63-.65,1.18-1.33,1.59-1.99,1.64-2.6,2.49-6.48,1.76-9.54-.43-1.78-1.14-3.54-2.17-5.07,1.3-1.01,2.44-2.23,3.18-3.4,1.64-2.6,2.49-6.48,1.76-9.54-.65-2.73-1.98-5.42-4.08-7.27Z"/>
              <path class="cls-13" d="M163.45,76.13c1.64-2.6,2.49-6.48,1.76-9.54-.65-2.73-1.98-5.42-4.08-7.27.64-.66,1.2-1.35,1.62-2.02,1.64-2.6,2.49-6.48,1.76-9.54-.71-2.96-2.22-5.88-4.65-7.74.08-.84.03-1.67-.16-2.46-.83-3.48-3.04-5.72-5.89-6.64-.93-2.73-2.57-5.27-5.04-6.77-2.97-1.81-5.87-2.19-9.29-1.86-.83.08-1.68.35-2.52.74,0-.87-.07-1.73-.26-2.53-.79-3.29-2.56-6.54-5.49-8.31-2.97-1.81-5.87-2.19-9.29-1.86-2.35.23-4.91,1.93-6.69,3.86-.02-.7-.1-1.39-.26-2.04-.79-3.29-2.56-6.54-5.49-8.31-2.97-1.81-5.87-2.19-9.29-1.86-1.67.16-3.45,1.07-4.98,2.27-1.89-1.47-4.36-2.09-7.03-1.83-.23.02-.46.06-.69.11-.26-.19-.52-.38-.8-.55-2.97-1.81-5.87-2.19-9.29-1.86-2.58.25-5.41,2.27-7.19,4.42-1.82-1.22-4.1-1.72-6.56-1.48-1.8.18-3.4,1.17-4.62,2.58-1.44-.24-2.94-.24-4.56-.09-3.05.3-6.46,3.07-8.05,5.6-.01.02-.02.04-.04.07-1.54-.67-3.31-.92-5.18-.74-2.55.25-4.72,2.15-5.94,4.54-.44.02-.88.05-1.33.09-3.05.3-6.46,3.07-8.05,5.6-1.64,2.6-2.49,6.48-1.76,9.54.2.82.45,1.63.77,2.42-1.61-.33-3.28-.36-5.1-.19-3.05.3-6.46,3.07-8.05,5.6-1.64,2.6-2.49,6.48-1.76,9.54.07.28.14.56.23.84-1.83,1.72-3,4.33-3.03,6.82-2.11,1.08-4.07,2.94-5.17,4.69-1.64,2.6-2.49,6.48-1.76,9.54.79,3.29,2.56,6.54,5.49,8.31.07.05.15.08.22.13-.17,1.05-.16,2.12.08,3.11.27,1.14.7,2.13,1.24,3-.03.04-.06.08-.08.12-1.64,2.6-2.49,6.48-1.76,9.54.79,3.29,2.56,6.54,5.49,8.31,1.11.67,2.21,1.14,3.33,1.46-1.47-3.2-2.16-6.8-2.27-10.07,0-6.07,6.8-7.77,11.65-9.22-4.61-3.64-8.5-8.74-7.53-14.81.73-4.61,5.1-7.53,9.71-7.04-4.61-7.53-2.67-16.99,4.37-22.33,3.64-2.67,7.77-3.16,11.9-2.18,0-4.59-.56-11.01,4.61-15.54,10.56-9.23,24.52-6.31,33.99,1.21,2.91-10.44,14.07-14.19,23.29-12.5,6.07.97,11.91,8.37,12.39,14.19,2.67-3.16,7.53-2.43,11.17-1.94,5.34.49,11.17,3.4,13.35,8.25.97,2.18.49,4.61.24,7.04,5.83-.73,12.62.97,14.81,6.55,2.67,6.8-3.88,11.65-9.47,14.08,3.88,1.46,6.55,4.37,7.77,8.25,1.21,4.61-1.21,10.2-6.07,11.65,6.76,2.8,10.83,9.31,11.68,16.15.31-.38.59-.76.83-1.13,1.64-2.6,2.49-6.48,1.76-9.54-.43-1.78-1.14-3.54-2.17-5.07,1.3-1.01,2.44-2.23,3.18-3.4Z"/>
              <path class="cls-15" d="M68.79,37.17c-4.54-7-14.06-9.13-21.11-4.67-7.3,4.62-9.17,14.3-4.58,21.5.67,1.06,2.17-.2,1.5-1.25-4.09-6.41-1.97-15.13,4.62-18.9,6.27-3.6,14.17-1.4,18.06,4.59.68,1.05,2.18-.21,1.5-1.25Z"/>
              <path class="cls-15" d="M93.46,30.05c-4.28-1.85-9.09,1.22-9.06,5.92,0,1.25,1.96,1.46,1.95.2-.03-3.46,3.21-5.68,6.42-4.29,1.16.5,1.84-1.33.69-1.83Z"/>
              <path class="cls-15" d="M37.23,80.52c-2.5,1.1-5.76-.02-6.88-2.57-1.19-2.73.58-5.91,3.25-6.87,1.18-.42.35-2.19-.83-1.77-3.68,1.31-5.8,5.83-4.2,9.47,1.56,3.54,6.02,5.04,9.48,3.52,1.15-.51.33-2.28-.83-1.77Z"/>
              <path class="cls-15" d="M133.87,33.67c-3.21-6.83-12.26-8.51-17.64-3.14-.88.88.36,2.39,1.25,1.5,4.47-4.46,11.9-3.29,14.61,2.47.53,1.14,2.31.32,1.77-.83Z"/>
              <path class="cls-15" d="M154.4,58.35c-1.01-.75-2.15.84-1.13,1.59,3.22,2.39,3.62,6.99.74,9.82-.89.88.35,2.39,1.25,1.5,3.78-3.72,3.43-9.74-.86-12.92Z"/>
              <path class="cls-15" d="M95.46,20.88c-2.09-3.85-7.03-4.34-9.9-1.08-.83.95.77,2.07,1.59,1.13,1.89-2.14,5.19-1.7,6.53.77.6,1.1,2.38.28,1.77-.83Z"/>
              <path class="cls-15" d="M25.33,68.29c-4.28.78-7.04,4.7-6.3,8.99.21,1.24,2.14.92,1.93-.33-.56-3.23,1.46-6.15,4.7-6.74,1.24-.23.92-2.16-.33-1.93Z"/>
              <path class="cls-15" d="M128.82,55.23c-1.76-2.68-5.29-3.58-8.2-2.41-1.17.47-.34,2.24.83,1.77,2.01-.8,4.5-.15,5.72,1.69,1.21,1.83.85,4.4-.68,5.93-.89.88.36,2.39,1.25,1.5,2.22-2.21,2.84-5.78,1.08-8.48Z"/>
              <path class="cls-15" d="M39.94,34.97c-.87-2.93-4.32-4.74-7.13-3.17-1.94,1.08-2.69,3.41-2.22,5.45-2.44-.21-4.91.83-5.77,3.4-.96,2.85,1.37,5.76,4.35,5.39,1.25-.15.92-2.08-.33-1.93-2.05.25-2.8-2.13-1.79-3.6,1.12-1.63,3.26-1.6,4.92-.93.92.37,1.71-.8,1.1-1.54-1.06-1.29-.9-3.46.54-4.43,1.54-1.04,3.89-.05,4.41,1.69.35,1.19,2.29.88,1.93-.33Z"/>
              <path class="cls-15" d="M74.06,13.31c-2.75-2.29-6.44-2.86-9.79-1.68-1.19.42-.35,2.19.83,1.77,2.71-.95,5.64-.32,7.83,1.5.97.81,2.1-.79,1.13-1.59Z"/>
            </g>
          </g>
        </g>
      </g>
    </g>
  </g>
</svg>