<?xml version="1.0" encoding="UTF-8"?>
<svg xmlns="http://www.w3.org/2000/svg" viewBox="0 0 151.27 240.7">
  <defs>
    <style>
      .cls-1 {
        fill: #e6e9eb;
      }

      .cls-2 {
        fill: #f09190;
      }

      .cls-3 {
        fill: #e69e7a;
      }

      .cls-4 {
        fill: #f47170;
      }

      .cls-5 {
        fill: #fff;
      }

      .cls-6 {
        mix-blend-mode: soft-light;
      }

      .cls-7 {
        fill: #cad6e3;
      }

      .cls-8 {
        fill: #edae8a;
      }

      .cls-9 {
        fill: #4f3938;
      }

      .cls-10 {
        fill: #473432;
      }

      .cls-11 {
        isolation: isolate;
      }

      .cls-12 {
        fill: #f1f1f1;
      }

      .cls-13 {
        fill: #533838;
      }

      .cls-14 {
        fill: #d5dde3;
      }

      .cls-15 {
        fill: #ffc8a6;
      }
    </style>
  </defs>
  <g class="cls-11">
    <g id="Layer_2" data-name="Layer 2">
      <g id="Layer_1-2" data-name="Layer 1">
        <g id="cowo-3">
          <path class="cls-12" d="M43.36,148.9c-4.93-.99-14.52.66-21.41,6.51-5.8,4.93-16.68,47.28-21.13,56.14-4.23,8.41,8.84,21.69,15.44,17.6,6.34-3.92,22.23-50.34,22.23-50.34,0,0,9.79-28.93,4.86-29.92Z"/>
          <path class="cls-12" d="M97.44,147.33c4.93-.99,16.02,1.12,21.41,6.51s20.57,43.38,25.03,52.24c4.23,8.41-8.84,21.69-15.44,17.6-6.34-3.92-26.13-46.44-26.13-46.44,0,0-9.79-28.93-4.86-29.92Z"/>
          <g>
            <rect class="cls-15" x="57.53" y="118.5" width="28.08" height="49.31" transform="translate(143.15 286.31) rotate(180)"/>
            <path class="cls-3" d="M57.53,118.5v29.27c7.62,6.23,20.16,6.6,27.11-1.01.34-.45.66-.91.98-1.38v-26.88h-28.08Z"/>
          </g>
          <g>
            <g>
              <path class="cls-12" d="M33.43,181.54c0-9.03,2.92-29.86,2.87-30.57,5.54-3.23,15.29-5.74,20.27-6.77.57,4.64,2.86,9.9,5.82,14.54,2.78,4.34,6.2,5.39,9.58,5.45,3.38.06,5.87-1.35,8.89-5.04,2.8-3.43,3.46-7.88,5.27-14.62,6.05,2.17,11.98,1.68,18.03,3.86,4.01,8.07,5.77,27.28,6.86,36.08.69,5.54,3.88,44.39,1.88,48.7-2,4.31-19.61,6.5-24.86,6.93-19.7,1.61-44.25-.35-47.6-1.47-13.9-4.61-11.67-5.85-11.14-12.41.27-3.35,4.13-35.64,4.13-44.68Z"/>
              <path class="cls-14" d="M109.21,169.73c-.25,9.35,1.54,28.81-2.52,30.12-3.28,1.05-46.92,2.55-69.37-.12-1.6,0-2.59-2.31-2.59-6.94,0-8.92.6-14.74-.66-21.83-.37,4.02-.64,7.84-.64,10.58,0,9.03-3.86,41.32-4.13,44.68-.53,6.56-2.75,7.8,11.14,12.41,3.36,1.11,27.9,3.07,47.6,1.47,5.24-.43,22.86-2.62,24.86-6.93,2-4.31-1.19-43.16-1.88-48.7-.45-3.64-1.02-9.06-1.81-14.73Z"/>
              <path class="cls-1" d="M57.27,143.16s-4.29.48-5,2.98c-.71,2.5,1.09,24.32,1.09,24.32,0,0,5.2-5.9,7.22-6.91,2.03-1.01,11.11,1.1,11.38.65.26-.45-12.59-6.63-14.69-21.03Z"/>
              <path class="cls-1" d="M85.88,143.26s4.29.48,5,2.98c.71,2.5-1.09,24.32-1.09,24.32,0,0-5.2-5.9-7.22-6.91-2.03-1.01-9.64.98-9.9.53s11.12-6.51,13.22-20.91Z"/>
            </g>
            <g>
              <path class="cls-1" d="M100.06,197.36l-.44-16.04c-7.04.82-15.25.36-15.25.36v15.05c2.12,2.29,5.14,4.08,7.39,4.17,3.69.15,8.3-3.54,8.3-3.54Z"/>
              <g>
                <g>
                  <circle class="cls-7" cx="75.17" cy="172.76" r="1.27"/>
                  <circle class="cls-7" cx="75.17" cy="191.52" r="1.27"/>
                  <circle class="cls-7" cx="75.17" cy="210.29" r="1.27"/>
                  <path class="cls-7" d="M76.44,229.05c0,.7-.57,1.27-1.27,1.27s-1.27-.57-1.27-1.27.57-1.27,1.27-1.27,1.27.57,1.27,1.27Z"/>
                </g>
                <polygon class="cls-7" points="72.35 239.35 72.89 239.35 72.66 164.17 72.15 164.19 72.35 239.35"/>
              </g>
            </g>
          </g>
          <g>
            <g>
              <g>
                <g>
                  <path class="cls-15" d="M131.68,111.8c13.6-.61,20.97-16.1,19.38-26.77-.85-5.11-6.33-6.18-12.15-5.19-12.08,1.89-19.18,13.47-15.12,20.63,1.72,4.83,4.63,11.3,7.9,11.33Z"/>
                  <path class="cls-8" d="M133.22,100.89c.19.61,3.07,2.25,4.97.86,2.21-2.86-1.95-6.07-.44-8.67,1.9-1.39,4.31-3.65,2.52-4.34-3.57-1.38-7.61,5.56-10.56,1.23-1.03-1.52-1.81-3.46-1.98-5.5-1.32,1.32-2.41,2.78-3.24,4.31,1.27,4.73,5.27,8.83,8.72,12.11Z"/>
                </g>
                <g>
                  <path class="cls-15" d="M19.6,119.36c-14.53.31-19.45-14.48-17.62-25.12.96-5.09,6.02-7.7,11.83-6.58,12.04,2.15,18.48,14.72,14.26,21.79-1.82,4.79-5.2,9.84-8.47,9.91Z"/>
                  <path class="cls-8" d="M18.62,109.66c-.21.6-3.12,2.18-4.99.75-2.15-2.91,2.08-6.02.62-8.66-1.87-1.43-4.23-3.74-2.43-4.39,3.6-1.3,7.49,5.72,10.54,1.46,1.07-1.49,1.88-3.42,2.09-5.45,1.29,1.34,2.35,2.83,3.14,4.38-1.38,4.7-5.46,8.71-8.98,11.92Z"/>
                </g>
              </g>
              <path class="cls-15" d="M129.81,112.42c.28-10.97.1-21.95-.52-32.9-.72-12.74-2.13-25.71-7.45-37.31-5.8-12.64-16.25-23.08-28.89-28.88-15.16-6.95-33.32-7.15-48.52-.16-12.21,5.3-22.18,15.98-25.81,28.84-1.59,5.61-2.06,11.47-2.12,17.3-.11,9.73.89,19.48,2.98,28.98-.59,5.61-1.19,11.23-1.78,16.84-.33,3.08-.65,6.22-.05,9.26.61,3.07,2.14,5.87,3.84,8.49,11.48,17.63,37.15,19.82,50.14,19.86,17.37.06,51.82-14.03,58.19-30.33Z"/>
              <path class="cls-3" d="M128.82,72.73c-.88-10.51-2.6-20.98-6.98-30.52-5.8-12.64-16.25-23.08-28.89-28.88-15.16-6.95-33.32-7.15-48.52-.16-12.21,5.3-22.18,15.98-25.81,28.84-1.59,5.61-2.06,11.47-2.12,17.3-.05,4.76.16,9.53.64,14.26,2.61-4.67,8.28-10.95,12.44-12.43,2.52-1.09,19.99,6.87,34.01,6.58,20.25-.42,40.26-7.77,45.96-10.52,6.26,4.09,14.66,9.67,19.28,15.52Z"/>
            </g>
            <g>
              <g>
                <circle class="cls-2" cx="98.95" cy="100.51" r="12.4" transform="translate(-15.62 182.76) rotate(-81.12)"/>
                <g>
                  <path class="cls-4" d="M102.52,96.45c.66,1.41,1.32,2.82,1.97,4.23.09.2.15.37.09.59-.05.19-.18.39-.35.48-.34.19-.89.14-1.08-.26-.66-1.41-1.32-2.82-1.97-4.23-.09-.2-.15-.37-.09-.59.05-.19.18-.39.35-.48.34-.19.89-.14,1.08.26h0Z"/>
                  <path class="cls-4" d="M96.17,94.2c1.13,2.93,2.26,5.87,3.39,8.8.15.4-.14.86-.53.98-.43.13-.82-.13-.98-.53-1.13-2.93-2.26-5.87-3.39-8.8-.15-.4.14-.86.53-.98.43-.13.82.13.98.53h0Z"/>
                </g>
              </g>
              <g>
                <path class="cls-2" d="M32.82,101.56c.04,6.13,5.04,11.07,11.17,11.03,6.13-.04,11.07-5.04,11.03-11.17-.04-6.13-5.04-11.07-11.17-11.03-6.13.04-11.07,5.04-11.03,11.17Z"/>
                <g>
                  <path class="cls-4" d="M46.41,97.34c.72,1.96,1.44,3.92,2.16,5.89.13.36-.12.77-.47.87-.38.11-.74-.11-.87-.47-.72-1.96-1.44-3.92-2.16-5.89-.13-.36.12-.77.47-.87.38-.11.74.11.87.47h0Z"/>
                  <path class="cls-4" d="M41.03,98.04c.5,1.31,1,2.63,1.5,3.94.13.34-.12.79-.47.87-.39.1-.73-.1-.87-.47-.5-1.31-1-2.63-1.5-3.94-.13-.34.12-.79.47-.87.39-.1.73.1.87.47h0Z"/>
                </g>
              </g>
              <g>
                <ellipse class="cls-13" cx="49.01" cy="88.39" rx="6.47" ry="8.68" transform="translate(-10.82 6.93) rotate(-7.29)"/>
                <ellipse class="cls-13" cx="88.64" cy="86.82" rx="6.47" ry="8.68" transform="translate(-10.3 11.95) rotate(-7.29)"/>
                <path class="cls-13" d="M69.73,90.44c-.94-.27-.5-1.41-.2-2.02.36-.73-.81-1.23-1.16-.5-.33.68-.59,1.45-.42,2.21.15.67.61,1.27,1.28,1.47.33.1.68,0,.83-.33.13-.28,0-.74-.33-.83Z"/>
                <path class="cls-13" d="M50.38,73.11c-.39,0-.78,0-1.17.03-.19.02-.39.04-.58.07-.1.01-.19.03-.29.04-.03,0-.09.03-.12.02.15-.03.18-.03.09-.02-.03,0-.05.01-.08.02-.78.16-1.54.4-2.27.72-.09.04-.18.08-.27.12-.02.01-.1.03-.11.05,0,0,.19-.1.07-.03-.19.1-.37.19-.55.3-.34.19-.67.4-.99.63-.16.11-.32.23-.47.35-.08.06-.15.12-.23.18-.02.02-.08.05-.1.08.1-.09.12-.1.06-.05-.02.02-.04.04-.06.06-.29.26-.57.53-.83.82-.3.33-.57.68-.84,1.04-.1.13.11-.16.02-.03-.03.05-.06.09-.09.14-.06.09-.12.19-.18.28-.12.2-.24.41-.35.62-.27.52-.98.78-1.51.48-.52-.3-.77-.96-.48-1.51,1.66-3.14,4.74-5.5,8.2-6.31,1-.23,2.01-.36,3.03-.34.59.01,1.17.43,1.18,1.06,0,.57-.43,1.19-1.06,1.18h0Z"/>
                <path class="cls-13" d="M94.82,78.3c-.23-.32-.47-.62-.74-.91-.13-.14-.27-.29-.4-.42-.07-.07-.14-.14-.21-.2-.03-.02-.07-.06-.09-.09.11.1.13.12.07.06-.02-.02-.04-.04-.06-.06-.6-.52-1.25-.98-1.95-1.37-.09-.05-.17-.09-.26-.14-.02-.01-.09-.06-.11-.06,0,0,.19.09.07.04-.19-.09-.38-.18-.57-.26-.36-.15-.73-.29-1.1-.41-.19-.06-.37-.11-.56-.16-.09-.02-.19-.05-.28-.07-.03,0-.09-.03-.12-.03.13.03.16.03.08.02-.03,0-.05-.01-.08-.02-.38-.08-.77-.13-1.16-.17-.45-.04-.89-.05-1.34-.04-.16,0,.19-.01.04,0-.06,0-.11,0-.17,0-.11,0-.22.02-.33.03-.24.02-.47.06-.71.09-.58.1-1.22-.31-1.3-.91-.08-.6.29-1.2.91-1.3,3.5-.57,7.25.45,9.98,2.72.79.65,1.5,1.38,2.1,2.21.34.47.37,1.19-.14,1.58-.45.35-1.21.37-1.58-.14h0Z"/>
                <path class="cls-5" d="M60.46,105.32c-2.07-3.07-2.68-7.16-1.43-10.65,6.65,3.37,15.02,3.02,21.41-.79,2.06,4.59.73,10.5-3.15,13.72-4.01,3.32-10.34,3.43-14.47.25-.92-.71-1.72-1.57-2.36-2.53Z"/>
              </g>
              <g class="cls-6">
                <path class="cls-5" d="M37.28,97.67c.04.71-1.28,1.35-2.95,1.43-1.66.08-3.04-.42-3.08-1.13-.04-.71,1.28-1.35,2.95-1.43,1.66-.08,3.04.42,3.08,1.13Z"/>
              </g>
              <g class="cls-6">
                <path class="cls-5" d="M112.72,95.88c.04.71-1.28,1.35-2.95,1.43-1.66.08-3.04-.42-3.08-1.13s1.28-1.35,2.95-1.43c1.66-.08,3.04.42,3.08,1.13Z"/>
              </g>
            </g>
            <g>
              <path class="cls-9" d="M32.53,55.19c10.63,3.35,26.16,5.97,37.26,5.28,12.91-.79,25.74-4.88,36.28-12.31,3.81,1.32,7.46,3.11,10.84,5.32.63.41,1.28.86,1.67,1.51.5.81.53,1.81.56,2.76.24,9.23.72,18.46,1.46,27.67.21,2.6.54,5.9,1.83,8.17,1.11,1.95,6.04,2.82,7.49,1.43,1.45-1.39,5.46-37.45,2.7-56.98-1.21-8.58-3.57-17.57-9.92-23.47-6.09-5.65-16.84-6.86-22.43-.94-21.27-18.52-56.6-18.15-77.37,1-5.79,5.34-10.65,12.37-10.91,20.24-4.98-2.4-3.06,15.78-2.94,18.02.83,15.41,1.06,26.46,1.89,41.87,2.45,4.44,9.75,2.53,9.77,1.89.34-9.38.69-18.77,1.03-28.15.06-1.61.13-3.26.72-4.75,1.39-3.49,9.4-8.77,10.07-8.56Z"/>
              <path class="cls-10" d="M122.69,14.57c-6.09-5.65-16.84-6.86-22.43-.94-21.27-18.52-56.6-18.15-77.37,1-5.79,5.34-10.66,12.37-10.91,20.24-4.98-2.4-3.06,15.78-2.94,18.02.83,15.41,1.06,26.46,1.89,41.87,1.03,1.87,2.93,2.61,4.77,2.8.17-1.6-.21-50.52,1.8-56.71,3.4-10.5,17.27-23.32,26.91-27.67,18.16-8.19,43.91-4.8,57.74,12.12.46.47,1.38,1.4,2.03.58,2.92-5.26,8.33-8.54,14.35-8.02,2.5.12,5.18,1.72,6.54,4.05,3.9,6.12,6.13,12.77,7.93,19.57-.11-1.19-.25-2.34-.4-3.43-1.21-8.58-3.57-17.57-9.92-23.47Z"/>
              <path class="cls-10" d="M105.12,28.98c-.24.08-.47.05-.7-.07-.25-.13-.46-.42-.54-.72-.04-.16-.06-.39.07-.59,1.55-2.36,3.75-4.05,6.35-4.89.71-.23,1.46-.4,2.22-.5.65-.08.85.36.92.63.11.51-.09,1.15-.69,1.35-.07.02-.14.04-.22.05-.56.07-1.13.2-1.67.38-2.09.67-3.88,2.03-5.05,3.81-.18.27-.43.47-.68.56Z"/>
              <path class="cls-10" d="M99.57,28.31c-.26.08-.76.15-1.13-.38-.85-1.2-2.03-2.1-3.18-2.97l-.24-.18c-1.1-.84-2.27-1.64-3.46-2.37-2.64-1.62-5.31-2.9-7.92-3.81-5.88-2.03-11.79-2.46-17.1-1.23-.81.19-1.22-.47-1.33-.84-.05-.19-.17-.81.49-1.02.03-.01.07-.02.1-.03,5.93-1.37,12.32-.95,18.48,1.22,2.98,1.05,5.82,2.42,8.44,4.05,2.36,1.47,5.58,3.49,7.44,6.11.18.26.24.52.15.77-.1.3-.39.57-.74.68h0Z"/>
              <path class="cls-10" d="M99.02,35.21c-.23.08-.59.11-.96-.17-2.82-2.13-6.34-3.32-9.91-3.35-.65,0-.96-.48-1.03-.92-.06-.42.07-.9.52-1.05.1-.03.21-.05.34-.05,4.17.04,8.15,1.4,11.52,3.93.28.21.39.45.34.73-.06.38-.41.74-.82.88h0Z"/>
            </g>
          </g>
        </g>
      </g>
    </g>
  </g>
</svg>