<?xml version="1.0" encoding="UTF-8"?>
<svg xmlns="http://www.w3.org/2000/svg" viewBox="0 0 152.92 249.63">
  <defs>
    <style>
      .cls-1 {
        fill: #e6e9eb;
      }

      .cls-2 {
        fill: #f09190;
      }

      .cls-3 {
        fill: #f47170;
      }

      .cls-4 {
        mix-blend-mode: soft-light;
      }

      .cls-5 {
        fill: #6b3634;
      }

      .cls-6 {
        fill: #cad6e3;
      }

      .cls-7 {
        fill: #ffd3c2;
      }

      .cls-8 {
        fill: #eba992;
      }

      .cls-9 {
        fill: #f2ae97;
      }

      .cls-10 {
        fill: #904c33;
      }

      .cls-11 {
        isolation: isolate;
      }

      .cls-12 {
        fill: #f1f1f1;
      }

      .cls-13 {
        fill: #533838;
      }

      .cls-14 {
        fill: #d5dde3;
      }

      .cls-15 {
        fill: #7a412b;
      }

      .cls-16 {
        fill: #f7ece9;
      }
    </style>
  </defs>
  <g class="cls-11">
    <g id="Layer_2" data-name="Layer 2">
      <g id="Layer_1-2" data-name="Layer 1">
        <g id="cowo-1">
          <path class="cls-12" d="M51.59,157.83c-4.93-.99-14.52.66-21.41,6.51-5.8,4.93-16.68,47.28-21.13,56.14-4.23,8.41,8.84,21.69,15.44,17.6,6.34-3.92,22.23-50.34,22.23-50.34,0,0,9.79-28.93,4.86-29.92Z"/>
          <path class="cls-12" d="M105.66,156.26c4.93-.99,16.02,1.12,21.41,6.51,5.2,5.2,20.57,43.38,25.03,52.24,4.23,8.41-8.84,21.69-15.44,17.6-6.34-3.92-26.13-46.44-26.13-46.44,0,0-9.79-28.93-4.86-29.92Z"/>
          <g>
            <rect class="cls-7" x="65.76" y="127.43" width="28.08" height="49.31" transform="translate(159.6 304.17) rotate(180)"/>
            <path class="cls-8" d="M65.76,127.43v29.27c7.62,6.23,20.16,6.6,27.11-1.01.34-.45.66-.91.98-1.38v-26.88h-28.08Z"/>
          </g>
          <g>
            <g>
              <path class="cls-12" d="M41.65,190.47c0-9.03,2.92-29.86,2.87-30.57,5.54-3.23,15.29-5.74,20.27-6.77.57,4.64,2.86,9.9,5.82,14.54,2.78,4.34,6.2,5.39,9.58,5.45,3.38.06,5.87-1.35,8.89-5.04,2.8-3.43,3.46-7.88,5.27-14.62,6.05,2.17,11.98,1.68,18.03,3.86,4.01,8.07,5.77,27.28,6.86,36.08.69,5.54,3.88,44.39,1.88,48.7-2,4.31-19.61,6.5-24.86,6.93-19.7,1.61-44.25-.35-47.6-1.47-13.9-4.61-11.67-5.85-11.14-12.41.27-3.35,4.13-35.64,4.13-44.68Z"/>
              <path class="cls-14" d="M117.44,178.66c-.25,9.35,1.54,28.81-2.52,30.12-3.28,1.05-46.92,2.55-69.37-.12-1.6,0-2.59-2.31-2.59-6.94,0-8.92.6-14.74-.66-21.83-.37,4.02-.64,7.84-.64,10.58,0,9.03-3.86,41.32-4.13,44.68-.53,6.56-2.75,7.8,11.14,12.41,3.36,1.11,27.9,3.07,47.6,1.47,5.24-.43,22.86-2.62,24.86-6.93,2-4.31-1.19-43.16-1.88-48.7-.45-3.64-1.02-9.06-1.81-14.73Z"/>
              <path class="cls-1" d="M65.49,152.09s-4.29.48-5,2.98c-.71,2.5,1.09,24.32,1.09,24.32,0,0,5.2-5.9,7.22-6.91,2.03-1.01,11.11,1.1,11.38.65.26-.45-12.59-6.63-14.69-21.03Z"/>
              <path class="cls-1" d="M94.1,152.19s4.29.48,5,2.98c.71,2.5-1.09,24.32-1.09,24.32,0,0-5.2-5.9-7.22-6.91-2.03-1.01-9.64.98-9.9.53-.26-.45,11.12-6.51,13.22-20.91Z"/>
            </g>
            <g>
              <path class="cls-1" d="M108.28,206.29l-.44-16.04c-7.04.82-15.25.36-15.25.36v15.05c2.12,2.29,5.14,4.08,7.39,4.17,3.69.15,8.3-3.54,8.3-3.54Z"/>
              <g>
                <g>
                  <path class="cls-6" d="M84.66,181.69c0,.7-.57,1.27-1.27,1.27s-1.27-.57-1.27-1.27.57-1.27,1.27-1.27,1.27.57,1.27,1.27Z"/>
                  <circle class="cls-6" cx="83.4" cy="200.45" r="1.27"/>
                  <circle class="cls-6" cx="83.4" cy="219.22" r="1.27"/>
                  <circle class="cls-6" cx="83.4" cy="237.98" r="1.27"/>
                </g>
                <polygon class="cls-6" points="80.57 248.28 81.12 248.28 80.89 173.1 80.37 173.11 80.57 248.28"/>
              </g>
            </g>
          </g>
          <g>
            <g>
              <g>
                <g>
                  <path class="cls-7" d="M21.46,124.05c-14.17-.02-22.52-15.78-21.35-26.95.65-5.35,6.29-6.71,12.4-5.94,12.64,1.41,20.54,13.13,16.65,20.76-1.57,5.1-4.3,11.95-7.7,12.13Z"/>
                  <path class="cls-9" d="M19.37,112.78c-.18.64-3.09,2.48-5.13,1.12-2.43-2.88,1.75-6.39.06-9.03-2.04-1.36-4.64-3.59-2.82-4.39,3.65-1.6,8.16,5.43,11.04.8,1.01-1.62,1.72-3.68,1.8-5.8,1.43,1.31,2.63,2.78,3.56,4.33-1.11,4.97-5.08,9.41-8.51,12.98Z"/>
                </g>
                <g>
                  <path class="cls-7" d="M133.63,123.81c15.12-.33,19.56-15.93,17.18-26.91-1.23-5.25-6.61-7.73-12.59-6.3-12.42,2.78-18.54,16.13-13.84,23.29,2.11,4.9,5.85,9.99,9.25,9.91Z"/>
                  <path class="cls-9" d="M134.2,113.68c.24.62,3.34,2.13,5.22.56,2.1-3.12-2.43-6.17-1.04-8.97,1.88-1.57,4.23-4.08,2.32-4.67-3.81-1.19-7.52,6.29-10.88,1.99-1.18-1.5-2.11-3.47-2.42-5.57-1.28,1.46-2.31,3.05-3.07,4.69,1.64,4.82,6.07,8.81,9.87,11.98Z"/>
                </g>
              </g>
              <path class="cls-7" d="M18.77,121.58c-.78-11.39-1.1-22.81-.95-34.22.18-13.27,1.05-26.82,6.06-39.11,5.46-13.4,15.85-24.73,28.73-31.32,15.44-7.91,34.3-8.94,50.42-2.35,12.93,4.96,23.77,15.61,28.13,28.81,1.9,5.76,2.66,11.83,2.99,17.88.55,10.11-.05,20.28-1.79,30.26.87,5.81,1.74,11.61,2.62,17.42.48,3.19.96,6.44.47,9.63-.5,3.21-1.95,6.2-3.61,9-11.14,18.84-37.72,22.28-51.22,22.91-18.05.84-54.49-12.24-61.85-28.89Z"/>
              <path class="cls-9" d="M39.08,131.25c-11.82-10.16-14.84-21.6-11.36-34.15,8.04-1.34,23.3-16.19,26.16-29.34,8.88,18.58,39.65,18.21,55.08,11.12,6.51,5.93,15.43,6.77,24.32,6.52,1.02-8,1.31-16.09.87-24.13-.33-6.05-1.09-12.13-2.99-17.88-4.36-13.2-15.2-23.85-28.13-28.81-16.12-6.58-34.98-5.55-50.42,2.35-12.88,6.6-23.27,17.92-28.73,31.32-5.01,12.29-5.88,25.84-6.06,39.11-.15,11.41.16,22.83.95,34.22,7.36,16.65,43.8,29.73,61.85,28.89,10.41-.49,28.6-2.65,41.49-12.25-26.6,17.33-58.81,14.47-83.03-6.97Z"/>
              <g>
                <g>
                  <path class="cls-10" d="M11.74,49.19c.98-2.25,2.09-4.44,3.36-6.56,1.71-2.88,3.74-5.61,6.02-8.1,4.88-14.74,20.42-23.98,35.96-27.62,20.46-4.8,39.16-.29,57.52,8.89,13.71,6.85,19.43,13.99,28.75,29.83,17.47,39.5-9.4,51.57-9.4,51.57,0,0,.02-8.41-3.09-19.16-7.38-.46-17.62-5.38-22.93-10.69-6.65-6.65-15.96-19.67-20.14-28.1.69,10.94-2.7,26.46-12.76,31.69,1.12-4.64,1.13-9.55.03-14.19-4.07,10.16-12.19,18.63-22.16,23.14-6.13,2.77-12.93,4.02-19.65,3.73-5,2.5-8.98,4.33-14.89,6.53l1.76,17.06s-11.54-20.56-12.72-30.24c-1.24-10.1.26-18.36,4.36-27.77Z"/>
                  <path class="cls-5" d="M28.84,23.78c.41-.26.41-.9.14-1.25-.32-.41-.85-.4-1.25-.14-.63.41-1.2.88-1.76,1.37-2.83-2.77-6.86-4.34-10.83-4.08-.51.03-.9.47-.86.98.03.51.47.9.98.86,3.44-.22,6.93,1.13,9.4,3.54-1.02,1.13-1.89,2.39-2.55,3.75-5.33-.51-10.82,1.78-14.12,6.05-.31.4-.24.99.17,1.3.12.09.26.15.4.18.33.06.68-.06.89-.35,2.75-3.56,7.41-5.59,11.91-5.38-.35,1-.61,2.04-.76,3.09-.16,1.13,1.61,1.33,1.77.19.15-1.06.42-2.09.79-3.07.13.03.26.04.4.07.5.11.99-.2,1.1-.7.11-.5-.2-.99-.69-1.1.52-.96,1.15-1.87,1.88-2.69.06.08.12.15.18.23.15.21.36.33.59.38.24.04.49,0,.7-.16.42-.3.51-.87.22-1.29-.12-.17-.24-.33-.37-.49.53-.47,1.08-.92,1.68-1.31Z"/>
                </g>
                <path class="cls-15" d="M79.52,5.2c-7.28-.59-14.74-.1-22.45,1.71-15.54,3.64-31.08,12.88-35.96,27.62-2.28,2.49-4.31,5.22-6.02,8.1-1.26,2.12-2.38,4.32-3.36,6.56-4.1,9.42-5.6,17.67-4.36,27.77,1.18,9.68,12.72,30.24,12.72,30.24l-1.76-17.06c-9.45-18.11-4.58-38.82,11.04-52.56-.12-26.59,41.81-31.47,50.14-32.39Z"/>
                <g>
                  <path class="cls-5" d="M51,81.68c.16.03.32.01.48-.06,8.39-3.68,15.64-9.87,20.98-17.88,5.33-8.02,8.23-17.1,8.39-26.26,0-.46-.36-.84-.82-.85-.46,0-.84.36-.85.82-.15,8.84-2.95,17.61-8.11,25.36-5.16,7.75-12.16,13.73-20.26,17.28-.42.18-.61.68-.43,1.1.12.26.35.44.62.49Z"/>
                  <path class="cls-5" d="M81.59,65.15c.31.06.65-.07.84-.35,5.55-8.21,5.92-18.91,6.23-27.51.02-.46-.34-.84-.8-.86-.46-.02-.84.34-.86.8-.29,8.39-.66,18.82-5.94,26.63-.26.38-.16.9.22,1.16.1.07.21.11.32.13Z"/>
                  <path class="cls-5" d="M130.95,76.53c-.36-.95-1.67-.48-1.68.38-6.57-1.22-12.93-4.06-18.43-8.29-5.76-4.42-10.31-10.12-13.17-16.49-.19-.42-.68-.61-1.1-.42-.42.19-.61.68-.42,1.1,2.97,6.62,7.7,12.54,13.67,17.12,5.81,4.46,12.54,7.46,19.49,8.69.18.03.35.06.53.09,1.96,5.6,3.01,11.49,3.04,17.43,0,1.13,1.78,1.34,1.77.19-.04-6.78-1.29-13.47-3.71-19.81Z"/>
                  <path class="cls-5" d="M138.96,63.16c.15.03.31.01.46-.05.43-.17.63-.66.46-1.08-4.41-10.97-11.79-20.87-21.33-28.63-9.54-7.76-20.74-12.96-32.38-15.04,0,0,0,0,0,0-.45-.08-.88.22-.96.67-.08.45.22.89.67.97,23.11,4.13,43.7,20.87,52.46,42.65.11.28.35.46.63.51Z"/>
                  <path class="cls-5" d="M19.91,65.28s.02,0,.03,0c.46.07.88-.25.94-.71,2.77-19.3,16.14-36.74,34.06-44.42.42-.18.62-.67.44-1.09-.18-.42-.67-.62-1.09-.44-18.45,7.91-32.21,25.85-35.05,45.72-.06.45.24.86.68.94Z"/>
                  <path class="cls-5" d="M41.47,65.34c-1.67,2.75-3.66,5.3-5.89,7.62-2.18,2.27-4.61,4.31-7.24,6.06-1.53,1.02-3.11,1.95-4.75,2.77-.47.23-1.12.04-1.34-.46-.22-.5-.04-1.09.46-1.34,1.4-.7,2.76-1.48,4.07-2.33.08-.05.15-.1.23-.15.04-.03.16-.1-.04.03.04-.02.08-.05.11-.08.17-.11.34-.23.51-.35.31-.22.62-.43.93-.66.63-.46,1.25-.94,1.86-1.43,1.2-.98,2.36-2.03,3.45-3.13.27-.28.55-.56.81-.85.13-.13.25-.27.37-.41.06-.07.12-.14.19-.2.03-.03.06-.07.09-.1-.17.21-.02.02.01-.01.52-.59,1.02-1.19,1.51-1.8,1.08-1.37,2.08-2.81,2.99-4.31.27-.45.97-.58,1.39-.26.45.34.56.91.26,1.39h0Z"/>
                </g>
                <path class="cls-5" d="M29,20.7c7.82-7.15,17.57-11.81,27.85-14.18,10.57-2.44,21.63-2.6,32.31-.82,10.64,1.77,21.1,5.48,30.11,11.47,9.13,6.07,16.73,14.41,22.1,23.95,5.33,9.46,8.53,20.16,8.89,31.03.04,1.34.04,2.67,0,4.01-.03.97-1.55,1.12-1.52.14.32-10.66-2.13-21.26-6.8-30.83-4.7-9.63-11.67-18.17-20.2-24.67-8.49-6.46-18.53-10.62-28.92-12.85-10.38-2.23-21.21-2.57-31.68-.76-10.14,1.76-20.01,5.67-28.13,12.07-.98.77-1.94,1.58-2.86,2.42-.72.65-1.89-.33-1.17-.99h0Z"/>
                <path class="cls-10" d="M90.51,16.8c7.49-2.07,13.41-8.93,14.37-16.63-11.64,5.41-24.61,7.91-37.43,7.22l23.06,9.41Z"/>
                <path class="cls-5" d="M103.93.09c-4.55,2.45-9.57,4.03-14.7,4.64-1.48.18-2.96.27-4.45.29-.93.01-.84,1.46.09,1.44,5.36-.07,10.71-1.15,15.67-3.18,1-.41,1.99-.86,2.96-1.35-.46,3.43-1.97,6.7-4.25,9.29-.62.7.47,1.66,1.08.96,2.82-3.2,4.47-7.28,4.74-11.53.04-.6-.7-.78-1.12-.56Z"/>
              </g>
            </g>
            <g>
              <g>
                <circle class="cls-2" cx="50.9" cy="113.04" r="12.9" transform="translate(-65.75 71.05) rotate(-45.96)"/>
                <g>
                  <path class="cls-3" d="M47.01,108.99c-.62,1.49-1.24,2.99-1.86,4.48-.09.21-.13.4-.07.62.06.19.21.4.39.49.36.18.93.1,1.11-.32l1.86-4.48c.09-.21.13-.4.07-.62-.06-.19-.21-.4-.39-.49-.36-.18-.93-.1-1.11.32h0Z"/>
                  <path class="cls-3" d="M53.5,106.36c-1.04,3.1-2.08,6.2-3.13,9.3-.14.42.19.89.59.99.46.12.85-.17.99-.59,1.04-3.1,2.08-6.2,3.13-9.3.14-.42-.19-.89-.59-.99-.46-.12-.85.17-.99.59h0Z"/>
                </g>
              </g>
              <g>
                <circle class="cls-2" cx="108.14" cy="111.58" r="11.55" transform="translate(-24.13 30.04) rotate(-14.25)"/>
                <g>
                  <path class="cls-3" d="M105.37,107.38c-.66,2.07-1.32,4.14-1.98,6.22-.12.38.16.79.53.89.4.1.77-.15.89-.53.66-2.07,1.32-4.14,1.98-6.22.12-.38-.16-.79-.53-.89-.4-.1-.77.15-.89.53h0Z"/>
                  <path class="cls-3" d="M110.99,107.86c-.46,1.39-.92,2.78-1.39,4.17-.12.36.16.81.53.89.41.09.76-.14.89-.53.46-1.39.92-2.78,1.39-4.17.12-.36-.16-.81-.53-.89-.41-.09-.76.14-.89.53h0Z"/>
                </g>
              </g>
              <g>
                <ellipse class="cls-13" cx="102.15" cy="98.78" rx="9.03" ry="6.73" transform="translate(-7.62 189.01) rotate(-83.46)"/>
                <ellipse class="cls-13" cx="60.9" cy="97.69" rx="9.03" ry="6.73" transform="translate(-43.09 147.07) rotate(-83.46)"/>
                <path class="cls-13" d="M80.81,101.26c.96-.33.45-1.49.12-2.1-.4-.74.78-1.32,1.18-.57.38.69.68,1.48.54,2.28-.12.7-.58,1.35-1.27,1.59-.34.11-.71.04-.88-.31-.14-.29-.03-.77.31-.88Z"/>
                <path class="cls-13" d="M100.51,82.9c.41-.01.81,0,1.22.02.2.01.4.03.61.06.1.01.2.03.3.04.04,0,.09.03.13.02-.15-.03-.18-.03-.09-.02.03,0,.06.01.09.02.81.16,1.61.4,2.37.72.09.04.19.08.28.12.02.01.1.03.12.05,0,0-.2-.1-.08-.03.19.1.39.19.58.3.36.2.7.41,1.04.64.17.12.33.23.49.36.08.06.16.12.24.19.02.02.09.05.1.08-.11-.09-.13-.11-.06-.05.02.02.04.04.07.06.31.27.6.55.88.84.32.34.61.7.89,1.07.1.13-.11-.17-.02-.03.03.05.07.1.1.14.07.1.13.19.19.29.13.21.26.42.37.64.29.54,1.03.8,1.58.48.54-.32.79-1.01.48-1.58-1.77-3.24-5.01-5.66-8.61-6.45-1.04-.23-2.1-.35-3.16-.31-.61.02-1.22.46-1.21,1.12,0,.59.47,1.23,1.12,1.21h0Z"/>
                <path class="cls-13" d="M54.35,88.92c.23-.33.48-.65.75-.96.13-.15.27-.3.41-.45.07-.07.14-.14.22-.21.03-.03.08-.06.09-.09-.11.1-.14.13-.07.07.02-.02.04-.04.06-.06.62-.55,1.29-1.04,2-1.45.09-.05.18-.1.27-.15.02-.01.09-.06.12-.06,0,0-.2.1-.07.04.2-.09.39-.19.59-.28.37-.17.75-.31,1.14-.44.19-.06.39-.12.58-.18.1-.03.2-.05.29-.08.03,0,.1-.04.13-.03-.14.03-.16.04-.08.02.03,0,.06-.01.09-.02.4-.08.8-.15,1.2-.19.46-.05.92-.06,1.39-.06.16,0-.2-.01-.04,0,.06,0,.12,0,.17,0,.12,0,.23.01.35.02.25.02.49.05.74.09.6.09,1.26-.34,1.34-.97.07-.62-.32-1.24-.97-1.34-3.65-.55-7.54.57-10.35,2.96-.81.69-1.55,1.46-2.16,2.33-.35.5-.37,1.25.16,1.64.48.36,1.27.37,1.64-.16h0Z"/>
                <path class="cls-13" d="M89.02,109.41c-4.22,2.98-9.92,3.3-14.37.62-1.55-.93-3.03,1.45-1.48,2.38,5.24,3.15,12.17,3.01,17.19-.54,1.45-1.03.13-3.5-1.34-2.46Z"/>
              </g>
              <g class="cls-4">
                <path class="cls-16" d="M42.94,108.78c.05,1.05-1.71,1.98-3.94,2.09-2.23.11-4.07-.66-4.12-1.71s1.71-1.98,3.94-2.09c2.23-.11,4.07.66,4.12,1.71Z"/>
              </g>
              <g class="cls-4">
                <path class="cls-16" d="M119.98,106.84c.04.82-1.12,1.54-2.58,1.61-1.46.07-2.68-.54-2.72-1.36-.04-.82,1.12-1.54,2.58-1.61,1.46-.07,2.68.54,2.72,1.36Z"/>
              </g>
            </g>
          </g>
        </g>
      </g>
    </g>
  </g>
</svg>