<?xml version="1.0" encoding="UTF-8"?>
<svg xmlns="http://www.w3.org/2000/svg" viewBox="0 0 150.95 250.28">
  <defs>
    <style>
      .cls-1 {
        fill: #e6e9eb;
      }

      .cls-2 {
        fill: #473030;
      }

      .cls-3 {
        fill: #f09190;
      }

      .cls-4 {
        fill: #f47170;
      }

      .cls-5 {
        mix-blend-mode: soft-light;
      }

      .cls-6 {
        fill: #cad6e3;
      }

      .cls-7 {
        fill: #ffd3c2;
      }

      .cls-8 {
        fill: #f2ae97;
      }

      .cls-9 {
        fill: #e1937a;
      }

      .cls-10 {
        isolation: isolate;
      }

      .cls-11 {
        fill: #f1f1f1;
      }

      .cls-12 {
        fill: #f8d1c0;
      }

      .cls-13 {
        fill: #3e2a2b;
      }

      .cls-14 {
        fill: #533838;
      }

      .cls-15 {
        fill: #d5dde3;
      }

      .cls-16 {
        fill: #f7ece9;
      }
    </style>
  </defs>
  <g class="cls-10">
    <g id="Layer_2" data-name="Layer 2">
      <g id="Layer_1-2" data-name="Layer 1">
        <g id="cowo-4">
          <path class="cls-11" d="M49.61,158.48c-4.93-.99-14.52.66-21.41,6.51-5.8,4.93-16.68,47.28-21.13,56.14-4.23,8.41,8.84,21.69,15.44,17.6,6.34-3.92,22.23-50.34,22.23-50.34,0,0,9.79-28.93,4.86-29.92Z"/>
          <path class="cls-11" d="M103.69,156.91c4.93-.99,16.02,1.12,21.41,6.51,5.2,5.2,20.57,43.38,25.03,52.24,4.23,8.41-8.84,21.69-15.44,17.6-6.34-3.92-26.13-46.44-26.13-46.44,0,0-9.79-28.93-4.86-29.92Z"/>
          <g>
            <rect class="cls-12" x="63.78" y="128.08" width="28.08" height="49.31" transform="translate(155.65 305.47) rotate(180)"/>
            <path class="cls-9" d="M63.78,128.08v29.27c7.62,6.23,20.16,6.6,27.11-1.01.34-.45.66-.91.98-1.38v-26.88h-28.08Z"/>
          </g>
          <g>
            <g>
              <path class="cls-11" d="M39.68,191.12c0-9.03,2.92-29.86,2.87-30.57,5.54-3.23,15.29-5.74,20.27-6.77.57,4.64,2.86,9.9,5.82,14.54,2.78,4.34,6.2,5.39,9.58,5.45,3.38.06,5.87-1.35,8.89-5.04,2.8-3.43,3.46-7.88,5.27-14.62,6.05,2.17,11.98,1.68,18.03,3.86,4.01,8.07,5.77,27.28,6.86,36.08.69,5.54,3.88,44.39,1.88,48.7-2,4.31-19.61,6.5-24.86,6.93-19.7,1.61-44.25-.35-47.6-1.47-13.9-4.61-11.67-5.85-11.14-12.41.27-3.35,4.13-35.64,4.13-44.68Z"/>
              <path class="cls-15" d="M115.46,179.31c-.25,9.35,1.54,28.81-2.52,30.12-3.28,1.05-46.92,2.55-69.37-.12-1.6,0-2.59-2.31-2.59-6.94,0-8.92.6-14.74-.66-21.83-.37,4.02-.64,7.84-.64,10.58,0,9.03-3.86,41.32-4.13,44.68-.53,6.56-2.75,7.8,11.14,12.41,3.36,1.11,27.9,3.07,47.6,1.47,5.24-.43,22.86-2.62,24.86-6.93,2-4.31-1.19-43.16-1.88-48.7-.45-3.64-1.02-9.06-1.81-14.73Z"/>
              <path class="cls-1" d="M63.52,152.74s-4.29.48-5,2.98c-.71,2.5,1.09,24.32,1.09,24.32,0,0,5.2-5.9,7.22-6.91,2.03-1.01,11.11,1.1,11.38.65.26-.45-12.59-6.63-14.69-21.03Z"/>
              <path class="cls-1" d="M92.13,152.84s4.29.48,5,2.98c.71,2.5-1.09,24.32-1.09,24.32,0,0-5.2-5.9-7.22-6.91-2.03-1.01-9.64.98-9.9.53-.26-.45,11.12-6.51,13.22-20.91Z"/>
            </g>
            <g>
              <path class="cls-1" d="M106.31,206.94l-.44-16.04c-7.04.82-15.25.36-15.25.36v15.05c2.12,2.29,5.14,4.08,7.39,4.17,3.69.15,8.3-3.54,8.3-3.54Z"/>
              <g>
                <g>
                  <circle class="cls-6" cx="81.42" cy="182.34" r="1.27"/>
                  <circle class="cls-6" cx="81.42" cy="201.1" r="1.27"/>
                  <circle class="cls-6" cx="81.42" cy="219.87" r="1.27"/>
                  <path class="cls-6" d="M82.69,238.63c0,.7-.57,1.27-1.27,1.27s-1.27-.57-1.27-1.27.57-1.27,1.27-1.27,1.27.57,1.27,1.27Z"/>
                </g>
                <polygon class="cls-6" points="78.6 248.93 79.14 248.93 78.91 173.75 78.4 173.76 78.6 248.93"/>
              </g>
            </g>
          </g>
          <g>
            <g>
              <g>
                <g>
                  <path class="cls-7" d="M18.65,121.57c-13.21-.82-20.11-16-18.39-26.35.91-4.96,6.25-5.9,11.9-4.84,11.71,2.04,18.42,13.41,14.35,20.31-1.75,4.67-4.69,10.91-7.87,10.88Z"/>
                  <path class="cls-8" d="M17.34,110.94c-.2.59-3.02,2.14-4.85.75-2.1-2.82,2-5.86.57-8.42-1.83-1.38-4.13-3.62-2.38-4.26,3.5-1.28,7.3,5.53,10.25,1.37,1.03-1.46,1.82-3.33,2.01-5.31,1.26,1.3,2.29,2.74,3.07,4.24-1.32,4.58-5.27,8.49-8.68,11.63Z"/>
                </g>
                <g>
                  <path class="cls-7" d="M127.47,130.79c14.12.55,19.15-13.75,17.55-24.12-.85-4.97-5.73-7.58-11.39-6.59-11.74,1.89-18.21,13.99-14.23,20.94,1.69,4.69,4.89,9.65,8.07,9.77Z"/>
                  <path class="cls-8" d="M128.58,121.38c.19.59,3,2.17,4.84.82,2.14-2.79-1.92-5.89-.46-8.43,1.84-1.36,4.17-3.56,2.43-4.23-3.48-1.33-7.37,5.44-10.27,1.24-1.01-1.47-1.77-3.35-1.94-5.34-1.27,1.28-2.33,2.71-3.13,4.2,1.26,4.59,5.16,8.56,8.53,11.74Z"/>
                </g>
              </g>
              <path class="cls-7" d="M20.46,122.2c-.09-10.67.27-21.34,1.06-31.97.92-12.37,2.5-24.96,7.87-36.14,5.85-12.19,16.19-22.16,28.57-27.59,14.85-6.5,32.5-6.39,47.17.66,11.78,5.36,21.29,15.91,24.61,28.47,1.45,5.48,1.81,11.18,1.77,16.85-.06,9.46-1.2,18.92-3.38,28.12.48,5.47.97,10.93,1.45,16.4.27,3,.53,6.06-.11,9-.64,2.97-2.17,5.67-3.88,8.19-11.46,16.95-36.45,18.64-49.07,18.46-16.89-.24-50.13-14.5-56.05-30.46Z"/>
              <path class="cls-8" d="M32.89,130.37c-10.45-10.15-4.34-24.22-.38-35.73,7.57-.8,20.33-8.55,23.75-20.65,7.23,17.84,35.95,19.24,50.74,13.5,5.74,5.9,14,7.19,22.32,7.46,1.4-7.4,2.13-14.93,2.18-22.46.03-5.66-.33-11.37-1.77-16.85-3.32-12.56-12.83-23.11-24.61-28.47-14.66-7.05-32.32-7.16-47.17-.66-12.39,5.42-22.72,15.4-28.57,27.59-5.37,11.18-6.95,23.77-7.87,36.14-.79,10.64-1.14,21.31-1.06,31.97,5.92,15.95,39.16,30.22,56.05,30.46,9.74.14,26.83-.85,39.39-9.08-25.8,14.65-61.63,8.16-83.01-13.21Z"/>
            </g>
            <g>
              <g>
                <circle class="cls-3" cx="50.91" cy="116.06" r="12.06" transform="translate(-65.19 65.24) rotate(-42.68)"/>
                <g>
                  <path class="cls-4" d="M47.51,112.06c-.66,1.36-1.33,2.72-1.99,4.08-.09.19-.15.36-.1.57.04.18.17.38.34.48.33.19.87.15,1.05-.24.66-1.36,1.33-2.72,1.99-4.08.09-.19.15-.36.1-.57-.04-.18-.17-.38-.34-.48-.33-.19-.87-.15-1.05.24h0Z"/>
                  <path class="cls-4" d="M53.72,109.97c-1.15,2.83-2.3,5.66-3.44,8.5-.15.38.12.84.5.96.42.13.8-.11.96-.5l3.44-8.5c.15-.38-.12-.84-.5-.96-.42-.13-.8.11-.96.5h0Z"/>
                </g>
              </g>
              <g>
                <circle class="cls-3" cx="105.14" cy="118.69" r="11.55" transform="translate(-20.68 215.19) rotate(-85.95)"/>
                <g>
                  <path class="cls-4" d="M102.63,114.33c-.78,2.03-1.57,4.06-2.35,6.08-.14.37.11.8.47.92.4.13.78-.11.92-.47.78-2.03,1.57-4.06,2.35-6.08.14-.37-.11-.8-.47-.92-.4-.13-.77.11-.92.47h0Z"/>
                  <path class="cls-4" d="M108.21,115.15c-.55,1.36-1.09,2.72-1.64,4.07-.14.36.11.82.47.92.41.11.77-.09.92-.47.55-1.36,1.09-2.72,1.64-4.07.14-.36-.11-.82-.47-.92-.41-.11-.77.09-.92.47h0Z"/>
                </g>
              </g>
              <g>
                <ellipse class="cls-14" cx="99.52" cy="105.66" rx="8.44" ry="6.29" transform="translate(-21.84 185.29) rotate(-79.98)"/>
                <ellipse class="cls-14" cx="61.11" cy="102.3" rx="8.44" ry="6.29" transform="translate(-50.26 144.69) rotate(-79.98)"/>
                <path class="cls-14" d="M79.48,106.76c.91-.25.51-1.36.23-1.96-.34-.72.8-1.18,1.14-.47.31.67.55,1.42.37,2.15-.16.65-.61,1.23-1.27,1.41-.32.09-.66,0-.8-.34-.12-.28.01-.72.34-.8Z"/>
                <path class="cls-14" d="M98.9,90.76c.38,0,.76.04,1.14.09.19.03.38.06.56.09.09.02.19.04.28.06.03,0,.09.03.12.03-.14-.03-.17-.04-.09-.02.03,0,.05.01.08.02.75.19,1.48.46,2.17.81.09.04.17.09.25.13.02.01.1.04.11.06,0,0-.18-.1-.07-.04.18.1.35.2.52.31.32.2.63.42.93.66.15.12.3.24.44.36.07.06.14.13.21.19.02.02.08.06.09.08-.09-.09-.11-.11-.06-.05.02.02.04.04.06.06.27.27.53.54.77.84.28.33.53.69.77,1.05.09.13-.1-.16-.02-.03.03.05.06.09.08.14.06.09.11.19.16.28.11.2.21.41.31.62.24.52.92.81,1.45.54.52-.27.8-.89.54-1.45-1.46-3.12-4.35-5.56-7.67-6.51-.96-.27-1.94-.44-2.93-.47-.57-.01-1.16.36-1.19.98-.03.55.37,1.18.98,1.19h0Z"/>
                <path class="cls-14" d="M55.5,93.75c.24-.3.49-.58.76-.85.13-.13.27-.27.41-.39.07-.06.14-.13.21-.19.03-.02.08-.05.09-.08-.11.09-.13.11-.07.06.02-.02.04-.03.06-.05.61-.48,1.26-.9,1.95-1.24.08-.04.17-.08.26-.12.02-.01.09-.05.11-.05,0,0-.19.08-.07.03.19-.08.38-.16.57-.23.36-.13.72-.25,1.09-.35.18-.05.37-.09.55-.13.09-.02.19-.04.28-.06.03,0,.09-.03.12-.02-.13.02-.15.03-.07.01.03,0,.05,0,.08-.01.38-.06.75-.09,1.13-.11.43-.02.87,0,1.3.02.15,0-.19-.02-.03,0,.05,0,.11.01.16.02.11.01.22.03.32.04.23.03.46.08.68.12.56.12,1.2-.24,1.3-.83.1-.58-.23-1.17-.83-1.3-3.37-.72-7.06.1-9.82,2.18-.79.6-1.52,1.27-2.14,2.05-.36.44-.41,1.14.06,1.54.42.36,1.16.42,1.54-.06h0Z"/>
                <path class="cls-14" d="M86.68,114.84c-4.11,2.54-9.44,2.52-13.44-.24-1.39-.96-2.9,1.18-1.51,2.14,4.71,3.24,11.18,3.5,16.07.47,1.41-.88.32-3.26-1.11-2.37Z"/>
              </g>
              <g class="cls-5">
                <path class="cls-16" d="M43.77,110.87c-.01,1.05-1.77,1.88-3.93,1.85-2.16-.03-3.89-.9-3.88-1.95s1.77-1.88,3.93-1.85c2.16.03,3.89.9,3.88,1.95Z"/>
              </g>
              <g class="cls-5">
                <path class="cls-16" d="M119.3,114.93c-.01.95-1.4,1.7-3.09,1.68s-3.06-.81-3.04-1.76,1.4-1.7,3.09-1.68c1.69.02,3.06.81,3.04,1.76Z"/>
              </g>
            </g>
            <g>
              <path class="cls-14" d="M149.73,51.43c-.48-1.82-1.09-3.6-1.81-5.34-.11-.75-.25-1.49-.4-2.23-1.7-8.03-6.21-15.15-11.93-20.94-5.74-5.82-12.64-10.74-19.87-14.52-7.76-4.06-16.24-6.88-25.04-7.2-7.53-.28-14.93,1.27-21.51,4.71.79-1.12,1.7-2.16,2.73-3.09,1.57-1.41-.66-3.8-2.23-2.4-2.7,2.42-4.68,5.48-5.83,8.85-.43.4-.72.93-.88,1.51-6.84-2.52-14.28-2.84-21.41-.69-3.96,1.2-2.51,7.51,1.49,6.3,1.67-.51,3.36-.85,5.05-1.05-2.29.88-4.52,1.99-6.67,3.29-10.87,4.44-20.83,11.01-27.64,20.82-4.08,5.87-6.72,12.72-7.39,19.86-.75,8.03,1.12,16.09,3.31,23.76,2.54,8.87,5.56,17.59,8.97,26.16.6,1.51,2.59,2.27,4.06,2.13.46-.04.91-.17,1.34-.37.09.06.17.12.26.17-.02-.09-.04-.18-.07-.27.95-.49,1.73-1.33,2.02-2.38,1.55-5.57,3.1-11.14,4.64-16.72.17-.06.33-.12.49-.19,1.25-.56,2.33-1.48,3.25-2.6.7.23,1.49.3,2.31.19,7.19-.91,12.97-6.79,15.95-13.09,1.76-3.7,2.93-7.56,4.02-11.5.04-.15.08-.3.13-.45.36,2.05.95,4.07,1.81,6.04,3.23,7.46,10.72,12.44,18.78,12.95,1.58.1,3.14,0,4.65-.29,1.47.54,2.65,0,3.34-.98.06-.02.11-.04.17-.07.41.44.87.85,1.39,1.23,1.84,1.35,4.37,2.1,6.65,1.99,3.73-.19,6.65-2.06,9.15-4.5,3.35,2.53,8.17,3.28,12.15,1.91,1.33,1.42,3.04,2.5,4.9,3.11.04.33.07.66.11.99.52,5.2.72,10.61,2.78,15.28,1.78,4.03,5.46,7.36,9.32,7.34,1.53-3.07,3.06-6.16,4.5-9.3,5.71-9.63,11.45-19.76,13.42-30.91,1.03-5.82,1.08-11.78-.42-17.53ZM47.59,49.88c-3.11,8.86-.96,20.72-8.05,27.72.67-2.97,1.1-6.04,1.55-9.06.89-6.07,1.96-12.35,5.13-17.38.53-.84,1.13-1.62,1.79-2.35-.14.35-.28.71-.41,1.07ZM66.44,57.81c-.05-.31-.09-.63-.14-.96.81,3.23,1.45,6.54,2.42,9.65.54,1.75,1.2,3.46,1.99,5.08-2.72-3.82-3.65-9.54-4.27-13.77Z"/>
              <path class="cls-2" d="M149.73,51.43c-.48-1.82-1.09-3.6-1.81-5.34-.11-.75-.25-1.49-.4-2.23-1.7-8.03-6.21-15.15-11.93-20.94-5.74-5.82-12.64-10.74-19.87-14.52-7.76-4.06-16.24-6.88-25.04-7.2-7.53-.28-14.93,1.27-21.51,4.71.79-1.12,1.7-2.16,2.73-3.09,1.57-1.41-.66-3.8-2.23-2.4-2.7,2.42-4.68,5.48-5.83,8.85-.43.4-.72.93-.88,1.51-6.84-2.52-14.28-2.84-21.41-.69-3.96,1.2-2.51,7.51,1.49,6.3,1.67-.51,3.36-.85,5.05-1.05-2.29.88-4.52,1.99-6.67,3.29-10.87,4.44-20.83,11.01-27.64,20.82-4.08,5.87-6.72,12.72-7.39,19.86-.75,8.03,1.12,16.09,3.31,23.76.9,3.13,1.86,6.25,2.87,9.34.28-.49.54-1.01.75-1.56,3.22-7.9-.58-16.67.88-25.45,1.17-9.07,3.4-23.17,9.83-29.6,7.02-7.02,30.77-18.23,45.45-9.59,13.16-11.99,33.34-8.19,47.97-1.17,14.33,6.73,27.2,16.96,31,33.34.58,1.75.88,3.22,1.17,4.68.35,1.62.58,3.23.73,4.81.85-5.48.81-11.05-.6-16.45Z"/>
              <path class="cls-13" d="M72.2,17.93c7.88-5.14,17.91-6.27,26.72-2.99,1.58.59,2.36-1.91.79-2.5-9.41-3.51-20.34-2.31-28.75,3.18-1.4.91-.18,3.23,1.24,2.31h0Z"/>
              <path class="cls-13" d="M92.7,49.59c-.02,8.02,1.48,16.17,4.74,23.52,2.8,6.31,8.72,12.49,16.28,10.74,1.64-.38,1.04-2.93-.6-2.55-6.84,1.58-11.55-4.94-13.79-10.43-2.74-6.68-4.02-13.99-4-21.19,0-1.68-2.61-1.78-2.62-.09h0Z"/>
              <path class="cls-13" d="M75.26,41.39c-.36,6.89.26,13.83,1.85,20.54.8,3.35,1.84,6.63,3.1,9.83,1.15,2.93,2.41,5.94,4.24,8.52,1.82,2.57,4.32,4.69,7.59,4.84,1.68.07,1.78-2.54.09-2.62-3.34-.15-5.48-3.26-6.91-5.94-1.87-3.51-3.31-7.28-4.46-11.08-2.35-7.77-3.33-15.89-2.91-23.99.09-1.68-2.53-1.78-2.62-.09h0Z"/>
              <path class="cls-13" d="M39.24,33.38c-7.94,2.5-13.86,9.4-15.21,17.6-.27,1.66,2.35,1.74,2.62.09,1.15-6.96,6.48-13.03,13.19-15.14,1.6-.5,1.01-3.06-.6-2.55h0Z"/>
              <path class="cls-13" d="M58.82,47.87c.63-1.56-1.87-2.34-2.5-.79-1.85,4.57-2.04,9.7-.53,14.39.51,1.59,3.07,1,2.55-.6-1.39-4.3-1.22-8.82.48-13Z"/>
            </g>
          </g>
        </g>
      </g>
    </g>
  </g>
</svg>