<?xml version="1.0" encoding="UTF-8"?>
<svg id="Layer_2" data-name="Layer 2" xmlns="http://www.w3.org/2000/svg" viewBox="0 0 296.92 95.79">
  <defs>
    <style>
      .cls-1 {
        fill: #fff;
      }

      .cls-2 {
        fill: #57ade6;
      }
    </style>
  </defs>
  <g id="Layer_1-2" data-name="Layer 1">
    <g id="papan-nama">
      <rect class="cls-2" x="0" y="0" width="296.92" height="95.79" rx="47.89" ry="47.89"/>
      <path class="cls-1" d="M246.38,91.51h-6.47c-.59,0-1.07-.48-1.07-1.07s.48-1.07,1.07-1.07h6.47c.59,0,1.07.48,1.07,1.07s-.48,1.07-1.07,1.07ZM233.98,91.51h-6.47c-.59,0-1.07-.48-1.07-1.07s.48-1.07,1.07-1.07h6.47c.59,0,1.07.48,1.07,1.07s-.48,1.07-1.07,1.07ZM221.59,91.51h-6.47c-.59,0-1.07-.48-1.07-1.07s.48-1.07,1.07-1.07h6.47c.59,0,1.07.48,1.07,1.07s-.48,1.07-1.07,1.07ZM209.19,91.51h-6.47c-.59,0-1.07-.48-1.07-1.07s.48-1.07,1.07-1.07h6.47c.59,0,1.07.48,1.07,1.07s-.48,1.07-1.07,1.07ZM196.79,91.51h-6.47c-.59,0-1.07-.48-1.07-1.07s.48-1.07,1.07-1.07h6.47c.59,0,1.07.48,1.07,1.07s-.48,1.07-1.07,1.07ZM184.39,91.51h-6.47c-.59,0-1.07-.48-1.07-1.07s.48-1.07,1.07-1.07h6.47c.59,0,1.07.48,1.07,1.07s-.48,1.07-1.07,1.07ZM171.99,91.51h-6.47c-.59,0-1.07-.48-1.07-1.07s.48-1.07,1.07-1.07h6.47c.59,0,1.07.48,1.07,1.07s-.48,1.07-1.07,1.07ZM159.59,91.51h-6.47c-.59,0-1.07-.48-1.07-1.07s.48-1.07,1.07-1.07h6.47c.59,0,1.07.48,1.07,1.07s-.48,1.07-1.07,1.07ZM147.19,91.51h-6.47c-.59,0-1.07-.48-1.07-1.07s.48-1.07,1.07-1.07h6.47c.59,0,1.07.48,1.07,1.07s-.48,1.07-1.07,1.07ZM134.79,91.51h-6.47c-.59,0-1.07-.48-1.07-1.07s.48-1.07,1.07-1.07h6.47c.59,0,1.07.48,1.07,1.07s-.48,1.07-1.07,1.07ZM122.39,91.51h-6.47c-.59,0-1.07-.48-1.07-1.07s.48-1.07,1.07-1.07h6.47c.59,0,1.07.48,1.07,1.07s-.48,1.07-1.07,1.07ZM109.99,91.51h-6.47c-.59,0-1.07-.48-1.07-1.07s.48-1.07,1.07-1.07h6.47c.59,0,1.07.48,1.07,1.07s-.48,1.07-1.07,1.07ZM97.59,91.51h-6.47c-.59,0-1.07-.48-1.07-1.07s.48-1.07,1.07-1.07h6.47c.59,0,1.07.48,1.07,1.07s-.48,1.07-1.07,1.07ZM85.19,91.51h-6.47c-.59,0-1.07-.48-1.07-1.07s.48-1.07,1.07-1.07h6.47c.59,0,1.07.48,1.07,1.07s-.48,1.07-1.07,1.07ZM72.79,91.51h-6.47c-.59,0-1.07-.48-1.07-1.07s.48-1.07,1.07-1.07h6.47c.59,0,1.07.48,1.07,1.07s-.48,1.07-1.07,1.07ZM60.39,91.51h-6.47c-.59,0-1.07-.48-1.07-1.07s.48-1.07,1.07-1.07h6.47c.59,0,1.07.48,1.07,1.07s-.48,1.07-1.07,1.07ZM48,91.51h-.1c-2.21,0-4.43-.17-6.6-.5-.58-.09-.98-.63-.9-1.22.09-.58.63-.98,1.22-.9,2.06.31,4.18.47,6.28.47h.1c.59,0,1.07.48,1.07,1.07s-.48,1.07-1.07,1.07ZM252.31,91.39c-.55,0-1.02-.43-1.06-.99-.05-.59.39-1.1.98-1.15,2.09-.16,4.19-.48,6.22-.96.57-.13,1.15.22,1.28.8.13.57-.22,1.15-.8,1.28-2.14.5-4.34.84-6.55,1.01-.03,0-.06,0-.08,0ZM35.67,89.73c-.1,0-.21-.01-.31-.05-2.11-.63-4.19-1.44-6.18-2.39-.53-.25-.76-.89-.51-1.42.25-.53.89-.76,1.42-.5,1.9.9,3.87,1.67,5.88,2.27.57.17.89.77.72,1.33-.14.46-.56.76-1.02.76ZM264.36,88.66c-.43,0-.83-.26-1-.68-.21-.55.06-1.17.61-1.38,1.95-.76,3.86-1.67,5.68-2.72.51-.29,1.16-.12,1.46.39.29.51.12,1.16-.39,1.46-1.91,1.1-3.92,2.06-5.97,2.86-.13.05-.26.07-.39.07ZM24.48,84.48c-.2,0-.41-.06-.59-.18-1.84-1.22-3.6-2.58-5.23-4.06-.44-.4-.47-1.07-.08-1.51.4-.44,1.07-.47,1.51-.08,1.56,1.41,3.23,2.71,4.98,3.86.49.33.63.99.3,1.48-.21.31-.55.48-.89.48ZM275.1,82.57c-.32,0-.63-.14-.84-.41-.36-.47-.28-1.14.19-1.5,1.65-1.29,3.23-2.71,4.67-4.23.41-.43,1.08-.45,1.51-.04.43.41.45,1.08.04,1.51-1.52,1.6-3.17,3.1-4.91,4.45-.2.15-.43.22-.66.22ZM15.27,76.25c-.31,0-.61-.13-.82-.38-1.42-1.69-2.71-3.5-3.86-5.38-.31-.5-.15-1.16.36-1.47.51-.31,1.16-.15,1.47.36,1.09,1.79,2.32,3.51,3.67,5.12.38.45.32,1.13-.13,1.51-.2.17-.44.25-.69.25ZM283.66,73.66c-.21,0-.43-.06-.62-.2-.48-.34-.59-1.01-.25-1.49,1.22-1.71,2.32-3.52,3.27-5.39.27-.53.91-.74,1.44-.47.53.27.74.91.47,1.44-1,1.96-2.15,3.87-3.43,5.66-.21.29-.54.45-.87.45ZM8.79,65.74c-.41,0-.81-.24-.98-.65-.87-2.02-1.59-4.13-2.15-6.27-.15-.57.2-1.15.77-1.3.57-.15,1.15.2,1.3.77.53,2.03,1.21,4.03,2.04,5.96.23.54-.02,1.17-.56,1.4-.14.06-.28.09-.42.09ZM289.31,62.67c-.11,0-.23-.02-.35-.06-.56-.19-.86-.8-.67-1.36.68-1.98,1.21-4.03,1.57-6.1.1-.58.66-.97,1.24-.87.58.1.97.66.87,1.24-.39,2.17-.94,4.33-1.65,6.42-.15.44-.57.72-1.01.72ZM5.62,53.8c-.54,0-1-.4-1.06-.95-.19-1.64-.28-3.31-.28-4.96,0-.55.01-1.11.03-1.66.02-.59.5-1.05,1.11-1.03.59.02,1.05.52,1.03,1.11-.02.52-.03,1.05-.03,1.57,0,1.57.09,3.16.27,4.72.07.59-.35,1.12-.94,1.18-.04,0-.08,0-.12,0ZM291.55,50.53s-.03,0-.04,0c-.59-.02-1.05-.52-1.03-1.11.02-.51.03-1.01.03-1.52,0-1.59-.09-3.2-.27-4.77-.07-.59.35-1.12.94-1.18.58-.07,1.12.35,1.18.94.19,1.65.29,3.34.29,5.01,0,.54,0,1.07-.03,1.6-.02.58-.5,1.03-1.07,1.03ZM6.01,41.46c-.06,0-.13,0-.19-.02-.58-.1-.97-.66-.86-1.24.39-2.17.95-4.33,1.66-6.41.19-.56.8-.86,1.36-.66.56.19.86.8.66,1.36-.68,1.98-1.21,4.03-1.58,6.1-.09.52-.54.88-1.05.88ZM290.21,38.25c-.47,0-.91-.32-1.03-.8-.53-2.03-1.22-4.03-2.05-5.95-.23-.54.02-1.17.56-1.4.54-.23,1.17.01,1.4.56.88,2.03,1.6,4.13,2.15,6.26.15.57-.19,1.15-.76,1.3-.09.02-.18.03-.27.03ZM9.93,29.75c-.16,0-.33-.04-.48-.12-.53-.27-.74-.91-.47-1.44,1-1.96,2.16-3.87,3.44-5.66.34-.48,1.01-.59,1.49-.25.48.34.59,1.01.25,1.49-1.22,1.71-2.32,3.52-3.27,5.38-.19.37-.56.58-.95.58ZM285.39,26.88c-.36,0-.71-.18-.91-.51-1.09-1.79-2.33-3.51-3.68-5.11-.38-.45-.32-1.13.13-1.51.45-.38,1.13-.32,1.51.13,1.42,1.69,2.72,3.5,3.86,5.38.31.5.15,1.16-.36,1.47-.17.11-.37.16-.56.16ZM17.07,19.66c-.26,0-.53-.1-.74-.29-.43-.41-.45-1.08-.04-1.51,1.52-1.6,3.17-3.09,4.91-4.44.47-.36,1.14-.28,1.5.19.36.47.28,1.14-.19,1.5-1.66,1.28-3.23,2.71-4.67,4.23-.21.22-.49.33-.77.33ZM277.5,17.37c-.26,0-.51-.09-.72-.28-1.56-1.41-3.23-2.7-4.98-3.86-.49-.32-.63-.99-.3-1.48.33-.49.99-.63,1.48-.3,1.84,1.21,3.6,2.58,5.24,4.05.44.4.47,1.07.08,1.51-.21.23-.5.35-.79.35ZM26.78,12.03c-.37,0-.73-.19-.93-.54-.29-.51-.12-1.17.39-1.46,1.91-1.1,3.92-2.06,5.98-2.85.55-.21,1.17.06,1.38.61.21.55-.06,1.17-.61,1.38-1.95.75-3.86,1.66-5.68,2.71-.17.1-.35.14-.53.14ZM267.23,10.51c-.15,0-.31-.03-.46-.1-1.9-.9-3.88-1.66-5.88-2.26-.57-.17-.89-.76-.72-1.33.17-.57.76-.89,1.33-.72,2.11.63,4.19,1.43,6.19,2.38.53.25.76.89.51,1.42-.18.39-.57.61-.97.61ZM38.27,7.51c-.49,0-.93-.33-1.04-.83-.13-.57.22-1.15.8-1.28,2.14-.5,4.35-.83,6.55-1,.58-.05,1.1.4,1.15.99.04.59-.4,1.1-.99,1.15-2.09.16-4.19.48-6.23.95-.08.02-.16.03-.24.03ZM255.42,6.89c-.05,0-.11,0-.16-.01-2.05-.31-4.15-.47-6.23-.47-.59,0-1.09-.48-1.09-1.07s.45-1.07,1.04-1.07h.05c2.19,0,4.4.17,6.55.49.58.09.99.63.9,1.22-.08.53-.54.91-1.06.91ZM243.04,6.41h-6.47c-.59,0-1.07-.48-1.07-1.07s.48-1.07,1.07-1.07h6.47c.59,0,1.07.48,1.07,1.07s-.48,1.07-1.07,1.07ZM230.65,6.41h-6.47c-.59,0-1.07-.48-1.07-1.07s.48-1.07,1.07-1.07h6.47c.59,0,1.07.48,1.07,1.07s-.48,1.07-1.07,1.07ZM218.25,6.41h-6.47c-.59,0-1.07-.48-1.07-1.07s.48-1.07,1.07-1.07h6.47c.59,0,1.07.48,1.07,1.07s-.48,1.07-1.07,1.07ZM205.85,6.41h-6.47c-.59,0-1.07-.48-1.07-1.07s.48-1.07,1.07-1.07h6.47c.59,0,1.07.48,1.07,1.07s-.48,1.07-1.07,1.07ZM193.45,6.41h-6.47c-.59,0-1.07-.48-1.07-1.07s.48-1.07,1.07-1.07h6.47c.59,0,1.07.48,1.07,1.07s-.48,1.07-1.07,1.07ZM181.05,6.41h-6.47c-.59,0-1.07-.48-1.07-1.07s.48-1.07,1.07-1.07h6.47c.59,0,1.07.48,1.07,1.07s-.48,1.07-1.07,1.07ZM168.65,6.41h-6.47c-.59,0-1.07-.48-1.07-1.07s.48-1.07,1.07-1.07h6.47c.59,0,1.07.48,1.07,1.07s-.48,1.07-1.07,1.07ZM156.25,6.41h-6.47c-.59,0-1.07-.48-1.07-1.07s.48-1.07,1.07-1.07h6.47c.59,0,1.07.48,1.07,1.07s-.48,1.07-1.07,1.07ZM143.85,6.41h-6.47c-.59,0-1.07-.48-1.07-1.07s.48-1.07,1.07-1.07h6.47c.59,0,1.07.48,1.07,1.07s-.48,1.07-1.07,1.07ZM131.45,6.41h-6.47c-.59,0-1.07-.48-1.07-1.07s.48-1.07,1.07-1.07h6.47c.59,0,1.07.48,1.07,1.07s-.48,1.07-1.07,1.07ZM119.05,6.41h-6.47c-.59,0-1.07-.48-1.07-1.07s.48-1.07,1.07-1.07h6.47c.59,0,1.07.48,1.07,1.07s-.48,1.07-1.07,1.07ZM106.65,6.41h-6.47c-.59,0-1.07-.48-1.07-1.07s.48-1.07,1.07-1.07h6.47c.59,0,1.07.48,1.07,1.07s-.48,1.07-1.07,1.07ZM94.25,6.41h-6.47c-.59,0-1.07-.48-1.07-1.07s.48-1.07,1.07-1.07h6.47c.59,0,1.07.48,1.07,1.07s-.48,1.07-1.07,1.07ZM81.85,6.41h-6.47c-.59,0-1.07-.48-1.07-1.07s.48-1.07,1.07-1.07h6.47c.59,0,1.07.48,1.07,1.07s-.48,1.07-1.07,1.07ZM69.45,6.41h-6.47c-.59,0-1.07-.48-1.07-1.07s.48-1.07,1.07-1.07h6.47c.59,0,1.07.48,1.07,1.07s-.48,1.07-1.07,1.07ZM57.05,6.41h-6.47c-.59,0-1.07-.48-1.07-1.07s.48-1.07,1.07-1.07h6.47c.59,0,1.07.48,1.07,1.07s-.48,1.07-1.07,1.07Z"/>
    </g>
  </g>
</svg>